<svg xmlns="http://www.w3.org/2000/svg" width="120" height="120" viewBox="0 0 120 120"><defs><style>.a{fill:#e0e0e0;}.b{fill:none;}.c{fill:#333;font-size:32px;font-family:SourceSansPro-Bold, Source Sans Pro;font-weight:700;}.d{fill:#666;font-size:10px;font-family:SourceSansPro-Semibold, Source Sans Pro;font-weight:600;}</style></defs><g transform="translate(-962.996 -68.154)"><g transform="translate(962.996 68.154)"><path class="a" d="M1023,188.154a60,60,0,1,1,60-60A60.068,60.068,0,0,1,1023,188.154Zm0-117.227a57.227,57.227,0,1,0,57.227,57.227A57.292,57.292,0,0,0,1023,70.927Z" transform="translate(-962.996 -68.154)"/></g><g transform="translate(1022.996 183.909)"><path class="b" d="M1092.842,321.518a58.561,58.561,0,0,0,18.116-2.858" transform="translate(-1092.842 -318.66)"/></g><g transform="translate(1004.88 183.909)"><path class="b" d="M1053.637,318.66a58.559,58.559,0,0,0,18.116,2.858" transform="translate(-1053.637 -318.66)"/></g></g><text class="c" transform="translate(60 68)"><tspan x="-22.16" y="0">0%</tspan><tspan class="d"><tspan x="-26.39" y="9">Completado</tspan></tspan></text></svg>