<svg xmlns="http://www.w3.org/2000/svg" width="120" height="120" viewBox="0 0 120 120"><defs><style>.a{fill:#e0e0e0;}.b{fill:#5cdd6a;}.c{fill:none;}.d,.e,.f{isolation:isolate;}.e{fill:#333;font-size:32px;font-family:SourceSansPro-Bold, Source Sans Pro;font-weight:700;}.f{fill:#666;font-size:9px;font-family:SourceSansPro-Semibold, Source Sans Pro;font-weight:600;}</style></defs><g transform="translate(0 0)"><path class="a" d="M2366.107,1687.823a60,60,0,1,1,60-60A60.068,60.068,0,0,1,2366.107,1687.823Zm0-117.227a57.227,57.227,0,1,0,57.228,57.228A57.292,57.292,0,0,0,2366.107,1570.6Z" transform="translate(-2306.107 -1567.823)"/><g transform="translate(58.614)"><path class="b" d="M2492.953,1629.209a1.386,1.386,0,0,1-1.386-1.386,57.292,57.292,0,0,0-57.228-57.228,1.386,1.386,0,0,1,0-2.772,60.068,60.068,0,0,1,60,60A1.386,1.386,0,0,1,2492.953,1629.209Z" transform="translate(-2432.953 -1567.823)"/></g></g><g transform="translate(93.065 93.065)"><path class="b" d="M2508.9,1784.965a1.386,1.386,0,0,1-.817-2.507,57.432,57.432,0,0,0,12.662-12.662,1.386,1.386,0,1,1,2.242,1.632,60.21,60.21,0,0,1-13.272,13.272A1.379,1.379,0,0,1,2508.9,1784.965Z" transform="translate(-2507.51 -1769.226)"/></g><g transform="translate(76.729 106.033)"><path class="b" d="M2473.543,1808.4a1.387,1.387,0,0,1-.428-2.705,56.955,56.955,0,0,0,15.948-8.139,1.386,1.386,0,1,1,1.632,2.241,59.708,59.708,0,0,1-16.723,8.534A1.4,1.4,0,0,1,2473.543,1808.4Z" transform="translate(-2472.157 -1797.288)"/></g><g transform="translate(106.033 76.73)"><path class="b" d="M2536.958,1752.983a1.387,1.387,0,0,1-1.12-2.2,56.96,56.96,0,0,0,8.139-15.948,1.386,1.386,0,0,1,2.637.856,59.735,59.735,0,0,1-8.534,16.724A1.385,1.385,0,0,1,2536.958,1752.983Z" transform="translate(-2535.573 -1733.874)"/></g><g transform="translate(58.613 114.369)"><path class="b" d="M2434.339,1820.96a1.386,1.386,0,0,1,0-2.773,57.177,57.177,0,0,0,17.688-2.79,1.386,1.386,0,1,1,.857,2.637A59.958,59.958,0,0,1,2434.339,1820.96Z" transform="translate(-2432.953 -1815.33)"/></g><g transform="translate(78.116 4.244)"><path class="c" d="M2491.494,1585.344a58.427,58.427,0,0,0-16.336-8.336" transform="translate(-2475.158 -1577.008)"/></g><g transform="translate(107.419 25.548)"><path class="c" d="M2546.909,1639.447a58.423,58.423,0,0,0-8.336-16.336" transform="translate(-2538.573 -1623.111)"/></g><g transform="translate(94.452 12.581)"><path class="c" d="M2523.478,1608.016a58.929,58.929,0,0,0-12.967-12.967" transform="translate(-2510.511 -1595.049)"/></g><g transform="translate(24.161 106.032)"><path class="b" d="M2376.118,1808.4a1.4,1.4,0,0,1-.429-.068,59.728,59.728,0,0,1-16.723-8.534,1.386,1.386,0,1,1,1.632-2.242,56.953,56.953,0,0,0,15.948,8.139,1.386,1.386,0,0,1-.428,2.705Z" transform="translate(-2358.395 -1797.288)"/></g><g transform="translate(40.497 114.369)"><path class="b" d="M2413.25,1820.96a59.964,59.964,0,0,1-18.544-2.926,1.386,1.386,0,0,1,.857-2.637,57.18,57.18,0,0,0,17.688,2.79,1.386,1.386,0,0,1,0,2.773Z" transform="translate(-2393.748 -1815.33)"/></g><g transform="translate(114.368 58.614)"><path class="b" d="M2555,1715.558a1.4,1.4,0,0,1-.428-.068,1.386,1.386,0,0,1-.89-1.747,57.173,57.173,0,0,0,2.791-17.688,1.386,1.386,0,0,1,2.772,0,59.952,59.952,0,0,1-2.926,18.544A1.387,1.387,0,0,1,2555,1715.558Z" transform="translate(-2553.612 -1694.669)"/></g><g transform="translate(115.755 41.884)"><path class="c" d="M2556.614,1658.464a58.559,58.559,0,0,1,2.858,18.116" transform="translate(-2556.614 -1658.464)"/></g><g transform="translate(2.858 76.73)"><path class="b" d="M2322.016,1752.983a1.384,1.384,0,0,1-1.123-.571,59.735,59.735,0,0,1-8.534-16.724,1.386,1.386,0,0,1,2.637-.856,56.953,56.953,0,0,0,8.139,15.948,1.386,1.386,0,0,1-1.12,2.2Z" transform="translate(-2312.292 -1733.874)"/></g><g transform="translate(11.194 93.065)"><path class="b" d="M2344.686,1784.966a1.38,1.38,0,0,1-.815-.265,60.228,60.228,0,0,1-13.272-13.272,1.386,1.386,0,0,1,2.242-1.632,57.437,57.437,0,0,0,12.662,12.662,1.386,1.386,0,0,1-.817,2.507Z" transform="translate(-2330.333 -1769.226)"/></g><g transform="translate(58.613 0)"><path class="b" d="M2452.456,1573.454a1.4,1.4,0,0,1-.429-.068,57.178,57.178,0,0,0-17.688-2.791,1.386,1.386,0,0,1,0-2.772,59.948,59.948,0,0,1,18.544,2.926,1.386,1.386,0,0,1-.428,2.705Z" transform="translate(-2432.953 -1567.823)"/></g><g transform="translate(0 40.498)"><path class="b" d="M2307.493,1676.353a1.386,1.386,0,0,1-1.386-1.386,59.958,59.958,0,0,1,2.926-18.544,1.386,1.386,0,0,1,2.637.857,57.189,57.189,0,0,0-2.791,17.688A1.386,1.386,0,0,1,2307.493,1676.353Z" transform="translate(-2306.107 -1655.464)"/></g><g transform="translate(11.194 11.194)"><path class="b" d="M2331.718,1607.789a1.387,1.387,0,0,1-1.12-2.2,60.242,60.242,0,0,1,13.272-13.272,1.387,1.387,0,0,1,1.632,2.242,57.455,57.455,0,0,0-12.662,12.662A1.385,1.385,0,0,1,2331.718,1607.789Z" transform="translate(-2330.333 -1592.049)"/></g><g transform="translate(0 58.614)"><path class="b" d="M2310.351,1715.558a1.387,1.387,0,0,1-1.318-.958,59.952,59.952,0,0,1-2.926-18.544,1.386,1.386,0,0,1,2.772,0,57.188,57.188,0,0,0,2.791,17.688,1.386,1.386,0,0,1-.89,1.747A1.4,1.4,0,0,1,2310.351,1715.558Z" transform="translate(-2306.107 -1694.669)"/></g><g transform="translate(2.858 24.161)"><path class="b" d="M2313.679,1639.219a1.387,1.387,0,0,1-1.319-1.815,59.743,59.743,0,0,1,8.534-16.724,1.386,1.386,0,1,1,2.242,1.632,56.966,56.966,0,0,0-8.139,15.949A1.387,1.387,0,0,1,2313.679,1639.219Z" transform="translate(-2312.292 -1620.11)"/></g><g transform="translate(24.161 2.858)"><path class="b" d="M2359.783,1585.117a1.386,1.386,0,0,1-.817-2.507,59.727,59.727,0,0,1,16.723-8.534,1.386,1.386,0,1,1,.857,2.637,56.927,56.927,0,0,0-15.948,8.139A1.381,1.381,0,0,1,2359.783,1585.117Z" transform="translate(-2358.395 -1574.009)"/></g><g transform="translate(40.497 0)"><path class="b" d="M2395.134,1573.454a1.387,1.387,0,0,1-.428-2.705,59.954,59.954,0,0,1,18.544-2.926,1.386,1.386,0,0,1,0,2.772,57.181,57.181,0,0,0-17.687,2.791A1.4,1.4,0,0,1,2395.134,1573.454Z" transform="translate(-2393.748 -1567.823)"/></g><g transform="translate(21.537 35.358)"><g class="d"><text class="e" transform="translate(0 31)"><tspan x="0" y="0">100%</tspan></text><text class="f" transform="translate(12.073 39.256)"><tspan x="0" y="0">Completado</tspan></text></g></g></svg>