<svg xmlns="http://www.w3.org/2000/svg" width="120" height="120" viewBox="0 0 120 120"><defs><style>.a{fill:#e0e0e0;}.b{fill:none;}.c{fill:#5cdd6a;}.d{fill:#333;font-size:32px;font-family:SourceSansPro-Bold, Source Sans Pro;font-weight:700;}.e{fill:#666;font-size:10px;font-family:SourceSansPro-Semibold, Source Sans Pro;font-weight:600;}</style></defs><g transform="translate(-962.996 -68.154)"><g transform="translate(962.996 68.154)"><path class="a" d="M1023,188.154a60,60,0,1,1,60-60A60.068,60.068,0,0,1,1023,188.154Zm0-117.227a57.227,57.227,0,1,0,57.227,57.227A57.292,57.292,0,0,0,1023,70.927Z" transform="translate(-962.996 -68.154)"/></g><g transform="translate(1022.996 183.909)"><path class="b" d="M1092.842,321.518a58.561,58.561,0,0,0,18.116-2.858" transform="translate(-1092.842 -318.66)"/></g><g transform="translate(1039.725 71.012)"><path class="c" d="M1146.767,85.448a1.38,1.38,0,0,1-.814-.266A56.946,56.946,0,0,0,1130,77.044a1.387,1.387,0,0,1,.857-2.638,59.721,59.721,0,0,1,16.723,8.534,1.386,1.386,0,0,1-.818,2.507Z" transform="translate(-1129.046 -74.339)"/></g><g transform="translate(1069.029 92.315)"><path class="c" d="M1202.184,139.551a1.388,1.388,0,0,1-1.318-.959,56.946,56.946,0,0,0-8.138-15.948,1.386,1.386,0,0,1,2.242-1.632,59.73,59.73,0,0,1,8.533,16.724,1.388,1.388,0,0,1-1.319,1.815Z" transform="translate(-1192.462 -120.441)"/></g><g transform="translate(1056.062 79.348)"><path class="c" d="M1178.754,108.119a1.384,1.384,0,0,1-1.122-.571,57.463,57.463,0,0,0-12.662-12.662,1.386,1.386,0,1,1,1.632-2.242,60.238,60.238,0,0,1,13.272,13.272,1.387,1.387,0,0,1-1.12,2.2Z" transform="translate(-1164.399 -92.379)"/></g><g transform="translate(1004.88 183.909)"><path class="b" d="M1053.637,318.66a58.559,58.559,0,0,0,18.116,2.858" transform="translate(-1053.637 -318.66)"/></g><g transform="translate(1021.61 68.154)"><path class="c" d="M1109.345,73.785a1.4,1.4,0,0,1-.429-.068,57.178,57.178,0,0,0-17.688-2.791,1.386,1.386,0,0,1,0-2.773,59.957,59.957,0,0,1,18.544,2.925,1.387,1.387,0,0,1-.428,2.706Z" transform="translate(-1089.842 -68.154)"/></g></g><text class="d" transform="translate(60 68)"><tspan x="-30.608" y="0">25%</tspan><tspan class="e"><tspan x="-26.39" y="9">Completado</tspan></tspan></text></svg>