<svg xmlns="http://www.w3.org/2000/svg" width="120" height="120" viewBox="0 0 120 120"><defs><style>.a{fill:#e0e0e0;}.b{fill:#5cdd6a;}.c{fill:none;}.d,.e,.f{isolation:isolate;}.e{fill:#333;font-size:31px;font-family:SourceSansPro-Bold, Source Sans Pro;font-weight:700;}.f{fill:#666;font-size:9px;font-family:SourceSansPro-Semibold, Source Sans Pro;font-weight:600;}</style></defs><g transform="translate(0 0)"><path class="a" d="M1184.15,1001.367a60,60,0,1,1,60-60A60.068,60.068,0,0,1,1184.15,1001.367Zm0-117.227a57.227,57.227,0,1,0,57.227,57.227A57.292,57.292,0,0,0,1184.15,884.14Z" transform="translate(-1124.15 -881.367)"/><g transform="translate(58.614)"><path class="b" d="M1311,942.753a1.387,1.387,0,0,1-1.386-1.386,57.292,57.292,0,0,0-57.227-57.227,1.386,1.386,0,1,1,0-2.773,60.068,60.068,0,0,1,60,60A1.386,1.386,0,0,1,1311,942.753Z" transform="translate(-1250.996 -881.367)"/></g><g transform="translate(94.453 94.452)"><path class="c" d="M1328.554,1098.737a58.941,58.941,0,0,0,12.967-12.967" transform="translate(-1328.554 -1085.77)"/></g><g transform="translate(60 115.756)"><path class="c" d="M1254,1134.731a58.562,58.562,0,0,0,18.116-2.858" transform="translate(-1253.996 -1131.873)"/></g><g transform="translate(78.116 4.244)"><path class="c" d="M1309.537,898.888a58.423,58.423,0,0,0-16.336-8.336" transform="translate(-1293.201 -890.552)"/></g><g transform="translate(107.42 25.548)"><path class="c" d="M1364.952,952.991a58.414,58.414,0,0,0-8.336-16.336" transform="translate(-1356.616 -936.655)"/></g><g transform="translate(94.453 12.58)"><path class="c" d="M1341.521,921.56a58.956,58.956,0,0,0-12.967-12.968" transform="translate(-1328.554 -908.592)"/></g><g transform="translate(25.548 107.419)"><path class="c" d="M1179.438,1113.832a58.415,58.415,0,0,0,16.336,8.337" transform="translate(-1179.438 -1113.832)"/></g><g transform="translate(41.884 115.756)"><path class="c" d="M1214.791,1131.873a58.56,58.56,0,0,0,18.116,2.858" transform="translate(-1214.791 -1131.873)"/></g><g transform="translate(114.369 58.614)"><path class="b" d="M1373.042,1029.1a1.407,1.407,0,0,1-.429-.068,1.387,1.387,0,0,1-.89-1.747,57.174,57.174,0,0,0,2.79-17.688,1.386,1.386,0,1,1,2.772,0,59.952,59.952,0,0,1-2.925,18.544A1.387,1.387,0,0,1,1373.042,1029.1Z" transform="translate(-1371.655 -1008.212)"/></g><g transform="translate(4.244 78.116)"><path class="c" d="M1133.335,1050.417a58.417,58.417,0,0,0,8.336,16.336" transform="translate(-1133.335 -1050.417)"/></g><g transform="translate(12.581 94.452)"><path class="c" d="M1151.376,1085.77a58.921,58.921,0,0,0,12.967,12.967" transform="translate(-1151.376 -1085.77)"/></g><g transform="translate(58.614)"><path class="b" d="M1270.5,887a1.385,1.385,0,0,1-.428-.068,57.2,57.2,0,0,0-17.688-2.79,1.386,1.386,0,1,1,0-2.773,59.958,59.958,0,0,1,18.544,2.925A1.387,1.387,0,0,1,1270.5,887Z" transform="translate(-1250.996 -881.367)"/></g><g transform="translate(1.386 41.884)"><path class="c" d="M1127.15,990.123a58.565,58.565,0,0,1,2.858-18.116" transform="translate(-1127.15 -972.007)"/></g><g transform="translate(12.581 12.58)"><path class="c" d="M1164.343,908.592a58.936,58.936,0,0,0-12.967,12.968" transform="translate(-1151.376 -908.592)"/></g><g transform="translate(1.386 60)"><path class="c" d="M1127.15,1011.212a58.56,58.56,0,0,0,2.858,18.116" transform="translate(-1127.15 -1011.212)"/></g><g transform="translate(4.244 25.548)"><path class="c" d="M1141.671,936.655a58.415,58.415,0,0,0-8.336,16.336" transform="translate(-1133.335 -936.655)"/></g><g transform="translate(25.548 4.244)"><path class="c" d="M1195.774,890.552a58.421,58.421,0,0,0-16.336,8.336" transform="translate(-1179.438 -890.552)"/></g><g transform="translate(41.884 1.386)"><path class="c" d="M1232.907,884.367a58.564,58.564,0,0,0-18.116,2.858" transform="translate(-1214.791 -884.367)"/></g></g><g class="d" transform="translate(29.392 35.358)"><text class="e" transform="translate(0 31)"><tspan x="0" y="0">30%</tspan></text><text class="f" transform="translate(4.218 39.256)"><tspan x="0" y="0">Completado</tspan></text></g></svg>