<svg xmlns="http://www.w3.org/2000/svg" width="120" height="120" viewBox="0 0 120 120"><defs><style>.a{fill:#e0e0e0;}.b{fill:#5cdd6a;}.c{fill:none;}.d,.e,.f{isolation:isolate;}.e{fill:#333;font-size:31px;font-family:SourceSansPro-Bold, Source Sans Pro;font-weight:700;}.f{fill:#666;font-size:9px;font-family:SourceSansPro-Semibold, Source Sans Pro;font-weight:600;}</style></defs><g transform="translate(0 0)"><path class="a" d="M1479.64,1001.367a60,60,0,1,1,60-60A60.068,60.068,0,0,1,1479.64,1001.367Zm0-117.227a57.227,57.227,0,1,0,57.228,57.227A57.292,57.292,0,0,0,1479.64,884.14Z" transform="translate(-1419.64 -881.367)"/><g transform="translate(58.613)"><path class="b" d="M1606.485,942.753a1.386,1.386,0,0,1-1.386-1.386,57.292,57.292,0,0,0-57.228-57.227,1.386,1.386,0,0,1,0-2.773,60.068,60.068,0,0,1,60,60A1.386,1.386,0,0,1,1606.485,942.753Z" transform="translate(-1546.485 -881.367)"/></g><g transform="translate(106.033 76.73)"><path class="b" d="M1650.49,1066.526a1.386,1.386,0,0,1-1.12-2.2,56.944,56.944,0,0,0,8.139-15.948,1.386,1.386,0,0,1,2.637.857,59.728,59.728,0,0,1-8.534,16.723A1.385,1.385,0,0,1,1650.49,1066.526Z" transform="translate(-1649.105 -1047.417)"/></g><g transform="translate(78.116 4.244)"><path class="c" d="M1605.026,898.888a58.421,58.421,0,0,0-16.336-8.336" transform="translate(-1588.69 -890.552)"/></g><g transform="translate(107.419 25.548)"><path class="c" d="M1660.442,952.991a58.419,58.419,0,0,0-8.337-16.336" transform="translate(-1652.105 -936.655)"/></g><g transform="translate(94.452 12.58)"><path class="c" d="M1637.01,921.56a58.956,58.956,0,0,0-12.967-12.968" transform="translate(-1624.043 -908.592)"/></g><g transform="translate(114.369 58.613)"><path class="b" d="M1668.531,1029.1a1.4,1.4,0,0,1-.428-.068,1.387,1.387,0,0,1-.89-1.747A57.174,57.174,0,0,0,1670,1009.6a1.386,1.386,0,1,1,2.772,0,59.956,59.956,0,0,1-2.926,18.544A1.387,1.387,0,0,1,1668.531,1029.1Z" transform="translate(-1667.144 -1008.212)"/></g><g transform="translate(115.756 41.884)"><path class="c" d="M1670.146,972.007A58.565,58.565,0,0,1,1673,990.123" transform="translate(-1670.146 -972.007)"/></g><g transform="translate(58.613)"><path class="b" d="M1565.987,887a1.378,1.378,0,0,1-.428-.068,57.2,57.2,0,0,0-17.688-2.79,1.386,1.386,0,0,1,0-2.773,59.954,59.954,0,0,1,18.544,2.926,1.387,1.387,0,0,1-.428,2.705Z" transform="translate(-1546.485 -881.367)"/></g></g><g class="d" transform="translate(29.392 35.358)"><text class="e" transform="translate(0 31)"><tspan x="0" y="0">35%</tspan></text><text class="f" transform="translate(4.218 39.256)"><tspan x="0" y="0">Completado</tspan></text></g></svg>