<svg xmlns="http://www.w3.org/2000/svg" width="120" height="120" viewBox="0 0 120 120"><defs><style>.a{fill:#e0e0e0;}.b{fill:#5cdd6a;}.c{fill:none;}.d,.e,.f{isolation:isolate;}.e{fill:#333;font-size:31px;font-family:SourceSansPro-Bold, Source Sans Pro;font-weight:700;}.f{fill:#666;font-size:9px;font-family:SourceSansPro-Semibold, Source Sans Pro;font-weight:600;}</style></defs><g transform="translate(0 0)"><path class="a" d="M1775.129,1001.367a60,60,0,1,1,60-60A60.068,60.068,0,0,1,1775.129,1001.367Zm0-117.227a57.227,57.227,0,1,0,57.227,57.227A57.292,57.292,0,0,0,1775.129,884.14Z" transform="translate(-1715.129 -881.367)"/><g transform="translate(58.614)"><path class="b" d="M1901.974,942.753a1.386,1.386,0,0,1-1.386-1.386,57.292,57.292,0,0,0-57.227-57.227,1.386,1.386,0,1,1,0-2.773,60.067,60.067,0,0,1,60,60A1.386,1.386,0,0,1,1901.974,942.753Z" transform="translate(-1841.975 -881.367)"/></g><g transform="translate(93.066 93.065)"><path class="b" d="M1917.92,1098.509a1.386,1.386,0,0,1-.817-2.507,57.431,57.431,0,0,0,12.662-12.662,1.386,1.386,0,1,1,2.242,1.632,60.219,60.219,0,0,1-13.272,13.273A1.381,1.381,0,0,1,1917.92,1098.509Z" transform="translate(-1916.532 -1082.769)"/></g><g transform="translate(78.116 107.419)"><path class="c" d="M1884.179,1122.169a58.408,58.408,0,0,0,16.336-8.337" transform="translate(-1884.179 -1113.832)"/></g><g transform="translate(106.033 76.73)"><path class="b" d="M1945.98,1066.526a1.386,1.386,0,0,1-1.12-2.2,56.935,56.935,0,0,0,8.138-15.948,1.386,1.386,0,0,1,2.637.857,59.714,59.714,0,0,1-8.534,16.723A1.383,1.383,0,0,1,1945.98,1066.526Z" transform="translate(-1944.594 -1047.418)"/></g><g transform="translate(60 115.756)"><path class="c" d="M1844.974,1134.731a58.559,58.559,0,0,0,18.116-2.858" transform="translate(-1844.974 -1131.873)"/></g><g transform="translate(78.116 4.244)"><path class="c" d="M1900.515,898.888a58.415,58.415,0,0,0-16.336-8.336" transform="translate(-1884.179 -890.552)"/></g><g transform="translate(107.419 25.548)"><path class="c" d="M1955.931,952.991a58.4,58.4,0,0,0-8.337-16.336" transform="translate(-1947.594 -936.655)"/></g><g transform="translate(94.452 12.58)"><path class="c" d="M1932.5,921.56a58.935,58.935,0,0,0-12.967-12.968" transform="translate(-1919.532 -908.592)"/></g><g transform="translate(25.548 107.419)"><path class="c" d="M1770.417,1113.832a58.405,58.405,0,0,0,16.336,8.337" transform="translate(-1770.417 -1113.832)"/></g><g transform="translate(41.884 115.756)"><path class="c" d="M1805.769,1131.873a58.564,58.564,0,0,0,18.116,2.858" transform="translate(-1805.769 -1131.873)"/></g><g transform="translate(114.369 58.614)"><path class="b" d="M1964.021,1029.1a1.4,1.4,0,0,1-.429-.068,1.387,1.387,0,0,1-.89-1.747,57.17,57.17,0,0,0,2.791-17.688,1.386,1.386,0,1,1,2.772,0,59.952,59.952,0,0,1-2.926,18.544A1.387,1.387,0,0,1,1964.021,1029.1Z" transform="translate(-1962.634 -1008.212)"/></g><g transform="translate(115.756 41.884)"><path class="c" d="M1965.635,972.007a58.565,58.565,0,0,1,2.858,18.116" transform="translate(-1965.635 -972.007)"/></g><g transform="translate(4.244 78.116)"><path class="c" d="M1724.314,1050.417a58.413,58.413,0,0,0,8.336,16.336" transform="translate(-1724.314 -1050.417)"/></g><g transform="translate(12.58 94.452)"><path class="c" d="M1742.354,1085.77a58.933,58.933,0,0,0,12.968,12.967" transform="translate(-1742.354 -1085.77)"/></g><g transform="translate(58.614)"><path class="b" d="M1861.478,887a1.388,1.388,0,0,1-.429-.068,57.2,57.2,0,0,0-17.688-2.79,1.386,1.386,0,1,1,0-2.773,59.96,59.96,0,0,1,18.544,2.925,1.387,1.387,0,0,1-.427,2.706Z" transform="translate(-1841.975 -881.367)"/></g><g transform="translate(1.386 41.884)"><path class="c" d="M1718.129,990.123a58.565,58.565,0,0,1,2.858-18.116" transform="translate(-1718.129 -972.007)"/></g><g transform="translate(12.58 12.58)"><path class="c" d="M1755.322,908.592a58.948,58.948,0,0,0-12.968,12.968" transform="translate(-1742.354 -908.592)"/></g><g transform="translate(1.386 60)"><path class="c" d="M1718.129,1011.212a58.56,58.56,0,0,0,2.858,18.116" transform="translate(-1718.129 -1011.212)"/></g><g transform="translate(4.244 25.548)"><path class="c" d="M1732.65,936.655a58.411,58.411,0,0,0-8.336,16.336" transform="translate(-1724.314 -936.655)"/></g><g transform="translate(25.548 4.244)"><path class="c" d="M1786.753,890.552a58.419,58.419,0,0,0-16.336,8.336" transform="translate(-1770.417 -890.552)"/></g><g transform="translate(41.884 1.386)"><path class="c" d="M1823.885,884.367a58.568,58.568,0,0,0-18.116,2.858" transform="translate(-1805.769 -884.367)"/></g></g><g class="d" transform="translate(29.392 35.358)"><text class="e" transform="translate(0 31)"><tspan x="0" y="0">40%</tspan></text><text class="f" transform="translate(4.218 39.256)"><tspan x="0" y="0">Completado</tspan></text></g></svg>