<svg xmlns="http://www.w3.org/2000/svg" width="120" height="120" viewBox="0 0 120 120"><defs><style>.a{fill:#e0e0e0;}.b{fill:#5cdd6a;}.c{fill:none;}.d,.e,.f{isolation:isolate;}.e{fill:#333;font-size:31px;font-family:SourceSansPro-Bold, Source Sans Pro;font-weight:700;}.f{fill:#666;font-size:9px;font-family:SourceSansPro-Semibold, Source Sans Pro;font-weight:600;}</style></defs><g transform="translate(0 0)"><g transform="translate(0 0)"><path class="a" d="M2070.618,1001.367a60,60,0,1,1,60-60A60.068,60.068,0,0,1,2070.618,1001.367Zm0-117.227a57.227,57.227,0,1,0,57.227,57.227A57.292,57.292,0,0,0,2070.618,884.14Z" transform="translate(-2010.618 -881.367)"/><g transform="translate(58.614)"><path class="b" d="M2197.464,942.753a1.386,1.386,0,0,1-1.386-1.386,57.292,57.292,0,0,0-57.227-57.227,1.386,1.386,0,0,1,0-2.773,60.068,60.068,0,0,1,60,60A1.386,1.386,0,0,1,2197.464,942.753Z" transform="translate(-2137.464 -881.367)"/></g></g><g transform="translate(93.066 93.065)"><path class="b" d="M2213.409,1098.509a1.386,1.386,0,0,1-.817-2.507,57.423,57.423,0,0,0,12.662-12.662,1.386,1.386,0,0,1,2.242,1.632,60.234,60.234,0,0,1-13.272,13.273A1.381,1.381,0,0,1,2213.409,1098.509Z" transform="translate(-2212.021 -1082.769)"/></g><g transform="translate(76.729 106.033)"><path class="b" d="M2178.054,1121.942a1.386,1.386,0,0,1-.428-2.705,56.945,56.945,0,0,0,15.948-8.139,1.386,1.386,0,0,1,1.632,2.242,59.725,59.725,0,0,1-16.723,8.534A1.4,1.4,0,0,1,2178.054,1121.942Z" transform="translate(-2176.668 -1110.832)"/></g><g transform="translate(106.033 76.73)"><path class="b" d="M2241.469,1066.526a1.386,1.386,0,0,1-1.12-2.2,56.933,56.933,0,0,0,8.138-15.948,1.387,1.387,0,0,1,2.638.857,59.728,59.728,0,0,1-8.534,16.723A1.384,1.384,0,0,1,2241.469,1066.526Z" transform="translate(-2240.084 -1047.418)"/></g><g transform="translate(60 115.755)"><path class="c" d="M2140.464,1134.731a58.562,58.562,0,0,0,18.116-2.858" transform="translate(-2140.464 -1131.873)"/></g><g transform="translate(78.116 4.244)"><path class="c" d="M2196.005,898.888a58.421,58.421,0,0,0-16.336-8.336" transform="translate(-2179.669 -890.552)"/></g><g transform="translate(107.419 25.548)"><path class="c" d="M2251.42,952.991a58.413,58.413,0,0,0-8.336-16.336" transform="translate(-2243.084 -936.655)"/></g><g transform="translate(94.452 12.58)"><path class="c" d="M2227.989,921.56a58.961,58.961,0,0,0-12.967-12.968" transform="translate(-2215.022 -908.592)"/></g><g transform="translate(25.548 107.419)"><path class="c" d="M2065.906,1113.832a58.411,58.411,0,0,0,16.336,8.336" transform="translate(-2065.906 -1113.832)"/></g><g transform="translate(41.884 115.755)"><path class="c" d="M2101.259,1131.873a58.558,58.558,0,0,0,18.116,2.858" transform="translate(-2101.259 -1131.873)"/></g><g transform="translate(114.368 58.613)"><path class="b" d="M2259.51,1029.1a1.4,1.4,0,0,1-.429-.068,1.387,1.387,0,0,1-.89-1.747,57.17,57.17,0,0,0,2.791-17.688,1.386,1.386,0,0,1,2.772,0,59.956,59.956,0,0,1-2.926,18.544A1.387,1.387,0,0,1,2259.51,1029.1Z" transform="translate(-2258.123 -1008.212)"/></g><g transform="translate(115.755 41.883)"><path class="c" d="M2261.124,972.007a58.549,58.549,0,0,1,2.858,18.116" transform="translate(-2261.124 -972.007)"/></g><g transform="translate(4.244 78.116)"><path class="c" d="M2019.8,1050.417a58.421,58.421,0,0,0,8.336,16.336" transform="translate(-2019.803 -1050.417)"/></g><g transform="translate(12.581 94.452)"><path class="c" d="M2037.844,1085.77a58.92,58.92,0,0,0,12.967,12.967" transform="translate(-2037.844 -1085.77)"/></g><g transform="translate(58.614 0)"><path class="b" d="M2156.967,887a1.386,1.386,0,0,1-.429-.068,57.2,57.2,0,0,0-17.688-2.79,1.386,1.386,0,0,1,0-2.773,59.963,59.963,0,0,1,18.544,2.925,1.387,1.387,0,0,1-.428,2.706Z" transform="translate(-2137.464 -881.367)"/></g><g transform="translate(1.386 41.883)"><path class="c" d="M2013.618,990.123a58.564,58.564,0,0,1,2.858-18.116" transform="translate(-2013.618 -972.007)"/></g><g transform="translate(12.581 12.58)"><path class="c" d="M2050.811,908.592a58.934,58.934,0,0,0-12.967,12.968" transform="translate(-2037.844 -908.592)"/></g><g transform="translate(1.386 60)"><path class="c" d="M2013.618,1011.212a58.559,58.559,0,0,0,2.858,18.116" transform="translate(-2013.618 -1011.212)"/></g><g transform="translate(4.244 25.548)"><path class="c" d="M2028.139,936.655a58.415,58.415,0,0,0-8.336,16.336" transform="translate(-2019.803 -936.655)"/></g><g transform="translate(25.548 4.244)"><path class="c" d="M2082.242,890.552a58.421,58.421,0,0,0-16.336,8.336" transform="translate(-2065.906 -890.552)"/></g><g transform="translate(41.884 1.386)"><path class="c" d="M2119.375,884.367a58.562,58.562,0,0,0-18.116,2.858" transform="translate(-2101.259 -884.367)"/></g></g><g class="d" transform="translate(29.393 35.358)"><text class="e" transform="translate(0 31)"><tspan x="0" y="0">45%</tspan></text><text class="f" transform="translate(4.218 39.256)"><tspan x="0" y="0">Completado</tspan></text></g></svg>