<svg xmlns="http://www.w3.org/2000/svg" width="120" height="120" viewBox="0 0 120 120"><defs><style>.a{fill:#e0e0e0;}.b{fill:#5cdd6a;}.c{fill:none;}.d,.e,.f{isolation:isolate;}.e{fill:#333;font-size:31px;font-family:SourceSansPro-Bold, Source Sans Pro;font-weight:700;}.f{fill:#666;font-size:9px;font-family:SourceSansPro-Semibold, Source Sans Pro;font-weight:600;}</style></defs><g transform="translate(0 0)"><path class="a" d="M2366.107,1001.366a60,60,0,1,1,60-60A60.068,60.068,0,0,1,2366.107,1001.366Zm0-117.227a57.227,57.227,0,1,0,57.228,57.227A57.292,57.292,0,0,0,2366.107,884.14Z" transform="translate(-2306.107 -881.367)"/><g transform="translate(58.614)"><path class="b" d="M2492.953,942.753a1.386,1.386,0,0,1-1.386-1.386,57.292,57.292,0,0,0-57.228-57.227,1.386,1.386,0,0,1,0-2.773,60.067,60.067,0,0,1,60,60A1.386,1.386,0,0,1,2492.953,942.753Z" transform="translate(-2432.953 -881.367)"/></g><g transform="translate(93.066 93.065)"><path class="b" d="M2508.9,1098.509a1.386,1.386,0,0,1-.817-2.507,57.422,57.422,0,0,0,12.662-12.662,1.386,1.386,0,1,1,2.242,1.632,60.207,60.207,0,0,1-13.272,13.272A1.378,1.378,0,0,1,2508.9,1098.509Z" transform="translate(-2507.51 -1082.769)"/></g><g transform="translate(76.73 106.033)"><path class="b" d="M2473.543,1121.942a1.386,1.386,0,0,1-.428-2.705,56.933,56.933,0,0,0,15.948-8.139,1.386,1.386,0,1,1,1.632,2.242,59.715,59.715,0,0,1-16.723,8.534A1.4,1.4,0,0,1,2473.543,1121.942Z" transform="translate(-2472.157 -1110.832)"/></g><g transform="translate(106.033 76.73)"><path class="b" d="M2536.958,1066.526a1.387,1.387,0,0,1-1.12-2.2,56.946,56.946,0,0,0,8.139-15.948,1.386,1.386,0,0,1,2.637.857,59.715,59.715,0,0,1-8.534,16.723A1.385,1.385,0,0,1,2536.958,1066.526Z" transform="translate(-2535.573 -1047.418)"/></g><g transform="translate(58.614 114.369)"><path class="b" d="M2434.339,1134.5a1.386,1.386,0,0,1,0-2.772,57.177,57.177,0,0,0,17.688-2.79,1.386,1.386,0,1,1,.857,2.637A59.962,59.962,0,0,1,2434.339,1134.5Z" transform="translate(-2432.953 -1128.874)"/></g><g transform="translate(78.116 4.244)"><path class="c" d="M2491.494,898.888a58.425,58.425,0,0,0-16.336-8.336" transform="translate(-2475.158 -890.552)"/></g><g transform="translate(107.419 25.548)"><path class="c" d="M2546.909,952.991a58.415,58.415,0,0,0-8.336-16.336" transform="translate(-2538.573 -936.655)"/></g><g transform="translate(94.452 12.58)"><path class="c" d="M2523.478,921.56a58.941,58.941,0,0,0-12.967-12.968" transform="translate(-2510.511 -908.592)"/></g><g transform="translate(25.548 107.419)"><path class="c" d="M2361.4,1113.832a58.414,58.414,0,0,0,16.336,8.336" transform="translate(-2361.395 -1113.832)"/></g><g transform="translate(41.884 115.755)"><path class="c" d="M2396.748,1131.873a58.563,58.563,0,0,0,18.116,2.858" transform="translate(-2396.748 -1131.873)"/></g><g transform="translate(114.369 58.613)"><path class="b" d="M2555,1029.1a1.387,1.387,0,0,1-1.319-1.815,57.168,57.168,0,0,0,2.791-17.688,1.386,1.386,0,1,1,2.772,0,59.955,59.955,0,0,1-2.926,18.544A1.387,1.387,0,0,1,2555,1029.1Z" transform="translate(-2553.612 -1008.212)"/></g><g transform="translate(115.756 41.883)"><path class="c" d="M2556.614,972.007a58.564,58.564,0,0,1,2.858,18.116" transform="translate(-2556.614 -972.007)"/></g><g transform="translate(4.245 78.116)"><path class="c" d="M2315.293,1050.417a58.416,58.416,0,0,0,8.336,16.336" transform="translate(-2315.293 -1050.417)"/></g><g transform="translate(12.581 94.452)"><path class="c" d="M2333.333,1085.77a58.941,58.941,0,0,0,12.967,12.967" transform="translate(-2333.333 -1085.77)"/></g><g transform="translate(58.614)"><path class="b" d="M2452.456,887a1.391,1.391,0,0,1-.429-.068,57.19,57.19,0,0,0-17.688-2.79,1.386,1.386,0,0,1,0-2.773,59.958,59.958,0,0,1,18.544,2.926,1.387,1.387,0,0,1-.428,2.705Z" transform="translate(-2432.953 -881.367)"/></g><g transform="translate(1.387 41.883)"><path class="c" d="M2309.108,990.123a58.556,58.556,0,0,1,2.858-18.116" transform="translate(-2309.108 -972.007)"/></g><g transform="translate(12.581 12.58)"><path class="c" d="M2346.3,908.592a58.957,58.957,0,0,0-12.967,12.968" transform="translate(-2333.333 -908.592)"/></g><g transform="translate(1.387 59.999)"><path class="c" d="M2309.108,1011.212a58.553,58.553,0,0,0,2.858,18.116" transform="translate(-2309.108 -1011.212)"/></g><g transform="translate(4.245 25.548)"><path class="c" d="M2323.629,936.655a58.414,58.414,0,0,0-8.336,16.336" transform="translate(-2315.293 -936.655)"/></g><g transform="translate(25.548 4.244)"><path class="c" d="M2377.731,890.552a58.425,58.425,0,0,0-16.336,8.336" transform="translate(-2361.395 -890.552)"/></g><g transform="translate(41.884 1.386)"><path class="c" d="M2414.864,884.367a58.566,58.566,0,0,0-18.116,2.858" transform="translate(-2396.748 -884.367)"/></g></g><g class="d" transform="translate(29.392 35.358)"><text class="e" transform="translate(0 31)"><tspan x="0" y="0">50%</tspan></text><text class="f" transform="translate(4.218 39.256)"><tspan x="0" y="0">Completado</tspan></text></g></svg>