<svg xmlns="http://www.w3.org/2000/svg" width="120" height="120" viewBox="0 0 120 120"><defs><style>.a{fill:#e0e0e0;}.b{fill:#5cdd6a;}.c{fill:none;}.d,.e,.f{isolation:isolate;}.e{fill:#333;font-size:31px;font-family:SourceSansPro-Bold, Source Sans Pro;font-weight:700;}.f{fill:#666;font-size:9px;font-family:SourceSansPro-Semibold, Source Sans Pro;font-weight:600;}</style></defs><g transform="translate(0 0)"><path class="a" d="M1184.15,1344.595a60,60,0,1,1,60-60A60.068,60.068,0,0,1,1184.15,1344.595Zm0-117.228a57.228,57.228,0,1,0,57.227,57.228A57.293,57.293,0,0,0,1184.15,1227.367Z" transform="translate(-1124.15 -1224.595)"/><g transform="translate(58.614)"><path class="b" d="M1311,1285.981a1.386,1.386,0,0,1-1.386-1.386,57.293,57.293,0,0,0-57.227-57.228,1.386,1.386,0,1,1,0-2.772,60.068,60.068,0,0,1,60,60A1.386,1.386,0,0,1,1311,1285.981Z" transform="translate(-1250.996 -1224.595)"/></g><g transform="translate(93.066 93.066)"><path class="b" d="M1326.941,1441.738a1.386,1.386,0,0,1-.817-2.507,57.46,57.46,0,0,0,12.662-12.662,1.386,1.386,0,1,1,2.241,1.632,60.232,60.232,0,0,1-13.272,13.273A1.384,1.384,0,0,1,1326.941,1441.738Z" transform="translate(-1325.553 -1425.998)"/></g><g transform="translate(76.729 106.033)"><path class="b" d="M1291.586,1465.17a1.387,1.387,0,0,1-.428-2.706,56.95,56.95,0,0,0,15.949-8.138,1.386,1.386,0,0,1,1.631,2.242,59.748,59.748,0,0,1-16.724,8.533A1.384,1.384,0,0,1,1291.586,1465.17Z" transform="translate(-1290.199 -1454.06)"/></g><g transform="translate(106.033 76.73)"><path class="b" d="M1355,1409.754a1.386,1.386,0,0,1-1.12-2.2,56.938,56.938,0,0,0,8.139-15.949,1.386,1.386,0,0,1,2.637.856,59.721,59.721,0,0,1-8.534,16.724A1.383,1.383,0,0,1,1355,1409.754Z" transform="translate(-1353.615 -1390.645)"/></g><g transform="translate(58.614 114.369)"><path class="b" d="M1252.382,1477.731a1.386,1.386,0,1,1,0-2.773,57.175,57.175,0,0,0,17.688-2.791,1.386,1.386,0,0,1,.856,2.637A59.95,59.95,0,0,1,1252.382,1477.731Z" transform="translate(-1250.996 -1472.1)"/></g><g transform="translate(78.116 4.244)"><path class="c" d="M1309.537,1242.117a58.41,58.41,0,0,0-16.336-8.337" transform="translate(-1293.201 -1233.78)"/></g><g transform="translate(107.42 25.548)"><path class="c" d="M1364.952,1296.219a58.416,58.416,0,0,0-8.336-16.336" transform="translate(-1356.616 -1279.883)"/></g><g transform="translate(94.453 12.581)"><path class="c" d="M1341.521,1264.788a58.942,58.942,0,0,0-12.967-12.967" transform="translate(-1328.554 -1251.821)"/></g><g transform="translate(25.548 107.42)"><path class="c" d="M1179.438,1457.061a58.423,58.423,0,0,0,16.336,8.336" transform="translate(-1179.438 -1457.061)"/></g><g transform="translate(40.497 114.369)"><path class="b" d="M1231.293,1477.731a59.956,59.956,0,0,1-18.545-2.926,1.386,1.386,0,1,1,.857-2.637,57.177,57.177,0,0,0,17.688,2.791,1.386,1.386,0,0,1,0,2.772Z" transform="translate(-1211.79 -1472.101)"/></g><g transform="translate(114.369 58.614)"><path class="b" d="M1373.042,1372.33a1.388,1.388,0,0,1-1.319-1.815,57.182,57.182,0,0,0,2.79-17.688,1.386,1.386,0,1,1,2.772,0,59.954,59.954,0,0,1-2.925,18.544A1.388,1.388,0,0,1,1373.042,1372.33Z" transform="translate(-1371.655 -1351.441)"/></g><g transform="translate(115.756 41.884)"><path class="c" d="M1374.656,1315.236a58.546,58.546,0,0,1,2.858,18.116" transform="translate(-1374.656 -1315.236)"/></g><g transform="translate(4.244 78.116)"><path class="c" d="M1133.335,1393.646a58.421,58.421,0,0,0,8.336,16.336" transform="translate(-1133.335 -1393.646)"/></g><g transform="translate(12.581 94.452)"><path class="c" d="M1151.376,1429a58.934,58.934,0,0,0,12.967,12.968" transform="translate(-1151.376 -1428.998)"/></g><g transform="translate(58.614)"><path class="b" d="M1270.5,1230.226a1.383,1.383,0,0,1-.428-.068,57.175,57.175,0,0,0-17.688-2.791,1.386,1.386,0,1,1,0-2.772,59.95,59.95,0,0,1,18.544,2.926,1.386,1.386,0,0,1-.428,2.705Z" transform="translate(-1250.996 -1224.595)"/></g><g transform="translate(1.386 41.884)"><path class="c" d="M1127.15,1333.352a58.561,58.561,0,0,1,2.858-18.116" transform="translate(-1127.15 -1315.236)"/></g><g transform="translate(12.581 12.581)"><path class="c" d="M1164.343,1251.821a58.922,58.922,0,0,0-12.967,12.967" transform="translate(-1151.376 -1251.821)"/></g><g transform="translate(1.386 60)"><path class="c" d="M1127.15,1354.441a58.564,58.564,0,0,0,2.858,18.116" transform="translate(-1127.15 -1354.441)"/></g><g transform="translate(4.244 25.548)"><path class="c" d="M1141.671,1279.883a58.417,58.417,0,0,0-8.336,16.336" transform="translate(-1133.335 -1279.883)"/></g><g transform="translate(25.548 4.244)"><path class="c" d="M1195.774,1233.78a58.408,58.408,0,0,0-16.336,8.337" transform="translate(-1179.438 -1233.78)"/></g><g transform="translate(41.884 1.386)"><path class="c" d="M1232.907,1227.595a58.56,58.56,0,0,0-18.116,2.858" transform="translate(-1214.791 -1227.595)"/></g></g><g transform="translate(29.392 35.359)"><g class="d"><text class="e" transform="translate(0 31)"><tspan x="0" y="0">55%</tspan></text><text class="f" transform="translate(4.218 39.256)"><tspan x="0" y="0">Completado</tspan></text></g></g></svg>