<svg xmlns="http://www.w3.org/2000/svg" width="120" height="120" viewBox="0 0 120 120"><defs><style>.a{fill:#e0e0e0;}.b{fill:#5cdd6a;}.c{fill:none;}.d,.e,.f{isolation:isolate;}.e{fill:#333;font-size:31px;font-family:SourceSansPro-Bold, Source Sans Pro;font-weight:700;}.f{fill:#666;font-size:9px;font-family:SourceSansPro-Semibold, Source Sans Pro;font-weight:600;}</style></defs><g transform="translate(0 0)"><path class="a" d="M1479.64,1344.595a60,60,0,1,1,60-60A60.068,60.068,0,0,1,1479.64,1344.595Zm0-117.228a57.228,57.228,0,1,0,57.228,57.228A57.292,57.292,0,0,0,1479.64,1227.367Z" transform="translate(-1419.64 -1224.595)"/><g transform="translate(58.613)"><path class="b" d="M1606.485,1285.981a1.386,1.386,0,0,1-1.386-1.386,57.293,57.293,0,0,0-57.228-57.228,1.386,1.386,0,0,1,0-2.772,60.068,60.068,0,0,1,60,60A1.387,1.387,0,0,1,1606.485,1285.981Z" transform="translate(-1546.485 -1224.595)"/></g><g transform="translate(93.066 93.066)"><path class="b" d="M1622.43,1441.738a1.386,1.386,0,0,1-.817-2.507,57.45,57.45,0,0,0,12.662-12.662,1.386,1.386,0,1,1,2.242,1.632,60.253,60.253,0,0,1-13.272,13.273A1.385,1.385,0,0,1,1622.43,1441.738Z" transform="translate(-1621.043 -1425.998)"/></g><g transform="translate(76.729 106.033)"><path class="b" d="M1587.075,1465.17a1.387,1.387,0,0,1-.427-2.706,56.948,56.948,0,0,0,15.948-8.138,1.386,1.386,0,1,1,1.631,2.242,59.741,59.741,0,0,1-16.724,8.533A1.382,1.382,0,0,1,1587.075,1465.17Z" transform="translate(-1585.689 -1454.06)"/></g><g transform="translate(106.033 76.73)"><path class="b" d="M1650.49,1409.754a1.386,1.386,0,0,1-1.12-2.2,56.942,56.942,0,0,0,8.139-15.948,1.386,1.386,0,0,1,2.637.856,59.737,59.737,0,0,1-8.534,16.724A1.385,1.385,0,0,1,1650.49,1409.754Z" transform="translate(-1649.105 -1390.645)"/></g><g transform="translate(58.613 114.369)"><path class="b" d="M1547.871,1477.731a1.386,1.386,0,0,1,0-2.773,57.172,57.172,0,0,0,17.688-2.791,1.386,1.386,0,0,1,.857,2.637A59.955,59.955,0,0,1,1547.871,1477.731Z" transform="translate(-1546.485 -1472.1)"/></g><g transform="translate(78.116 4.244)"><path class="c" d="M1605.026,1242.117a58.411,58.411,0,0,0-16.336-8.337" transform="translate(-1588.69 -1233.78)"/></g><g transform="translate(107.419 25.548)"><path class="c" d="M1660.442,1296.219a58.421,58.421,0,0,0-8.337-16.336" transform="translate(-1652.105 -1279.883)"/></g><g transform="translate(94.452 12.581)"><path class="c" d="M1637.01,1264.788a58.941,58.941,0,0,0-12.967-12.967" transform="translate(-1624.043 -1251.821)"/></g><g transform="translate(24.161 106.033)"><path class="b" d="M1489.65,1465.17a1.384,1.384,0,0,1-.428-.068,59.741,59.741,0,0,1-16.724-8.533,1.386,1.386,0,1,1,1.631-2.242,56.949,56.949,0,0,0,15.949,8.138,1.387,1.387,0,0,1-.428,2.706Z" transform="translate(-1471.927 -1454.06)"/></g><g transform="translate(40.497 114.369)"><path class="b" d="M1526.782,1477.731a59.955,59.955,0,0,1-18.545-2.926,1.386,1.386,0,0,1,.857-2.637,57.178,57.178,0,0,0,17.688,2.791,1.386,1.386,0,1,1,0,2.772Z" transform="translate(-1507.279 -1472.101)"/></g><g transform="translate(114.369 58.614)"><path class="b" d="M1668.531,1372.33a1.388,1.388,0,0,1-1.319-1.815,57.183,57.183,0,0,0,2.791-17.688,1.386,1.386,0,0,1,2.772,0,59.957,59.957,0,0,1-2.926,18.544A1.388,1.388,0,0,1,1668.531,1372.33Z" transform="translate(-1667.144 -1351.441)"/></g><g transform="translate(115.756 41.884)"><path class="c" d="M1670.146,1315.236a58.56,58.56,0,0,1,2.858,18.116" transform="translate(-1670.146 -1315.236)"/></g><g transform="translate(4.244 78.116)"><path class="c" d="M1428.825,1393.646a58.42,58.42,0,0,0,8.336,16.336" transform="translate(-1428.825 -1393.646)"/></g><g transform="translate(12.58 94.452)"><path class="c" d="M1446.865,1429a58.957,58.957,0,0,0,12.967,12.968" transform="translate(-1446.865 -1428.998)"/></g><g transform="translate(58.613)"><path class="b" d="M1565.987,1230.226a1.383,1.383,0,0,1-.428-.068,57.172,57.172,0,0,0-17.688-2.791,1.386,1.386,0,0,1,0-2.772,59.952,59.952,0,0,1,18.544,2.926,1.387,1.387,0,0,1-.428,2.705Z" transform="translate(-1546.485 -1224.595)"/></g><g transform="translate(1.386 41.884)"><path class="c" d="M1422.64,1333.352a58.545,58.545,0,0,1,2.858-18.116" transform="translate(-1422.64 -1315.236)"/></g><g transform="translate(12.58 12.581)"><path class="c" d="M1459.832,1251.821a58.944,58.944,0,0,0-12.967,12.967" transform="translate(-1446.865 -1251.821)"/></g><g transform="translate(1.386 60)"><path class="c" d="M1422.64,1354.441a58.549,58.549,0,0,0,2.858,18.116" transform="translate(-1422.64 -1354.441)"/></g><g transform="translate(4.244 25.548)"><path class="c" d="M1437.161,1279.883a58.416,58.416,0,0,0-8.336,16.336" transform="translate(-1428.825 -1279.883)"/></g><g transform="translate(25.547 4.244)"><path class="c" d="M1491.263,1233.78a58.411,58.411,0,0,0-16.336,8.337" transform="translate(-1474.927 -1233.78)"/></g><g transform="translate(41.884 1.386)"><path class="c" d="M1528.4,1227.595a58.56,58.56,0,0,0-18.116,2.858" transform="translate(-1510.28 -1227.595)"/></g></g><g transform="translate(29.392 35.359)"><g class="d"><text class="e" transform="translate(0 31)"><tspan x="0" y="0">60%</tspan></text><text class="f" transform="translate(4.218 39.256)"><tspan x="0" y="0">Completado</tspan></text></g></g></svg>