<svg xmlns="http://www.w3.org/2000/svg" width="120" height="120" viewBox="0 0 120 120"><defs><style>.a{fill:#e0e0e0;}.b{fill:#5cdd6a;}.c{fill:none;}.d,.e,.f{isolation:isolate;}.e{fill:#333;font-size:31px;font-family:SourceSansPro-Bold, Source Sans Pro;font-weight:700;}.f{fill:#666;font-size:9px;font-family:SourceSansPro-Semibold, Source Sans Pro;font-weight:600;}</style></defs><g transform="translate(0 0)"><path class="a" d="M1775.129,1344.595a60,60,0,1,1,60-60A60.068,60.068,0,0,1,1775.129,1344.595Zm0-117.228a57.228,57.228,0,1,0,57.227,57.228A57.293,57.293,0,0,0,1775.129,1227.367Z" transform="translate(-1715.129 -1224.595)"/><g transform="translate(58.614)"><path class="b" d="M1901.974,1285.981a1.386,1.386,0,0,1-1.386-1.386,57.292,57.292,0,0,0-57.227-57.228,1.386,1.386,0,1,1,0-2.772,60.068,60.068,0,0,1,60,60A1.386,1.386,0,0,1,1901.974,1285.981Z" transform="translate(-1841.975 -1224.595)"/></g><g transform="translate(93.066 93.066)"><path class="b" d="M1917.92,1441.738a1.386,1.386,0,0,1-.817-2.507,57.468,57.468,0,0,0,12.662-12.662,1.386,1.386,0,1,1,2.242,1.632,60.244,60.244,0,0,1-13.272,13.272A1.383,1.383,0,0,1,1917.92,1441.738Z" transform="translate(-1916.532 -1425.998)"/></g><g transform="translate(76.729 106.033)"><path class="b" d="M1882.565,1465.17a1.387,1.387,0,0,1-.428-2.706,56.939,56.939,0,0,0,15.948-8.138,1.386,1.386,0,1,1,1.632,2.242,59.754,59.754,0,0,1-16.724,8.533A1.385,1.385,0,0,1,1882.565,1465.17Z" transform="translate(-1881.178 -1454.06)"/></g><g transform="translate(106.033 76.73)"><path class="b" d="M1945.98,1409.754a1.386,1.386,0,0,1-1.12-2.2A56.942,56.942,0,0,0,1953,1391.6a1.386,1.386,0,1,1,2.637.856,59.741,59.741,0,0,1-8.534,16.724A1.382,1.382,0,0,1,1945.98,1409.754Z" transform="translate(-1944.594 -1390.646)"/></g><g transform="translate(58.614 114.37)"><path class="b" d="M1843.361,1477.732a1.386,1.386,0,1,1,0-2.773,57.178,57.178,0,0,0,17.688-2.791,1.386,1.386,0,0,1,.856,2.637A59.958,59.958,0,0,1,1843.361,1477.732Z" transform="translate(-1841.975 -1472.101)"/></g><g transform="translate(78.116 4.244)"><path class="c" d="M1900.515,1242.117a58.4,58.4,0,0,0-16.336-8.337" transform="translate(-1884.179 -1233.78)"/></g><g transform="translate(107.419 25.548)"><path class="c" d="M1955.931,1296.219a58.4,58.4,0,0,0-8.337-16.336" transform="translate(-1947.594 -1279.883)"/></g><g transform="translate(94.452 12.581)"><path class="c" d="M1932.5,1264.788a58.921,58.921,0,0,0-12.967-12.967" transform="translate(-1919.532 -1251.821)"/></g><g transform="translate(24.162 106.033)"><path class="b" d="M1785.139,1465.169a1.384,1.384,0,0,1-.428-.068,59.75,59.75,0,0,1-16.724-8.533,1.387,1.387,0,0,1,1.632-2.242,56.934,56.934,0,0,0,15.948,8.138,1.387,1.387,0,0,1-.428,2.706Z" transform="translate(-1767.417 -1454.06)"/></g><g transform="translate(40.497 114.369)"><path class="b" d="M1822.272,1477.731a59.955,59.955,0,0,1-18.545-2.926,1.386,1.386,0,1,1,.856-2.637,57.178,57.178,0,0,0,17.688,2.791,1.386,1.386,0,0,1,0,2.772Z" transform="translate(-1802.769 -1472.101)"/></g><g transform="translate(114.369 58.614)"><path class="b" d="M1964.021,1372.33a1.388,1.388,0,0,1-1.319-1.815,57.178,57.178,0,0,0,2.791-17.688,1.386,1.386,0,1,1,2.772,0,59.955,59.955,0,0,1-2.926,18.544A1.387,1.387,0,0,1,1964.021,1372.33Z" transform="translate(-1962.634 -1351.441)"/></g><g transform="translate(115.756 41.884)"><path class="c" d="M1965.635,1315.236a58.561,58.561,0,0,1,2.858,18.116" transform="translate(-1965.635 -1315.236)"/></g><g transform="translate(4.244 78.116)"><path class="c" d="M1724.314,1393.646a58.417,58.417,0,0,0,8.336,16.336" transform="translate(-1724.314 -1393.646)"/></g><g transform="translate(11.194 93.066)"><path class="b" d="M1753.707,1441.738a1.385,1.385,0,0,1-.815-.265,60.237,60.237,0,0,1-13.272-13.273,1.386,1.386,0,1,1,2.242-1.632,57.434,57.434,0,0,0,12.663,12.662,1.386,1.386,0,0,1-.817,2.507Z" transform="translate(-1739.354 -1425.998)"/></g><g transform="translate(58.614)"><path class="b" d="M1861.478,1230.226a1.384,1.384,0,0,1-.429-.068,57.175,57.175,0,0,0-17.688-2.791,1.386,1.386,0,1,1,0-2.772,59.955,59.955,0,0,1,18.544,2.926,1.386,1.386,0,0,1-.427,2.705Z" transform="translate(-1841.975 -1224.595)"/></g><g transform="translate(1.386 41.884)"><path class="c" d="M1718.129,1333.352a58.561,58.561,0,0,1,2.858-18.116" transform="translate(-1718.129 -1315.236)"/></g><g transform="translate(12.58 12.581)"><path class="c" d="M1755.322,1251.821a58.934,58.934,0,0,0-12.968,12.967" transform="translate(-1742.354 -1251.821)"/></g><g transform="translate(1.386 60)"><path class="c" d="M1718.129,1354.441a58.564,58.564,0,0,0,2.858,18.116" transform="translate(-1718.129 -1354.441)"/></g><g transform="translate(4.244 25.548)"><path class="c" d="M1732.65,1279.883a58.413,58.413,0,0,0-8.336,16.336" transform="translate(-1724.314 -1279.883)"/></g><g transform="translate(25.548 4.244)"><path class="c" d="M1786.753,1233.78a58.405,58.405,0,0,0-16.336,8.337" transform="translate(-1770.417 -1233.78)"/></g><g transform="translate(41.884 1.386)"><path class="c" d="M1823.885,1227.595a58.565,58.565,0,0,0-18.116,2.858" transform="translate(-1805.769 -1227.595)"/></g></g><g transform="translate(29.392 35.359)"><g class="d"><text class="e" transform="translate(0 31)"><tspan x="0" y="0">65%</tspan></text><text class="f" transform="translate(4.218 39.256)"><tspan x="0" y="0">Completado</tspan></text></g></g></svg>