<svg xmlns="http://www.w3.org/2000/svg" width="120" height="120" viewBox="0 0 120 120"><defs><style>.a{fill:#e0e0e0;}.b{fill:#5cdd6a;}.c{fill:none;}.d,.e,.f{isolation:isolate;}.e{fill:#333;font-size:31px;font-family:SourceSansPro-Bold, Source Sans Pro;font-weight:700;}.f{fill:#666;font-size:9px;font-family:SourceSansPro-Semibold, Source Sans Pro;font-weight:600;}</style></defs><g transform="translate(0 0)"><g transform="translate(0 0)"><path class="a" d="M2070.618,1344.594a60,60,0,1,1,60-60A60.068,60.068,0,0,1,2070.618,1344.594Zm0-117.227a57.227,57.227,0,1,0,57.227,57.228A57.292,57.292,0,0,0,2070.618,1227.367Z" transform="translate(-2010.618 -1224.595)"/><g transform="translate(58.614)"><path class="b" d="M2197.464,1285.981a1.386,1.386,0,0,1-1.386-1.386,57.292,57.292,0,0,0-57.227-57.228,1.386,1.386,0,0,1,0-2.772,60.068,60.068,0,0,1,60,60A1.386,1.386,0,0,1,2197.464,1285.981Z" transform="translate(-2137.464 -1224.595)"/></g></g><g transform="translate(93.066 93.065)"><path class="b" d="M2213.409,1441.738a1.386,1.386,0,0,1-.817-2.507,57.46,57.46,0,0,0,12.662-12.662,1.386,1.386,0,1,1,2.242,1.632,60.257,60.257,0,0,1-13.272,13.272A1.384,1.384,0,0,1,2213.409,1441.738Z" transform="translate(-2212.021 -1425.998)"/></g><g transform="translate(76.729 106.033)"><path class="b" d="M2178.054,1465.17a1.387,1.387,0,0,1-.428-2.706,56.932,56.932,0,0,0,15.948-8.138,1.386,1.386,0,0,1,1.632,2.242,59.754,59.754,0,0,1-16.723,8.533A1.387,1.387,0,0,1,2178.054,1465.17Z" transform="translate(-2176.668 -1454.06)"/></g><g transform="translate(106.033 76.73)"><path class="b" d="M2241.469,1409.754a1.386,1.386,0,0,1-1.12-2.2,56.938,56.938,0,0,0,8.138-15.948,1.387,1.387,0,0,1,2.638.856,59.743,59.743,0,0,1-8.534,16.724A1.384,1.384,0,0,1,2241.469,1409.754Z" transform="translate(-2240.084 -1390.646)"/></g><g transform="translate(58.614 114.369)"><path class="b" d="M2138.85,1477.732a1.386,1.386,0,0,1,0-2.772,57.179,57.179,0,0,0,17.688-2.791,1.386,1.386,0,0,1,.856,2.637A59.957,59.957,0,0,1,2138.85,1477.732Z" transform="translate(-2137.464 -1472.101)"/></g><g transform="translate(78.116 4.244)"><path class="c" d="M2196.005,1242.117a58.411,58.411,0,0,0-16.336-8.337" transform="translate(-2179.669 -1233.78)"/></g><g transform="translate(107.419 25.548)"><path class="c" d="M2251.42,1296.219a58.417,58.417,0,0,0-8.336-16.336" transform="translate(-2243.084 -1279.883)"/></g><g transform="translate(94.452 12.581)"><path class="c" d="M2227.989,1264.788a58.947,58.947,0,0,0-12.967-12.967" transform="translate(-2215.022 -1251.821)"/></g><g transform="translate(24.162 106.032)"><path class="b" d="M2080.629,1465.169a1.389,1.389,0,0,1-.429-.068,59.748,59.748,0,0,1-16.723-8.533,1.386,1.386,0,1,1,1.632-2.242,56.926,56.926,0,0,0,15.948,8.138,1.387,1.387,0,0,1-.428,2.706Z" transform="translate(-2062.906 -1454.06)"/></g><g transform="translate(40.497 114.369)"><path class="b" d="M2117.761,1477.731a59.954,59.954,0,0,1-18.544-2.926,1.386,1.386,0,1,1,.857-2.637,57.173,57.173,0,0,0,17.688,2.791,1.386,1.386,0,0,1,0,2.772Z" transform="translate(-2098.258 -1472.101)"/></g><g transform="translate(114.369 58.614)"><path class="b" d="M2259.51,1372.33a1.388,1.388,0,0,1-1.319-1.815,57.179,57.179,0,0,0,2.791-17.688,1.386,1.386,0,1,1,2.772,0,59.965,59.965,0,0,1-2.926,18.544A1.388,1.388,0,0,1,2259.51,1372.33Z" transform="translate(-2258.123 -1351.441)"/></g><g transform="translate(115.755 41.884)"><path class="c" d="M2261.124,1315.236a58.545,58.545,0,0,1,2.858,18.116" transform="translate(-2261.124 -1315.236)"/></g><g transform="translate(2.858 76.73)"><path class="b" d="M2026.527,1409.754a1.383,1.383,0,0,1-1.122-.57,59.744,59.744,0,0,1-8.534-16.724,1.386,1.386,0,1,1,2.637-.856,56.952,56.952,0,0,0,8.139,15.948,1.386,1.386,0,0,1-1.12,2.2Z" transform="translate(-2016.802 -1390.646)"/></g><g transform="translate(11.194 93.066)"><path class="b" d="M2049.2,1441.738a1.382,1.382,0,0,1-.814-.265,60.235,60.235,0,0,1-13.273-13.273,1.387,1.387,0,1,1,2.242-1.632,57.444,57.444,0,0,0,12.662,12.662,1.386,1.386,0,0,1-.818,2.507Z" transform="translate(-2034.843 -1425.998)"/></g><g transform="translate(58.614 0)"><path class="b" d="M2156.967,1230.226a1.383,1.383,0,0,1-.429-.068,57.175,57.175,0,0,0-17.688-2.791,1.386,1.386,0,0,1,0-2.772,59.957,59.957,0,0,1,18.544,2.926,1.387,1.387,0,0,1-.428,2.705Z" transform="translate(-2137.464 -1224.595)"/></g><g transform="translate(1.386 41.884)"><path class="c" d="M2013.618,1333.352a58.56,58.56,0,0,1,2.858-18.116" transform="translate(-2013.618 -1315.236)"/></g><g transform="translate(12.581 12.581)"><path class="c" d="M2050.811,1251.821a58.92,58.92,0,0,0-12.967,12.967" transform="translate(-2037.844 -1251.821)"/></g><g transform="translate(1.386 60)"><path class="c" d="M2013.618,1354.441a58.564,58.564,0,0,0,2.858,18.116" transform="translate(-2013.618 -1354.441)"/></g><g transform="translate(4.244 25.548)"><path class="c" d="M2028.139,1279.883a58.418,58.418,0,0,0-8.336,16.336" transform="translate(-2019.803 -1279.883)"/></g><g transform="translate(25.548 4.244)"><path class="c" d="M2082.242,1233.78a58.411,58.411,0,0,0-16.336,8.337" transform="translate(-2065.906 -1233.78)"/></g><g transform="translate(41.884 1.386)"><path class="c" d="M2119.375,1227.595a58.559,58.559,0,0,0-18.116,2.858" transform="translate(-2101.259 -1227.595)"/></g></g><g transform="translate(29.393 35.358)"><g class="d" transform="translate(0 0)"><text class="e" transform="translate(0 31)"><tspan x="0" y="0">70%</tspan></text><text class="f" transform="translate(4.218 39.256)"><tspan x="0" y="0">Completado</tspan></text></g></g></svg>