<svg xmlns="http://www.w3.org/2000/svg" width="120" height="120" viewBox="0 0 120 120"><defs><style>.a{fill:#e0e0e0;}.b{fill:#5cdd6a;}.c{fill:none;}.d,.e,.f{isolation:isolate;}.e{fill:#333;font-size:31px;font-family:SourceSansPro-Bold, Source Sans Pro;font-weight:700;}.f{fill:#666;font-size:9px;font-family:SourceSansPro-Semibold, Source Sans Pro;font-weight:600;}</style></defs><g transform="translate(0 0)"><path class="a" d="M2366.107,1344.594a60,60,0,1,1,60-60A60.068,60.068,0,0,1,2366.107,1344.594Zm0-117.227a57.227,57.227,0,1,0,57.228,57.228A57.292,57.292,0,0,0,2366.107,1227.367Z" transform="translate(-2306.107 -1224.595)"/><g transform="translate(58.614)"><path class="b" d="M2492.953,1285.981a1.386,1.386,0,0,1-1.386-1.386,57.292,57.292,0,0,0-57.228-57.228,1.386,1.386,0,0,1,0-2.772,60.067,60.067,0,0,1,60,60A1.386,1.386,0,0,1,2492.953,1285.981Z" transform="translate(-2432.953 -1224.595)"/></g><g transform="translate(93.066 93.065)"><path class="b" d="M2508.9,1441.738a1.386,1.386,0,0,1-.817-2.507,57.451,57.451,0,0,0,12.662-12.662,1.386,1.386,0,1,1,2.242,1.632,60.233,60.233,0,0,1-13.272,13.272A1.382,1.382,0,0,1,2508.9,1441.738Z" transform="translate(-2507.51 -1425.998)"/></g><g transform="translate(76.73 106.033)"><path class="b" d="M2473.543,1465.17a1.387,1.387,0,0,1-.428-2.706,56.934,56.934,0,0,0,15.948-8.138,1.386,1.386,0,1,1,1.632,2.242,59.742,59.742,0,0,1-16.723,8.533A1.385,1.385,0,0,1,2473.543,1465.17Z" transform="translate(-2472.157 -1454.06)"/></g><g transform="translate(106.033 76.73)"><path class="b" d="M2536.958,1409.754a1.386,1.386,0,0,1-1.12-2.2,56.954,56.954,0,0,0,8.139-15.948,1.386,1.386,0,1,1,2.637.856,59.741,59.741,0,0,1-8.534,16.724A1.384,1.384,0,0,1,2536.958,1409.754Z" transform="translate(-2535.573 -1390.646)"/></g><g transform="translate(58.614 114.369)"><path class="b" d="M2434.339,1477.732a1.386,1.386,0,0,1,0-2.772,57.173,57.173,0,0,0,17.688-2.791,1.386,1.386,0,1,1,.857,2.637A59.96,59.96,0,0,1,2434.339,1477.732Z" transform="translate(-2432.953 -1472.101)"/></g><g transform="translate(78.116 4.244)"><path class="c" d="M2491.494,1242.116a58.414,58.414,0,0,0-16.336-8.336" transform="translate(-2475.158 -1233.78)"/></g><g transform="translate(107.419 25.548)"><path class="c" d="M2546.909,1296.219a58.418,58.418,0,0,0-8.336-16.336" transform="translate(-2538.573 -1279.883)"/></g><g transform="translate(94.452 12.581)"><path class="c" d="M2523.478,1264.788a58.936,58.936,0,0,0-12.967-12.967" transform="translate(-2510.511 -1251.821)"/></g><g transform="translate(24.162 106.032)"><path class="b" d="M2376.118,1465.169a1.387,1.387,0,0,1-.429-.068,59.749,59.749,0,0,1-16.724-8.533,1.387,1.387,0,0,1,1.632-2.242,56.928,56.928,0,0,0,15.948,8.138,1.387,1.387,0,0,1-.428,2.706Z" transform="translate(-2358.396 -1454.06)"/></g><g transform="translate(40.497 114.369)"><path class="b" d="M2413.25,1477.731a59.963,59.963,0,0,1-18.544-2.926,1.386,1.386,0,0,1,.857-2.637,57.176,57.176,0,0,0,17.688,2.791,1.386,1.386,0,0,1,0,2.772Z" transform="translate(-2393.748 -1472.101)"/></g><g transform="translate(114.369 58.614)"><path class="b" d="M2555,1372.33a1.388,1.388,0,0,1-1.319-1.815,57.179,57.179,0,0,0,2.791-17.688,1.386,1.386,0,1,1,2.772,0,59.959,59.959,0,0,1-2.926,18.544A1.388,1.388,0,0,1,2555,1372.33Z" transform="translate(-2553.613 -1351.441)"/></g><g transform="translate(115.756 41.884)"><path class="c" d="M2556.614,1315.236a58.56,58.56,0,0,1,2.858,18.116" transform="translate(-2556.614 -1315.236)"/></g><g transform="translate(2.858 76.73)"><path class="b" d="M2322.016,1409.754a1.384,1.384,0,0,1-1.123-.57,59.741,59.741,0,0,1-8.534-16.724,1.386,1.386,0,1,1,2.637-.856,56.948,56.948,0,0,0,8.139,15.948,1.386,1.386,0,0,1-1.12,2.2Z" transform="translate(-2312.292 -1390.646)"/></g><g transform="translate(11.195 93.066)"><path class="b" d="M2344.686,1441.738a1.384,1.384,0,0,1-.815-.265A60.255,60.255,0,0,1,2330.6,1428.2a1.386,1.386,0,1,1,2.242-1.632,57.452,57.452,0,0,0,12.662,12.662,1.386,1.386,0,0,1-.817,2.507Z" transform="translate(-2330.333 -1425.998)"/></g><g transform="translate(58.614)"><path class="b" d="M2452.456,1230.226a1.386,1.386,0,0,1-.429-.068,57.17,57.17,0,0,0-17.688-2.791,1.386,1.386,0,0,1,0-2.772,59.957,59.957,0,0,1,18.544,2.926,1.386,1.386,0,0,1-.428,2.705Z" transform="translate(-2432.953 -1224.595)"/></g><g transform="translate(1.387 41.884)"><path class="c" d="M2309.108,1333.352a58.553,58.553,0,0,1,2.858-18.116" transform="translate(-2309.108 -1315.236)"/></g><g transform="translate(12.581 12.581)"><path class="c" d="M2346.3,1251.821a58.941,58.941,0,0,0-12.967,12.967" transform="translate(-2333.333 -1251.821)"/></g><g transform="translate(0 58.614)"><path class="b" d="M2310.351,1372.33a1.388,1.388,0,0,1-1.318-.959,59.959,59.959,0,0,1-2.926-18.544,1.386,1.386,0,1,1,2.772,0,57.193,57.193,0,0,0,2.791,17.688,1.388,1.388,0,0,1-1.319,1.815Z" transform="translate(-2306.107 -1351.441)"/></g><g transform="translate(4.245 25.548)"><path class="c" d="M2323.629,1279.883a58.417,58.417,0,0,0-8.336,16.336" transform="translate(-2315.293 -1279.883)"/></g><g transform="translate(25.548 4.244)"><path class="c" d="M2377.731,1233.78a58.414,58.414,0,0,0-16.336,8.336" transform="translate(-2361.395 -1233.78)"/></g><g transform="translate(41.884 1.386)"><path class="c" d="M2414.864,1227.595a58.562,58.562,0,0,0-18.116,2.858" transform="translate(-2396.748 -1227.595)"/></g></g><g transform="translate(29.392 35.358)"><g class="d"><text class="e" transform="translate(0 31)"><tspan x="0" y="0">75%</tspan></text><text class="f" transform="translate(4.218 39.256)"><tspan x="0" y="0">Completado</tspan></text></g></g></svg>