<svg xmlns="http://www.w3.org/2000/svg" width="120" height="120" viewBox="0 0 120 120"><defs><style>.a{fill:#e0e0e0;}.b{fill:#5cdd6a;}.c{fill:none;}.d,.e,.f{isolation:isolate;}.e{fill:#333;font-size:31px;font-family:SourceSansPro-Bold, Source Sans Pro;font-weight:700;}.f{fill:#666;font-size:9px;font-family:SourceSansPro-Semibold, Source Sans Pro;font-weight:600;}</style></defs><g transform="translate(0 0)"><g transform="translate(0 0)"><path class="a" d="M1181.15,1687.823a60,60,0,1,1,60-60A60.068,60.068,0,0,1,1181.15,1687.823Zm0-117.228a57.227,57.227,0,1,0,57.227,57.228A57.292,57.292,0,0,0,1181.15,1570.6Z" transform="translate(-1121.15 -1567.823)"/></g><g transform="translate(58.614 0)"><path class="b" d="M1308,1629.209a1.386,1.386,0,0,1-1.386-1.386,57.292,57.292,0,0,0-57.227-57.228,1.386,1.386,0,0,1,0-2.773,60.068,60.068,0,0,1,60,60A1.386,1.386,0,0,1,1308,1629.209Z" transform="translate(-1247.996 -1567.823)"/></g></g><g transform="translate(93.066 93.066)"><path class="b" d="M1323.941,1784.966a1.386,1.386,0,0,1-.817-2.507,57.452,57.452,0,0,0,12.662-12.662,1.386,1.386,0,0,1,2.242,1.632,60.2,60.2,0,0,1-13.272,13.272A1.378,1.378,0,0,1,1323.941,1784.966Z" transform="translate(-1322.553 -1769.226)"/></g><g transform="translate(76.729 106.033)"><path class="b" d="M1288.586,1808.4a1.386,1.386,0,0,1-.428-2.705,56.967,56.967,0,0,0,15.948-8.139,1.386,1.386,0,1,1,1.632,2.241,59.729,59.729,0,0,1-16.724,8.534A1.4,1.4,0,0,1,1288.586,1808.4Z" transform="translate(-1287.199 -1797.288)"/></g><g transform="translate(106.033 76.73)"><path class="b" d="M1352,1752.982a1.386,1.386,0,0,1-1.12-2.2,56.946,56.946,0,0,0,8.138-15.948,1.387,1.387,0,0,1,2.638.856,59.724,59.724,0,0,1-8.534,16.724A1.384,1.384,0,0,1,1352,1752.982Z" transform="translate(-1350.615 -1733.874)"/></g><g transform="translate(58.614 114.369)"><path class="b" d="M1249.382,1820.959a1.386,1.386,0,0,1,0-2.772,57.179,57.179,0,0,0,17.688-2.79,1.386,1.386,0,0,1,.856,2.637A59.959,59.959,0,0,1,1249.382,1820.959Z" transform="translate(-1247.996 -1815.329)"/></g><g transform="translate(78.116 4.244)"><path class="c" d="M1306.537,1585.344a58.416,58.416,0,0,0-16.336-8.336" transform="translate(-1290.201 -1577.008)"/></g><g transform="translate(107.42 25.548)"><path class="c" d="M1361.952,1639.447a58.426,58.426,0,0,0-8.336-16.336" transform="translate(-1353.616 -1623.111)"/></g><g transform="translate(94.452 12.581)"><path class="c" d="M1338.521,1608.016a58.936,58.936,0,0,0-12.968-12.967" transform="translate(-1325.553 -1595.049)"/></g><g transform="translate(24.161 106.033)"><path class="b" d="M1191.16,1808.4a1.4,1.4,0,0,1-.428-.068,59.728,59.728,0,0,1-16.724-8.534,1.386,1.386,0,1,1,1.632-2.241,56.966,56.966,0,0,0,15.948,8.139,1.386,1.386,0,0,1-.428,2.705Z" transform="translate(-1173.438 -1797.288)"/></g><g transform="translate(40.497 114.369)"><path class="b" d="M1228.293,1820.96a59.963,59.963,0,0,1-18.544-2.926,1.386,1.386,0,1,1,.856-2.637,57.183,57.183,0,0,0,17.688,2.79,1.386,1.386,0,0,1,0,2.773Z" transform="translate(-1208.79 -1815.329)"/></g><g transform="translate(114.369 58.614)"><path class="b" d="M1370.042,1715.558a1.4,1.4,0,0,1-.428-.068,1.387,1.387,0,0,1-.89-1.747,57.177,57.177,0,0,0,2.791-17.688,1.386,1.386,0,0,1,2.772,0,59.951,59.951,0,0,1-2.925,18.544A1.388,1.388,0,0,1,1370.042,1715.558Z" transform="translate(-1368.655 -1694.669)"/></g><g transform="translate(115.756 41.884)"><path class="c" d="M1371.656,1658.464a58.559,58.559,0,0,1,2.858,18.116" transform="translate(-1371.656 -1658.464)"/></g><g transform="translate(2.858 76.729)"><path class="b" d="M1137.058,1752.982a1.384,1.384,0,0,1-1.122-.571,59.722,59.722,0,0,1-8.534-16.724,1.386,1.386,0,0,1,2.637-.856,56.948,56.948,0,0,0,8.138,15.948,1.386,1.386,0,0,1-1.12,2.2Z" transform="translate(-1127.334 -1733.873)"/></g><g transform="translate(11.194 93.066)"><path class="b" d="M1159.728,1784.966a1.376,1.376,0,0,1-.814-.265,60.2,60.2,0,0,1-13.273-13.272,1.386,1.386,0,0,1,2.242-1.632,57.45,57.45,0,0,0,12.662,12.662,1.386,1.386,0,0,1-.817,2.507Z" transform="translate(-1145.375 -1769.226)"/></g><g transform="translate(58.614 0)"><path class="b" d="M1267.5,1573.454a1.4,1.4,0,0,1-.428-.068,57.18,57.18,0,0,0-17.688-2.791,1.386,1.386,0,0,1,0-2.773,59.949,59.949,0,0,1,18.544,2.926,1.386,1.386,0,0,1-.428,2.705Z" transform="translate(-1247.996 -1567.823)"/></g><g transform="translate(0 40.498)"><path class="b" d="M1122.536,1676.353a1.386,1.386,0,0,1-1.386-1.386,59.944,59.944,0,0,1,2.926-18.544,1.386,1.386,0,0,1,2.637.857,57.179,57.179,0,0,0-2.791,17.688A1.386,1.386,0,0,1,1122.536,1676.353Z" transform="translate(-1121.15 -1655.465)"/></g><g transform="translate(12.581 12.581)"><path class="c" d="M1161.343,1595.049a58.926,58.926,0,0,0-12.967,12.967" transform="translate(-1148.376 -1595.049)"/></g><g transform="translate(0 58.614)"><path class="b" d="M1125.394,1715.558a1.387,1.387,0,0,1-1.318-.958,59.941,59.941,0,0,1-2.926-18.544,1.386,1.386,0,0,1,2.773,0,57.177,57.177,0,0,0,2.791,17.688,1.387,1.387,0,0,1-1.319,1.815Z" transform="translate(-1121.15 -1694.669)"/></g><g transform="translate(25.548 4.244)"><path class="c" d="M1192.774,1577.008a58.417,58.417,0,0,0-16.336,8.336" transform="translate(-1176.438 -1577.008)"/></g><g transform="translate(41.884 1.386)"><path class="c" d="M1229.907,1570.823a58.564,58.564,0,0,0-18.116,2.858" transform="translate(-1211.791 -1570.823)"/></g><g transform="translate(29.392 35.358)"><g class="d" transform="translate(0)"><text class="e" transform="translate(0 31)"><tspan x="0" y="0">80%</tspan></text><text class="f" transform="translate(4.218 39.256)"><tspan x="0" y="0">Completado</tspan></text></g></g></svg>