<svg xmlns="http://www.w3.org/2000/svg" width="120" height="120" viewBox="0 0 120 120"><defs><style>.a{fill:#e0e0e0;}.b{fill:#5cdd6a;}.c{fill:none;}.d,.e,.f{isolation:isolate;}.e{fill:#333;font-size:31px;font-family:SourceSansPro-Bold, Source Sans Pro;font-weight:700;}.f{fill:#666;font-size:9px;font-family:SourceSansPro-Semibold, Source Sans Pro;font-weight:600;}</style></defs><g transform="translate(0 0)"><path class="a" d="M1479.64,1687.823a60,60,0,1,1,60-60A60.068,60.068,0,0,1,1479.64,1687.823Zm0-117.228a57.228,57.228,0,1,0,57.228,57.228A57.292,57.292,0,0,0,1479.64,1570.6Z" transform="translate(-1419.64 -1567.823)"/><g transform="translate(58.613)"><path class="b" d="M1606.485,1629.209a1.386,1.386,0,0,1-1.386-1.386,57.293,57.293,0,0,0-57.228-57.228,1.386,1.386,0,0,1,0-2.772,60.069,60.069,0,0,1,60,60A1.387,1.387,0,0,1,1606.485,1629.209Z" transform="translate(-1546.485 -1567.823)"/></g></g><g transform="translate(93.066 93.066)"><path class="b" d="M1622.43,1784.966a1.386,1.386,0,0,1-.817-2.507,57.44,57.44,0,0,0,12.662-12.662,1.386,1.386,0,0,1,2.242,1.632,60.2,60.2,0,0,1-13.272,13.272A1.378,1.378,0,0,1,1622.43,1784.966Z" transform="translate(-1621.043 -1769.226)"/></g><g transform="translate(76.729 106.033)"><path class="b" d="M1587.075,1808.4a1.386,1.386,0,0,1-.427-2.705,56.956,56.956,0,0,0,15.948-8.139,1.386,1.386,0,1,1,1.632,2.242,59.73,59.73,0,0,1-16.724,8.534A1.4,1.4,0,0,1,1587.075,1808.4Z" transform="translate(-1585.689 -1797.288)"/></g><g transform="translate(106.033 76.73)"><path class="b" d="M1650.49,1752.982a1.386,1.386,0,0,1-1.12-2.2,56.96,56.96,0,0,0,8.139-15.948,1.386,1.386,0,1,1,2.637.856,59.736,59.736,0,0,1-8.534,16.724A1.385,1.385,0,0,1,1650.49,1752.982Z" transform="translate(-1649.105 -1733.874)"/></g><g transform="translate(58.613 114.369)"><path class="b" d="M1547.871,1820.959a1.386,1.386,0,0,1,0-2.773,57.181,57.181,0,0,0,17.688-2.79,1.386,1.386,0,0,1,.856,2.637A59.954,59.954,0,0,1,1547.871,1820.959Z" transform="translate(-1546.485 -1815.329)"/></g><g transform="translate(78.116 4.244)"><path class="c" d="M1605.026,1585.344a58.424,58.424,0,0,0-16.336-8.336" transform="translate(-1588.69 -1577.008)"/></g><g transform="translate(107.419 25.548)"><path class="c" d="M1660.442,1639.447a58.428,58.428,0,0,0-8.337-16.336" transform="translate(-1652.105 -1623.111)"/></g><g transform="translate(94.452 12.581)"><path class="c" d="M1637.01,1608.016a58.921,58.921,0,0,0-12.967-12.967" transform="translate(-1624.043 -1595.049)"/></g><g transform="translate(24.161 106.033)"><path class="b" d="M1489.65,1808.4a1.4,1.4,0,0,1-.428-.068,59.721,59.721,0,0,1-16.724-8.534,1.386,1.386,0,1,1,1.632-2.242,56.959,56.959,0,0,0,15.949,8.139,1.386,1.386,0,0,1-.428,2.705Z" transform="translate(-1471.927 -1797.288)"/></g><g transform="translate(40.497 114.369)"><path class="b" d="M1526.782,1820.96a59.958,59.958,0,0,1-18.544-2.925,1.386,1.386,0,0,1,.856-2.637,57.182,57.182,0,0,0,17.688,2.79,1.386,1.386,0,1,1,0,2.773Z" transform="translate(-1507.279 -1815.329)"/></g><g transform="translate(114.368 58.614)"><path class="b" d="M1668.531,1715.558a1.4,1.4,0,0,1-.428-.068,1.386,1.386,0,0,1-.89-1.747,57.177,57.177,0,0,0,2.791-17.688,1.386,1.386,0,0,1,2.772,0,59.955,59.955,0,0,1-2.926,18.544A1.387,1.387,0,0,1,1668.531,1715.558Z" transform="translate(-1667.144 -1694.669)"/></g><g transform="translate(115.755 41.884)"><path class="c" d="M1670.146,1658.464A58.56,58.56,0,0,1,1673,1676.58" transform="translate(-1670.146 -1658.464)"/></g><g transform="translate(2.857 76.729)"><path class="b" d="M1435.548,1752.982a1.386,1.386,0,0,1-1.122-.571,59.734,59.734,0,0,1-8.534-16.724,1.386,1.386,0,0,1,2.637-.856,56.958,56.958,0,0,0,8.139,15.948,1.387,1.387,0,0,1-1.12,2.2Z" transform="translate(-1425.823 -1733.873)"/></g><g transform="translate(11.194 93.066)"><path class="b" d="M1458.218,1784.966a1.377,1.377,0,0,1-.815-.265,60.208,60.208,0,0,1-13.273-13.272,1.386,1.386,0,0,1,2.242-1.632,57.44,57.44,0,0,0,12.662,12.662,1.386,1.386,0,0,1-.816,2.507Z" transform="translate(-1443.865 -1769.226)"/></g><g transform="translate(58.613 0)"><path class="b" d="M1565.987,1573.454a1.392,1.392,0,0,1-.428-.068,57.182,57.182,0,0,0-17.688-2.791,1.386,1.386,0,0,1,0-2.772,59.94,59.94,0,0,1,18.544,2.926,1.386,1.386,0,0,1-.428,2.705Z" transform="translate(-1546.485 -1567.823)"/></g><g transform="translate(0 40.498)"><path class="b" d="M1421.026,1676.353a1.386,1.386,0,0,1-1.386-1.386,59.959,59.959,0,0,1,2.925-18.545,1.386,1.386,0,0,1,2.637.857,57.179,57.179,0,0,0-2.79,17.688A1.387,1.387,0,0,1,1421.026,1676.353Z" transform="translate(-1419.64 -1655.465)"/></g><g transform="translate(12.58 12.581)"><path class="c" d="M1459.832,1595.049a58.945,58.945,0,0,0-12.967,12.967" transform="translate(-1446.865 -1595.049)"/></g><g transform="translate(0 58.614)"><path class="b" d="M1423.884,1715.558a1.387,1.387,0,0,1-1.318-.958,59.955,59.955,0,0,1-2.925-18.544,1.386,1.386,0,0,1,2.773,0,57.176,57.176,0,0,0,2.79,17.688,1.386,1.386,0,0,1-.89,1.747A1.4,1.4,0,0,1,1423.884,1715.558Z" transform="translate(-1419.64 -1694.669)"/></g><g transform="translate(2.857 24.161)"><path class="b" d="M1427.21,1639.22a1.4,1.4,0,0,1-.428-.068,1.387,1.387,0,0,1-.89-1.747,59.743,59.743,0,0,1,8.534-16.724,1.386,1.386,0,0,1,2.242,1.632,56.952,56.952,0,0,0-8.139,15.949A1.387,1.387,0,0,1,1427.21,1639.22Z" transform="translate(-1425.823 -1620.11)"/></g><g transform="translate(25.547 4.244)"><path class="c" d="M1491.263,1577.008a58.424,58.424,0,0,0-16.336,8.336" transform="translate(-1474.927 -1577.008)"/></g><g transform="translate(41.883 1.386)"><path class="c" d="M1528.4,1570.823a58.563,58.563,0,0,0-18.116,2.858" transform="translate(-1510.28 -1570.823)"/></g><g transform="translate(29.392 35.358)"><g class="d"><text class="e" transform="translate(0 31)"><tspan x="0" y="0">85%</tspan></text><text class="f" transform="translate(4.218 39.256)"><tspan x="0" y="0">Completado</tspan></text></g></g></svg>