<svg xmlns="http://www.w3.org/2000/svg" width="120.001" height="120" viewBox="0 0 120.001 120"><defs><style>.a{fill:#e0e0e0;}.b{fill:#5cdd6a;}.c{fill:none;}.d,.e,.f{isolation:isolate;}.e{fill:#333;font-size:31px;font-family:SourceSansPro-Bold, Source Sans Pro;font-weight:700;}.f{fill:#666;font-size:9px;font-family:SourceSansPro-Semibold, Source Sans Pro;font-weight:600;}</style></defs><g transform="translate(0 0)"><g transform="translate(0 0)"><path class="a" d="M1775.129,1687.823a60,60,0,1,1,60-60A60.068,60.068,0,0,1,1775.129,1687.823Zm0-117.228a57.227,57.227,0,1,0,57.227,57.228A57.292,57.292,0,0,0,1775.129,1570.6Z" transform="translate(-1715.129 -1567.823)"/></g><g transform="translate(58.614 0)"><path class="b" d="M1901.975,1629.209a1.386,1.386,0,0,1-1.386-1.386,57.292,57.292,0,0,0-57.227-57.228,1.386,1.386,0,1,1,0-2.773,60.068,60.068,0,0,1,60,60A1.386,1.386,0,0,1,1901.975,1629.209Z" transform="translate(-1841.975 -1567.823)"/></g></g><g transform="translate(93.066 93.066)"><path class="b" d="M1917.92,1784.965a1.386,1.386,0,0,1-.817-2.507,57.445,57.445,0,0,0,12.662-12.662,1.386,1.386,0,1,1,2.242,1.632,60.22,60.22,0,0,1-13.272,13.272A1.38,1.38,0,0,1,1917.92,1784.965Z" transform="translate(-1916.532 -1769.226)"/></g><g transform="translate(76.729 106.033)"><path class="b" d="M1882.565,1808.4a1.386,1.386,0,0,1-.428-2.705,56.958,56.958,0,0,0,15.948-8.139,1.386,1.386,0,1,1,1.632,2.241,59.725,59.725,0,0,1-16.724,8.534A1.4,1.4,0,0,1,1882.565,1808.4Z" transform="translate(-1881.178 -1797.288)"/></g><g transform="translate(106.033 76.73)"><path class="b" d="M1945.98,1752.983a1.386,1.386,0,0,1-1.12-2.2,56.946,56.946,0,0,0,8.138-15.948,1.386,1.386,0,1,1,2.637.856,59.736,59.736,0,0,1-8.534,16.724A1.383,1.383,0,0,1,1945.98,1752.983Z" transform="translate(-1944.594 -1733.874)"/></g><g transform="translate(58.614 114.37)"><path class="b" d="M1843.361,1820.96a1.386,1.386,0,1,1,0-2.773,57.182,57.182,0,0,0,17.688-2.79,1.386,1.386,0,0,1,.856,2.637A59.958,59.958,0,0,1,1843.361,1820.96Z" transform="translate(-1841.975 -1815.33)"/></g><g transform="translate(78.116 4.244)"><path class="c" d="M1900.515,1585.344a58.417,58.417,0,0,0-16.336-8.336" transform="translate(-1884.179 -1577.008)"/></g><g transform="translate(107.419 25.548)"><path class="c" d="M1955.931,1639.447a58.414,58.414,0,0,0-8.337-16.336" transform="translate(-1947.594 -1623.111)"/></g><g transform="translate(94.452 12.581)"><path class="c" d="M1932.5,1608.016a58.924,58.924,0,0,0-12.967-12.967" transform="translate(-1919.532 -1595.049)"/></g><g transform="translate(24.162 106.033)"><path class="b" d="M1785.139,1808.4a1.4,1.4,0,0,1-.428-.068,59.724,59.724,0,0,1-16.724-8.534,1.386,1.386,0,1,1,1.632-2.242,56.951,56.951,0,0,0,15.948,8.139,1.386,1.386,0,0,1-.428,2.705Z" transform="translate(-1767.417 -1797.288)"/></g><g transform="translate(40.497 114.37)"><path class="b" d="M1822.272,1820.96a59.959,59.959,0,0,1-18.545-2.926,1.386,1.386,0,1,1,.856-2.637,57.183,57.183,0,0,0,17.688,2.79,1.386,1.386,0,0,1,0,2.773Z" transform="translate(-1802.769 -1815.329)"/></g><g transform="translate(114.369 58.614)"><path class="b" d="M1964.021,1715.558a1.4,1.4,0,0,1-.429-.068,1.387,1.387,0,0,1-.89-1.747,57.174,57.174,0,0,0,2.791-17.688,1.386,1.386,0,0,1,2.772,0,59.949,59.949,0,0,1-2.926,18.544A1.387,1.387,0,0,1,1964.021,1715.558Z" transform="translate(-1962.634 -1694.669)"/></g><g transform="translate(115.756 41.884)"><path class="c" d="M1965.635,1658.464a58.559,58.559,0,0,1,2.858,18.116" transform="translate(-1965.635 -1658.464)"/></g><g transform="translate(2.858 76.729)"><path class="b" d="M1731.037,1752.982a1.384,1.384,0,0,1-1.122-.571,59.736,59.736,0,0,1-8.534-16.724,1.386,1.386,0,0,1,2.637-.856,56.957,56.957,0,0,0,8.139,15.948,1.386,1.386,0,0,1-1.12,2.2Z" transform="translate(-1721.313 -1733.873)"/></g><g transform="translate(11.194 93.066)"><path class="b" d="M1753.707,1784.966a1.381,1.381,0,0,1-.815-.265,60.211,60.211,0,0,1-13.272-13.272,1.386,1.386,0,0,1,2.242-1.632,57.428,57.428,0,0,0,12.663,12.662,1.386,1.386,0,0,1-.817,2.507Z" transform="translate(-1739.354 -1769.226)"/></g><g transform="translate(58.614 0)"><path class="b" d="M1861.478,1573.454a1.4,1.4,0,0,1-.429-.068,57.179,57.179,0,0,0-17.688-2.791,1.386,1.386,0,1,1,0-2.773,59.948,59.948,0,0,1,18.544,2.926,1.386,1.386,0,0,1-.427,2.705Z" transform="translate(-1841.975 -1567.823)"/></g><g transform="translate(0 40.498)"><path class="b" d="M1716.515,1676.353a1.386,1.386,0,0,1-1.386-1.386,59.958,59.958,0,0,1,2.925-18.544,1.386,1.386,0,0,1,2.637.857,57.193,57.193,0,0,0-2.79,17.688A1.386,1.386,0,0,1,1716.515,1676.353Z" transform="translate(-1715.129 -1655.465)"/></g><g transform="translate(11.194 11.194)"><path class="b" d="M1740.739,1607.789a1.387,1.387,0,0,1-1.12-2.2,60.235,60.235,0,0,1,13.272-13.272,1.387,1.387,0,0,1,1.632,2.242,57.447,57.447,0,0,0-12.663,12.662A1.385,1.385,0,0,1,1740.739,1607.789Z" transform="translate(-1739.354 -1592.049)"/></g><g transform="translate(0 58.614)"><path class="b" d="M1719.373,1715.558a1.388,1.388,0,0,1-1.318-.958,59.955,59.955,0,0,1-2.925-18.544,1.386,1.386,0,0,1,2.773,0,57.191,57.191,0,0,0,2.79,17.688,1.386,1.386,0,0,1-.89,1.747A1.4,1.4,0,0,1,1719.373,1715.558Z" transform="translate(-1715.129 -1694.669)"/></g><g transform="translate(2.858 24.161)"><path class="b" d="M1722.7,1639.219a1.387,1.387,0,0,1-1.319-1.815,59.745,59.745,0,0,1,8.534-16.724,1.386,1.386,0,0,1,2.242,1.632,56.953,56.953,0,0,0-8.139,15.949A1.387,1.387,0,0,1,1722.7,1639.219Z" transform="translate(-1721.313 -1620.11)"/></g><g transform="translate(25.548 4.244)"><path class="c" d="M1786.753,1577.008a58.417,58.417,0,0,0-16.336,8.336" transform="translate(-1770.417 -1577.008)"/></g><g transform="translate(41.884 1.386)"><path class="c" d="M1823.886,1570.823a58.563,58.563,0,0,0-18.116,2.858" transform="translate(-1805.77 -1570.823)"/></g><g transform="translate(29.392 35.358)"><g class="d"><text class="e" transform="translate(0 31)"><tspan x="0" y="0">90%</tspan></text><text class="f" transform="translate(4.218 39.256)"><tspan x="0" y="0">Completado</tspan></text></g></g></svg>