<svg xmlns="http://www.w3.org/2000/svg" width="120" height="120" viewBox="0 0 120 120"><defs><style>.a{fill:#e0e0e0;}.b{fill:#5cdd6a;}.c{fill:none;}.d,.e,.f{isolation:isolate;}.e{fill:#333;font-size:31px;font-family:SourceSansPro-Bold, Source Sans Pro;font-weight:700;}.f{fill:#666;font-size:9px;font-family:SourceSansPro-Semibold, Source Sans Pro;font-weight:600;}</style></defs><g transform="translate(0 0)"><path class="a" d="M2070.618,1687.823a60,60,0,1,1,60-60A60.068,60.068,0,0,1,2070.618,1687.823Zm0-117.227a57.227,57.227,0,1,0,57.227,57.228A57.292,57.292,0,0,0,2070.618,1570.6Z" transform="translate(-2010.618 -1567.823)"/><g transform="translate(58.614)"><path class="b" d="M2197.464,1629.209a1.386,1.386,0,0,1-1.386-1.386,57.292,57.292,0,0,0-57.227-57.228,1.386,1.386,0,0,1,0-2.772,60.068,60.068,0,0,1,60,60A1.386,1.386,0,0,1,2197.464,1629.209Z" transform="translate(-2137.464 -1567.823)"/></g></g><g transform="translate(93.066 93.065)"><path class="b" d="M2213.409,1784.965a1.386,1.386,0,0,1-.817-2.507,57.433,57.433,0,0,0,12.662-12.662,1.386,1.386,0,0,1,2.242,1.632,60.237,60.237,0,0,1-13.272,13.272A1.381,1.381,0,0,1,2213.409,1784.965Z" transform="translate(-2212.021 -1769.226)"/></g><g transform="translate(76.73 106.033)"><path class="b" d="M2178.054,1808.4a1.386,1.386,0,0,1-.428-2.705,56.956,56.956,0,0,0,15.948-8.139,1.386,1.386,0,1,1,1.632,2.241,59.718,59.718,0,0,1-16.723,8.534A1.4,1.4,0,0,1,2178.054,1808.4Z" transform="translate(-2176.668 -1797.288)"/></g><g transform="translate(106.033 76.73)"><path class="b" d="M2241.469,1752.983a1.386,1.386,0,0,1-1.12-2.2,56.945,56.945,0,0,0,8.138-15.948,1.387,1.387,0,0,1,2.638.856,59.748,59.748,0,0,1-8.534,16.724A1.384,1.384,0,0,1,2241.469,1752.983Z" transform="translate(-2240.084 -1733.874)"/></g><g transform="translate(58.614 114.369)"><path class="b" d="M2138.85,1820.96a1.386,1.386,0,0,1,0-2.773,57.182,57.182,0,0,0,17.688-2.79,1.386,1.386,0,0,1,.856,2.637A59.961,59.961,0,0,1,2138.85,1820.96Z" transform="translate(-2137.464 -1815.33)"/></g><g transform="translate(78.116 4.244)"><path class="c" d="M2196.005,1585.344a58.424,58.424,0,0,0-16.336-8.336" transform="translate(-2179.669 -1577.008)"/></g><g transform="translate(107.42 25.548)"><path class="c" d="M2251.42,1639.447a58.422,58.422,0,0,0-8.336-16.336" transform="translate(-2243.084 -1623.111)"/></g><g transform="translate(94.453 12.581)"><path class="c" d="M2227.989,1608.016a58.947,58.947,0,0,0-12.967-12.967" transform="translate(-2215.022 -1595.049)"/></g><g transform="translate(24.162 106.032)"><path class="b" d="M2080.629,1808.4a1.4,1.4,0,0,1-.429-.068,59.721,59.721,0,0,1-16.723-8.534,1.386,1.386,0,1,1,1.632-2.242,56.945,56.945,0,0,0,15.948,8.139,1.386,1.386,0,0,1-.428,2.705Z" transform="translate(-2062.906 -1797.288)"/></g><g transform="translate(40.497 114.369)"><path class="b" d="M2117.761,1820.96a59.957,59.957,0,0,1-18.544-2.926,1.386,1.386,0,1,1,.857-2.637,57.177,57.177,0,0,0,17.688,2.79,1.386,1.386,0,0,1,0,2.773Z" transform="translate(-2098.258 -1815.33)"/></g><g transform="translate(114.369 58.614)"><path class="b" d="M2259.51,1715.558a1.4,1.4,0,0,1-.429-.068,1.387,1.387,0,0,1-.89-1.747,57.174,57.174,0,0,0,2.791-17.688,1.386,1.386,0,0,1,2.772,0,59.952,59.952,0,0,1-2.926,18.544A1.387,1.387,0,0,1,2259.51,1715.558Z" transform="translate(-2258.123 -1694.669)"/></g><g transform="translate(115.756 41.884)"><path class="c" d="M2261.124,1658.464a58.545,58.545,0,0,1,2.858,18.116" transform="translate(-2261.124 -1658.464)"/></g><g transform="translate(2.858 76.73)"><path class="b" d="M2026.527,1752.983a1.384,1.384,0,0,1-1.122-.571,59.735,59.735,0,0,1-8.534-16.724,1.386,1.386,0,1,1,2.637-.856,56.959,56.959,0,0,0,8.139,15.948,1.387,1.387,0,0,1-1.12,2.2Z" transform="translate(-2016.802 -1733.874)"/></g><g transform="translate(11.194 93.066)"><path class="b" d="M2049.2,1784.966a1.378,1.378,0,0,1-.814-.265,60.208,60.208,0,0,1-13.273-13.272,1.386,1.386,0,0,1,2.242-1.632,57.429,57.429,0,0,0,12.662,12.662,1.386,1.386,0,0,1-.818,2.507Z" transform="translate(-2034.843 -1769.226)"/></g><g transform="translate(58.614 0)"><path class="b" d="M2156.967,1573.454a1.4,1.4,0,0,1-.429-.068,57.179,57.179,0,0,0-17.688-2.791,1.386,1.386,0,0,1,0-2.772,59.947,59.947,0,0,1,18.544,2.926,1.386,1.386,0,0,1-.428,2.7Z" transform="translate(-2137.464 -1567.823)"/></g><g transform="translate(0 40.498)"><path class="b" d="M2012,1676.353a1.386,1.386,0,0,1-1.386-1.386,59.955,59.955,0,0,1,2.926-18.544,1.386,1.386,0,0,1,2.637.857,57.174,57.174,0,0,0-2.791,17.688A1.386,1.386,0,0,1,2012,1676.353Z" transform="translate(-2010.618 -1655.464)"/></g><g transform="translate(11.194 11.194)"><path class="b" d="M2036.228,1607.789a1.387,1.387,0,0,1-1.12-2.2,60.229,60.229,0,0,1,13.273-13.272,1.386,1.386,0,0,1,1.632,2.242,57.44,57.44,0,0,0-12.662,12.662A1.385,1.385,0,0,1,2036.228,1607.789Z" transform="translate(-2034.843 -1592.049)"/></g><g transform="translate(0 58.614)"><path class="b" d="M2014.862,1715.558a1.387,1.387,0,0,1-1.318-.958,59.948,59.948,0,0,1-2.926-18.544,1.386,1.386,0,0,1,2.773,0,57.173,57.173,0,0,0,2.791,17.688,1.387,1.387,0,0,1-1.319,1.815Z" transform="translate(-2010.618 -1694.669)"/></g><g transform="translate(2.858 24.161)"><path class="b" d="M2018.19,1639.219a1.387,1.387,0,0,1-1.319-1.815,59.743,59.743,0,0,1,8.534-16.724,1.386,1.386,0,0,1,2.242,1.632,56.957,56.957,0,0,0-8.139,15.949A1.388,1.388,0,0,1,2018.19,1639.219Z" transform="translate(-2016.802 -1620.11)"/></g><g transform="translate(24.162 2.858)"><path class="b" d="M2064.293,1585.117a1.386,1.386,0,0,1-.817-2.507,59.717,59.717,0,0,1,16.723-8.534,1.386,1.386,0,0,1,.857,2.637,56.922,56.922,0,0,0-15.948,8.139A1.381,1.381,0,0,1,2064.293,1585.117Z" transform="translate(-2062.906 -1574.009)"/></g><g transform="translate(41.884 1.386)"><path class="c" d="M2119.375,1570.823a58.562,58.562,0,0,0-18.116,2.858" transform="translate(-2101.259 -1570.823)"/></g><g transform="translate(29.393 35.358)"><g class="d" transform="translate(0 0)"><text class="e" transform="translate(0 31)"><tspan x="0" y="0">95%</tspan></text><text class="f" transform="translate(4.218 39.256)"><tspan x="0" y="0">Completado</tspan></text></g></g></svg>