<svg xmlns="http://www.w3.org/2000/svg" width="120" height="120" viewBox="0 0 120 120"><defs><style>.a{fill:#378ef0;}.b{fill:#1a65a5;}</style></defs><g transform="translate(-2 -2)"><path class="a" d="M118.966,108.793H94.552a2.034,2.034,0,0,0-2.034,2.034v8.138A2.034,2.034,0,0,0,94.552,121h24.414A2.034,2.034,0,0,0,121,118.966v-8.138A2.034,2.034,0,0,0,118.966,108.793Zm-44.759,0H49.793a2.034,2.034,0,0,0-2.034,2.034v8.138A2.034,2.034,0,0,0,49.793,121H74.207a2.034,2.034,0,0,0,2.034-2.034v-8.138A2.034,2.034,0,0,0,74.207,108.793Zm-44.759,0H5.034A2.034,2.034,0,0,0,3,110.828v8.138A2.034,2.034,0,0,0,5.034,121H29.448a2.034,2.034,0,0,0,2.034-2.034v-8.138A2.034,2.034,0,0,0,29.448,108.793ZM118.966,3H94.552a2.034,2.034,0,0,0-2.034,2.034v8.138a2.034,2.034,0,0,0,2.034,2.034h24.414A2.034,2.034,0,0,0,121,13.172V5.034A2.034,2.034,0,0,0,118.966,3ZM49.793,15.207H74.207a2.034,2.034,0,0,0,2.034-2.034V5.034A2.034,2.034,0,0,0,74.207,3H49.793a2.034,2.034,0,0,0-2.034,2.034v8.138A2.034,2.034,0,0,0,49.793,15.207ZM29.448,3H5.034A2.034,2.034,0,0,0,3,5.034v8.138a2.034,2.034,0,0,0,2.034,2.034H29.448a2.034,2.034,0,0,0,2.034-2.034V5.034A2.034,2.034,0,0,0,29.448,3ZM83.688,56.568a22.463,22.463,0,0,0-2.5-6.063,6.053,6.053,0,0,1-7.69-7.69,22.463,22.463,0,0,0-6.063-2.5,6.057,6.057,0,0,1-10.864,0,22.463,22.463,0,0,0-6.063,2.5,6.053,6.053,0,0,1-7.69,7.69,22.463,22.463,0,0,0-2.5,6.063,6.057,6.057,0,0,1,0,10.864,22.463,22.463,0,0,0,2.5,6.063,6.053,6.053,0,0,1,7.69,7.69,22.463,22.463,0,0,0,6.063,2.5,6.057,6.057,0,0,1,10.864,0,22.463,22.463,0,0,0,6.063-2.5,6.053,6.053,0,0,1,7.69-7.69,22.463,22.463,0,0,0,2.5-6.063,6.057,6.057,0,0,1,0-10.864ZM62,72.172A10.172,10.172,0,1,1,72.172,62,10.172,10.172,0,0,1,62,72.172Z" transform="translate(0 0)"/><path class="b" d="M26,32a6,6,0,1,0,6-6,6,6,0,0,0-6,6Zm10,0a4,4,0,1,1-4-4A4,4,0,0,1,36,32Z" transform="translate(30 30)"/><path class="b" d="M106,30a2,2,0,0,0,2-2V18h10a4,4,0,0,0,4-4V6a4,4,0,0,0-4-4H94a4,4,0,0,0-4,4v8a4,4,0,0,0,4,4h10v8H64V18H74a4,4,0,0,0,4-4V6a4,4,0,0,0-4-4H50a4,4,0,0,0-4,4v8a4,4,0,0,0,4,4H60v8H20V18H30a4,4,0,0,0,4-4V6a4,4,0,0,0-4-4H6A4,4,0,0,0,2,6v8a4,4,0,0,0,4,4H16V28a2,2,0,0,0,2,2H60V41.44a4.028,4.028,0,0,1-1.556-1.66,2,2,0,0,0-2.27-1.04,23.858,23.858,0,0,0-6.5,2.692,2,2,0,0,0-.87,2.344A3.954,3.954,0,0,1,43.778,48.8a2,2,0,0,0-2.344.87,23.8,23.8,0,0,0-2.694,6.5,2,2,0,0,0,1.044,2.27,3.958,3.958,0,0,1,0,7.108,2,2,0,0,0-1.044,2.27,23.8,23.8,0,0,0,2.694,6.5,2,2,0,0,0,2.344.87A3.954,3.954,0,0,1,48.8,80.224a2,2,0,0,0,.87,2.344,23.858,23.858,0,0,0,6.5,2.692,2,2,0,0,0,2.27-1.04A4.028,4.028,0,0,1,60,82.56V94H18a2,2,0,0,0-2,2v10H6a4,4,0,0,0-4,4v8a4,4,0,0,0,4,4H30a4,4,0,0,0,4-4v-8a4,4,0,0,0-4-4H20V98H60v8H50a4,4,0,0,0-4,4v8a4,4,0,0,0,4,4H74a4,4,0,0,0,4-4v-8a4,4,0,0,0-4-4H64V98h40v8H94a4,4,0,0,0-4,4v8a4,4,0,0,0,4,4h24a4,4,0,0,0,4-4v-8a4,4,0,0,0-4-4H108V96a2,2,0,0,0-2-2H64V82.56a4.028,4.028,0,0,1,1.556,1.66,2,2,0,0,0,2.27,1.04,23.786,23.786,0,0,0,6.5-2.692,2,2,0,0,0,.87-2.344A3.954,3.954,0,0,1,80.222,75.2a2,2,0,0,0,2.344-.87,23.8,23.8,0,0,0,2.694-6.5,2,2,0,0,0-1.042-2.27,3.958,3.958,0,0,1,0-7.108,2,2,0,0,0,1.044-2.27,23.8,23.8,0,0,0-2.694-6.5,2,2,0,0,0-2.344-.87A3.954,3.954,0,0,1,75.2,43.776a2,2,0,0,0-.87-2.344,23.858,23.858,0,0,0-6.5-2.692,2,2,0,0,0-2.27,1.04A4.028,4.028,0,0,1,64,41.44V30ZM94,6h24v8H94ZM50,6H74v8H50ZM6,6H30v8H6ZM30,118H6v-8H30Zm44,0H50v-8H74Zm44,0H94v-8h24ZM68.2,43a20.018,20.018,0,0,1,2.826,1.17,7.946,7.946,0,0,0,8.784,8.784,19.617,19.617,0,0,1,1.168,2.824,7.948,7.948,0,0,0,0,12.422,19.881,19.881,0,0,1-1.17,2.826,7.946,7.946,0,0,0-8.784,8.784A19.785,19.785,0,0,1,68.2,81a7.944,7.944,0,0,0-12.42,0,19.922,19.922,0,0,1-2.826-1.17,7.946,7.946,0,0,0-8.784-8.784A19.617,19.617,0,0,1,43,68.222,7.952,7.952,0,0,0,43,55.8a19.617,19.617,0,0,1,1.168-2.824,7.946,7.946,0,0,0,8.784-8.784,19.922,19.922,0,0,1,2.826-1.17,7.944,7.944,0,0,0,12.42,0Z"/><rect class="b" width="2" height="2" transform="translate(6 5)"/><rect class="b" width="2" height="2" transform="translate(9 5)"/><rect class="b" width="2" height="2" transform="translate(12 5)"/><rect class="b" width="2" height="2" transform="translate(54.897 5)"/><rect class="b" width="2" height="2" transform="translate(61 5)"/><rect class="b" width="2" height="2" transform="translate(67.103 5)"/><rect class="b" width="2" height="2" transform="translate(110 5)"/><rect class="b" width="2" height="2" transform="translate(113 5)"/><rect class="b" width="2" height="2" transform="translate(116 5)"/><rect class="b" width="2" height="2" transform="translate(110 117)"/><rect class="b" width="2" height="2" transform="translate(113 117)"/><rect class="b" width="2" height="2" transform="translate(116 117)"/><rect class="b" width="2" height="2" transform="translate(54.897 117)"/><rect class="b" width="2" height="2" transform="translate(61 117)"/><rect class="b" width="2" height="2" transform="translate(67.103 117)"/><rect class="b" width="2" height="2" transform="translate(6 117)"/><rect class="b" width="2" height="2" transform="translate(9 117)"/><rect class="b" width="2" height="2" transform="translate(12 117)"/></g></svg>