<svg xmlns="http://www.w3.org/2000/svg" width="120" height="113.382" viewBox="0 0 120 113.382"><defs><style>.a{fill:#1a65a5;}</style></defs><path class="a" d="M92.091,32.722H88.129v-3.23a20.785,20.785,0,1,0-41.57,0v3.22H42.592a3.651,3.651,0,0,0-3.651,3.651V72.116a3.651,3.651,0,0,0,3.651,3.651h49.5a3.651,3.651,0,0,0,3.651-3.651V36.372A3.651,3.651,0,0,0,92.091,32.722Zm-8.518,7.3V59.211c0,3.071-1,9.21-5.111,9.21v.034H46.247V40.023ZM53.86,29.492a13.483,13.483,0,1,1,26.967,0v3.22H53.86Zm-43.1,73.295,2.765-2.762-2.765-2.765A3.651,3.651,0,1,1,15.927,92.1l2.762,2.762L21.454,92.1a3.65,3.65,0,1,1,5.163,5.163l-2.765,2.764,2.765,2.762a3.65,3.65,0,1,1-5.163,5.163l-2.764-2.763-2.762,2.762a3.651,3.651,0,1,1-5.165-5.162Zm19.266,15.652a3.651,3.651,0,0,1-3.651,3.651H11a3.651,3.651,0,1,1,0-7.3H26.378A3.651,3.651,0,0,1,30.028,118.439ZM43.2,102.787l2.762-2.762L43.2,97.259A3.651,3.651,0,0,1,48.36,92.1l2.762,2.762L53.887,92.1A3.65,3.65,0,1,1,59.05,97.26l-2.763,2.764,2.762,2.762a3.65,3.65,0,1,1-5.163,5.163l-2.764-2.763-2.762,2.762a3.65,3.65,0,1,1-5.163-5.163Zm19.276,15.652a3.651,3.651,0,0,1-3.651,3.651H43.439a3.651,3.651,0,0,1,0-7.3H58.826A3.651,3.651,0,0,1,62.476,118.439Zm13.172-15.652,2.762-2.762-2.762-2.765A3.65,3.65,0,1,1,80.811,92.1l2.764,2.763L86.328,92.1A3.65,3.65,0,1,1,91.49,97.26l-2.763,2.764,2.762,2.762a3.65,3.65,0,1,1-5.163,5.163l-2.762-2.763L80.8,107.949a3.65,3.65,0,1,1-5.163-5.163Zm19.264,15.652a3.651,3.651,0,0,1-3.651,3.651H75.874a3.651,3.651,0,0,1,0-7.3H91.249a3.651,3.651,0,0,1,3.651,3.651Zm13.172-15.652,2.765-2.762-2.765-2.765a3.65,3.65,0,1,1,5.163-5.163l2.764,2.763,2.762-2.762a3.651,3.651,0,1,1,5.165,5.162l-2.765,2.765,2.765,2.762a3.651,3.651,0,1,1-5.165,5.162l-2.762-2.762-2.765,2.762a3.65,3.65,0,1,1-5.163-5.163Zm19.266,15.652a3.651,3.651,0,0,1-3.651,3.651H108.31a3.651,3.651,0,0,1,0-7.3h15.377a3.651,3.651,0,0,1,3.651,3.651Z" transform="translate(-7.35 -8.707)"/></svg>