<svg xmlns="http://www.w3.org/2000/svg" width="147.814" height="147.813" viewBox="0 0 147.814 147.813"><defs><style>.a{fill:#1a65a5;}.b{fill:#378ef0;}</style></defs><g transform="translate(17.597)"><path class="a" d="M208.606,128.453q-1.531.371-3.109.621a2.142,2.142,0,0,0,.674,4.231q1.738-.276,3.439-.689a2.141,2.141,0,1,0-1-4.163Z" transform="translate(-141.254 13.928)"/><path class="a" d="M197.445,129.08q-1.576-.251-3.114-.619a2.142,2.142,0,0,0-1,4.166q1.7.406,3.439.682a2.141,2.141,0,1,0,.672-4.23Z" transform="translate(-149.174 13.935)"/><path class="a" d="M202.845,129.119h-3.074a2.054,2.054,0,0,0-2.035,2.141,2.236,2.236,0,0,0,2.248,2.143h2.9l.227-2.145V133.4a2.032,2.032,0,0,0,2.008-2.141A2.26,2.26,0,0,0,202.845,129.119Z" transform="translate(-145.184 14.409)"/><path class="a" d="M192.025,127.876q-1.476-.6-2.893-1.315a2.141,2.141,0,1,0-1.921,3.828q1.564.787,3.19,1.452a2.145,2.145,0,0,0,2.8-1.17A2.146,2.146,0,0,0,192.025,127.876Z" transform="translate(-152.91 12.569)"/><path class="a" d="M179.234,117.619q-.762-1.387-1.416-2.84a2.143,2.143,0,0,0-3.906,1.763q.727,1.6,1.567,3.136a2.141,2.141,0,1,0,3.755-2.058Z" transform="translate(-161.031 4.114)"/><path class="a" d="M180.657,119.531a2.142,2.142,0,1,0-3.4,2.6q1.061,1.389,2.228,2.7a2.142,2.142,0,0,0,3.2-2.848C181.978,121.191,181.3,120.374,180.657,119.531Z" transform="translate(-158.991 7.527)"/><path class="a" d="M184.494,123.527a2.142,2.142,0,0,0-2.731,3.3q1.344,1.113,2.772,2.13a2.142,2.142,0,1,0,2.483-3.491Q185.719,124.542,184.494,123.527Z" transform="translate(-156.237 10.394)"/><path class="a" d="M176.864,112.6q-.423-1.524-.732-3.091a2.142,2.142,0,0,0-4.2.827q.339,1.728.808,3.41a2.139,2.139,0,0,0,2.062,1.569,2.116,2.116,0,0,0,.573-.078A2.142,2.142,0,0,0,176.864,112.6Z" transform="translate(-162.242 0.329)"/><path class="a" d="M227.227,113.68a2.145,2.145,0,0,0-2.834,1.074q-.655,1.449-1.414,2.843a2.141,2.141,0,0,0,.852,2.907,2.116,2.116,0,0,0,1.026.262,2.139,2.139,0,0,0,1.881-1.114q.839-1.539,1.562-3.139A2.145,2.145,0,0,0,227.227,113.68Z" transform="translate(-128.699 4.096)"/><path class="a" d="M221.81,119.512q-.964,1.265-2.02,2.453a2.142,2.142,0,1,0,3.2,2.847q1.163-1.307,2.226-2.7a2.141,2.141,0,1,0-3.406-2.6Z" transform="translate(-130.988 7.511)"/><path class="a" d="M228.3,107.79a2.137,2.137,0,0,0-2.511,1.691q-.306,1.566-.727,3.091a2.141,2.141,0,0,0,1.5,2.634,2.187,2.187,0,0,0,.571.076,2.145,2.145,0,0,0,2.063-1.574q.463-1.678.8-3.408A2.139,2.139,0,0,0,228.3,107.79Z" transform="translate(-127.205 0.307)"/><path class="a" d="M218.182,123.513q-1.223,1.016-2.521,1.94a2.142,2.142,0,1,0,2.487,3.488q1.429-1.016,2.774-2.135a2.142,2.142,0,0,0-2.739-3.293Z" transform="translate(-133.947 10.381)"/><path class="a" d="M213.707,126.546q-1.414.712-2.888,1.318a2.142,2.142,0,1,0,1.627,3.962q1.623-.665,3.185-1.452a2.142,2.142,0,1,0-1.924-3.828Z" transform="translate(-137.427 12.562)"/><path class="a" d="M278.7,111.208l-.022-17.321a11.057,11.057,0,0,0-9.324-10.941,23.333,23.333,0,0,0,.206-2.926V44.794a2.142,2.142,0,0,0-3.682-1.489l-6,6.208a24.222,24.222,0,0,1-17.333,7.355h-45.27a23.02,23.02,0,0,0-22.927,26.239,11.043,11.043,0,0,0-8.268,10.78v17.328l.022,17.321a11.1,11.1,0,0,0,8.811,10.889V144.5c0,.6.012,1.2.035,1.8a2.142,2.142,0,0,0,2.138,2.06c.028,0,.055,0,.085,0a2.144,2.144,0,0,0,2.058-2.223c-.022-.543-.033-1.086-.033-1.633v-6.817c0-.06.035-.111.035-.173s-.03-.115-.035-.174V117.76a41.4,41.4,0,0,1,4.673-18.915,23.02,23.02,0,0,0,13.407,4.327H246.4a23.015,23.015,0,0,0,14.153-4.87,41.419,41.419,0,0,1,4.865,19.458V144.5c0,.548-.012,1.091-.032,1.633a2.142,2.142,0,0,0,2.058,2.223c.028,0,.055,0,.083,0a2.142,2.142,0,0,0,2.138-2.06c.023-.6.035-1.2.035-1.8v-5.055a11.084,11.084,0,0,0,8.97-10.9l.022-17.325v-.007Zm-81.425-12.32a18.807,18.807,0,0,1-12.69-4.937,1.812,1.812,0,0,0-.188-.113c-.058-.043-.095-.106-.159-.144a1.924,1.924,0,0,0-.188-.065,1.987,1.987,0,0,0-.435-.151,1.96,1.96,0,0,0-.805-.027,2.135,2.135,0,0,0-.352.086,2.014,2.014,0,0,0-.4.188,1.929,1.929,0,0,0-.317.231,2.092,2.092,0,0,0-.184.134,1.9,1.9,0,0,0-.124.207c-.04.055-.1.088-.133.146a45.754,45.754,0,0,0-6.391,23.315v17.2a6.811,6.811,0,0,1-4.528-6.431l-.022-17.325V93.887a6.671,6.671,0,0,1,6.485-6.827,1.962,1.962,0,0,0,.242-.05.553.553,0,0,0,.41-.083,2.006,2.006,0,0,0,.41-.191,2.033,2.033,0,0,0,.31-.209,2.073,2.073,0,0,0,.294-.32,1.954,1.954,0,0,0,.209-.31,2.709,2.709,0,0,0,.229-.793c.005-.063.036-.12.036-.186a1.863,1.863,0,0,0-.055-.271,2.14,2.14,0,0,0-.008-.231,18.867,18.867,0,0,1,18.349-23.264h45.27a28.532,28.532,0,0,0,20.414-8.662l2.317-2.4v29.93A18.888,18.888,0,0,1,246.4,98.888Zm72.433,36.125V117.76a45.7,45.7,0,0,0-5.938-22.476,23.133,23.133,0,0,0,4.659-8.15,6.774,6.774,0,0,1,5.966,6.756l.022,17.321-.022,17.325A6.8,6.8,0,0,1,269.705,135.014Z" transform="translate(-166.077 -42.653)"/><path class="a" d="M193,120.76a25.274,25.274,0,0,0,11.845,2.92,25.637,25.637,0,0,0,11.847-2.92,2.144,2.144,0,0,0-1.992-3.8,21.273,21.273,0,0,1-19.712,0,2.143,2.143,0,0,0-1.989,3.8Z" transform="translate(-149.069 6.225)"/><path class="a" d="M188.565,104.3V96.272a2.142,2.142,0,0,0-4.284,0V104.3a2.142,2.142,0,1,0,4.284,0Z" transform="translate(-154.064 -8.681)"/><path class="a" d="M216.775,96.272a2.141,2.141,0,0,0-4.283,0V104.3a2.141,2.141,0,1,0,4.283,0Z" transform="translate(-135.446 -8.681)"/></g><g transform="translate(0 0)"><path class="b" d="M251.3,42.653H233.153a2.141,2.141,0,1,0,0,4.283h16.005V62.942a2.142,2.142,0,0,0,4.284,0V44.794A2.141,2.141,0,0,0,251.3,42.653Z" transform="translate(-105.629 -42.653)"/><path class="b" d="M157.617,65.084a2.142,2.142,0,0,0,2.143-2.141V46.936h16.005a2.141,2.141,0,1,0,0-4.283H157.617a2.141,2.141,0,0,0-2.141,2.141V62.942A2.141,2.141,0,0,0,157.617,65.084Z" transform="translate(-155.476 -42.653)"/><path class="b" d="M175.765,136.334H159.76V120.327a2.142,2.142,0,0,0-4.284,0v18.148a2.143,2.143,0,0,0,2.141,2.143h18.148a2.142,2.142,0,1,0,0-4.284Z" transform="translate(-155.476 7.194)"/><path class="b" d="M251.3,118.186a2.143,2.143,0,0,0-2.143,2.141v16.007H233.153a2.142,2.142,0,1,0,0,4.284H251.3a2.143,2.143,0,0,0,2.141-2.143V120.327A2.142,2.142,0,0,0,251.3,118.186Z" transform="translate(-105.629 7.194)"/><path class="b" d="M301.149,102.688H157.617a2.141,2.141,0,1,0,0,4.283H301.149a2.141,2.141,0,1,0,0-4.283Z" transform="translate(-155.476 -3.034)"/></g></svg>