<svg xmlns="http://www.w3.org/2000/svg" width="179.974" height="180" viewBox="0 0 179.974 180"><defs><style>.a{fill:#1c75b5;}.b{fill:#378ef0;}</style></defs><g transform="translate(208.93 -111.688)"><path class="a" d="M-33.431,195.357-60.715,222.2a6.725,6.725,0,0,1-4.788,1.987h0a6.754,6.754,0,0,1-4.8-1.987l-26.887-26.848a6.718,6.718,0,0,1-1.614-2.57.565.565,0,0,0-.042-.112,6.727,6.727,0,0,1,1.649-6.9l67.494-66.7a2.645,2.645,0,0,0-.055-3.744,2.654,2.654,0,0,0-3.678-.015l-67.494,66.724A12.118,12.118,0,0,0-104.448,191h-2.858a17.017,17.017,0,0,0-12.655,5.655l-.313.351a34.286,34.286,0,0,0-13.51-3.479,12.032,12.032,0,0,0-3.16-11.5L-204.435,114.9a2.638,2.638,0,0,0-3.728.01,2.629,2.629,0,0,0,.009,3.723l67.494,67.12a6.79,6.79,0,0,1,0,9.594L-167.543,222.2a6.812,6.812,0,0,1-9.6,0l-27.28-27.333a2.639,2.639,0,0,0-3.725.149,2.629,2.629,0,0,0-.008,3.562l27.27,27.343a12.045,12.045,0,0,0,8.532,3.51,12.3,12.3,0,0,0,2.97-.372,34.676,34.676,0,0,0,.471,4.247,10.482,10.482,0,0,0-2.833,2.019l-5.171,5.174a10.47,10.47,0,0,0-.031,14.819,10.5,10.5,0,0,0,7.448,3.084c.214,0,.426,0,.64-.021,0,.21-.021.422-.021.635A10.482,10.482,0,0,0-158.4,269.494h0c.218,0,.432,0,.647-.021a10.474,10.474,0,0,0,9.813,11.1q.325.02.652.02a5.5,5.5,0,0,0,.643-.024,10.48,10.48,0,0,0,9.822,11.1,10.5,10.5,0,0,0,8.065-3.049l3.206-3.2,3.206,3.2a10.5,10.5,0,0,0,14.839-.005,10.474,10.474,0,0,0,3.071-7.4c0-.214,0-.429-.021-.643.211,0,.426.021.636.021A10.476,10.476,0,0,0-93.322,270.13v-.013q0-.326-.021-.643c.214,0,.426.021.64.021A10.476,10.476,0,0,0-82.21,259.035v-.016c0-.214,0-.429-.021-.643.211,0,.426.021.636.021a10.481,10.481,0,0,0,10.5-10.467,10.465,10.465,0,0,0-3.075-7.418l-2.633-2.63a34.6,34.6,0,0,0,8.067-8.857,12.172,12.172,0,0,0,3.224.435h0a11.96,11.96,0,0,0,8.51-3.511l27.27-26.827a2.63,2.63,0,0,0-.076-3.722,2.639,2.639,0,0,0-3.622-.028ZM-169.5,253.124a5.215,5.215,0,0,1-5.217-5.215,5.208,5.208,0,0,1,1.527-3.683l5.175-5.168a5.226,5.226,0,0,1,7.38-.18,5.207,5.207,0,0,1,.18,7.37c-.059.062-.119.121-.18.18l-5.175,5.167a5.193,5.193,0,0,1-3.69,1.528Zm14.8,9.566a5.225,5.225,0,0,1-7.38.18,5.208,5.208,0,0,1-.18-7.37c.059-.061.119-.121.18-.18l5.182-5.163a5.226,5.226,0,0,1,7.38-.18,5.207,5.207,0,0,1,.18,7.37c-.059.062-.119.121-.18.18Zm11.112,11.1a5.224,5.224,0,0,1-7.38,0l-1.863,1.86,1.863-1.86a5.215,5.215,0,0,1,0-7.37l5.175-5.168a5.226,5.226,0,0,1,7.38-.18,5.207,5.207,0,0,1,.18,7.37c-.059.061-.119.121-.18.18Zm16.283,5.925-5.175,5.168a5.224,5.224,0,0,1-7.38,0l-1.868,1.862,1.863-1.86a5.218,5.218,0,0,1,0-7.37l5.175-5.164a5.226,5.226,0,0,1,7.38-.18,5.207,5.207,0,0,1,.18,7.37c-.059.061-.119.121-.18.18Zm50.934-31.8a5.216,5.216,0,0,1-5.222,5.211,5.223,5.223,0,0,1-3.688-1.526l-16.874-16.851a2.64,2.64,0,0,0-3.73,0,2.632,2.632,0,0,0,0,3.724h0l16.874,16.851a5.207,5.207,0,0,1,.18,7.37,5.224,5.224,0,0,1-7.38.18c-.061-.058-.121-.118-.18-.18h0l-16.874-16.851a2.638,2.638,0,0,0-3.726-.123,2.63,2.63,0,0,0-.124,3.721c.035.036.07.072.106.106l16.877,16.854a5.207,5.207,0,0,1,.18,7.37,5.224,5.224,0,0,1-7.38.18c-.061-.058-.121-.118-.18-.18l-16.88-16.848a2.64,2.64,0,0,0-3.729,0,2.631,2.631,0,0,0,0,3.724h0l16.874,16.85a5.207,5.207,0,0,1,.18,7.37,5.224,5.224,0,0,1-7.38.18c-.061-.058-.121-.118-.18-.18l-3.414-3.409a10.47,10.47,0,0,0-3.519-14.4,10.507,10.507,0,0,0-5.453-1.523c-.214,0-.426,0-.64.021,0-.214.021-.425.021-.639a10.483,10.483,0,0,0-10.472-10.454c-.214,0-.429,0-.64.021,0-.21.021-.425.021-.635a10.482,10.482,0,0,0-10.488-10.476h0c-.214,0-.426,0-.636.021,0-.21.021-.425.021-.639a10.492,10.492,0,0,0-9.91-10.461,28.726,28.726,0,0,1-.376-6.087l.288-.278,26.89-26.847c.094-.094.18-.193.27-.291a28.866,28.866,0,0,1,12.708,2.317l-14.663,16.357a7.586,7.586,0,0,0,.288,10.425,13.679,13.679,0,0,0,19.309,0l12.392-12.36.97.969,27.776,27.738a5.163,5.163,0,0,1,1.518,3.679Zm.826-18.5a29.864,29.864,0,0,1-5.017,4.708l-10.6-10.584-13.23-13.212h0l-.38-.376a2.636,2.636,0,0,0-3.724,0l0,0-14.24,14.218a8.4,8.4,0,0,1-11.85,0,2.319,2.319,0,0,1-.09-3.194l18.63-20.8a11.742,11.742,0,0,1,8.735-3.9h4.285a11.923,11.923,0,0,0,2.11,2.809l26.888,26.848c.211.207.426.4.647.6a30.432,30.432,0,0,1-2.16,2.889Z"/><g transform="translate(-148.28 111.688)"><path class="b" d="M-108.937,111.688a29.342,29.342,0,0,0-29.342,29.342h0a29.342,29.342,0,0,0,29.341,29.341h0A29.342,29.342,0,0,0-79.6,141.03,29.342,29.342,0,0,0-108.937,111.688Zm0,52.826a23.483,23.483,0,0,1-23.483-23.483,23.483,23.483,0,0,1,23.482-23.483h0a23.483,23.483,0,0,1,23.483,23.483A23.483,23.483,0,0,1-108.937,164.514Z" transform="translate(138.279 -111.688)"/><path class="b" d="M-99.319,130.769l-14.306,14.312-4.933-4.925a2.931,2.931,0,0,0-4.144,0,2.931,2.931,0,0,0,0,4.144l5.613,5.613a4.893,4.893,0,0,0,6.914,0l15-15a2.931,2.931,0,0,0,0-4.144A2.931,2.931,0,0,0-99.319,130.769Z" transform="translate(138.279 -111.688)"/></g></g></svg>