<svg xmlns="http://www.w3.org/2000/svg" width="19.717" height="23.867" viewBox="0 0 19.717 23.867"><defs><style>.a{fill:#fff;}</style></defs><path class="a" d="M30.122,32.867H15.594A2.594,2.594,0,0,1,13,30.273V11.594A2.594,2.594,0,0,1,15.594,9H30.122a2.594,2.594,0,0,1,2.594,2.594V30.273A2.594,2.594,0,0,1,30.122,32.867ZM15.594,10.038a1.557,1.557,0,0,0-1.557,1.557V30.273a1.557,1.557,0,0,0,1.557,1.557H30.122a1.557,1.557,0,0,0,1.557-1.557V11.594a1.557,1.557,0,0,0-1.557-1.557Z" transform="translate(-13 -9)"/><path class="a" d="M25.632,34.038H22.519a.519.519,0,1,1,0-1.038h3.113a.519.519,0,0,1,0,1.038Z" transform="translate(-17.33 -20.547)"/><path class="a" d="M24.5,34.151a.519.519,0,0,1-.519-.519V30.519a.519.519,0,0,1,1.038,0v3.113A.519.519,0,0,1,24.5,34.151Zm7.783-1.557H29.166a.519.519,0,1,1,0-1.038h3.113a.519.519,0,1,1,0,1.038ZM23.4,38.883A.519.519,0,0,1,23.028,38l2.2-2.2a.521.521,0,0,1,.737.737l-2.2,2.2A.519.519,0,0,1,23.4,38.883Z" transform="translate(-17.751 -19.104)"/><path class="a" d="M25.6,44.116a.519.519,0,0,1-.368-.15l-2.2-2.2a.521.521,0,0,1,.737-.737l2.2,2.2a.519.519,0,0,1-.368.887Zm4.026,0a.519.519,0,0,1-.368-.887l2.2-2.2a.521.521,0,1,1,.737.737l-2.2,2.2A.519.519,0,0,1,29.623,44.116Z" transform="translate(-17.752 -24.336)"/><circle class="a" cx="0.519" cy="0.519" r="0.519" transform="translate(11.415 16.604)"/><circle class="a" cx="0.519" cy="0.519" r="0.519" transform="translate(13.49 18.68)"/><path class="a" d="M31.953,20.189H20.019a.519.519,0,0,1-.519-.519V15.519a.519.519,0,1,1,1.038,0v3.632h10.9V16.038H22.094a.519.519,0,1,1,0-1.038h9.858a.519.519,0,0,1,.519.519V19.67A.519.519,0,0,1,31.953,20.189Z" transform="translate(-16.127 -11.887)"/></svg>