<svg xmlns="http://www.w3.org/2000/svg" width="112.301" height="112.301" viewBox="0 0 112.301 112.301"><defs><style>.a{fill:#1a65a5;stroke:#1a65a5;}.b{fill:#378ef0;stroke:#378ef0;}</style></defs><g transform="translate(-3.019 -3.102)"><path class="a" d="M100.288,96.737A55.646,55.646,0,1,0,3.519,59.252,55.212,55.212,0,0,0,20.42,99.2c.013.013.031.017.044.029a1.784,1.784,0,0,0,.509.33c.032.014.066.144.1.156.193.07.393.237.6.237h0c.175,0,.348-.156.515-.207.031-.01.062-.077.093-.089a1.924,1.924,0,0,0,.463-.28c.011-.008.025-.025.035-.034,6.368-4.987,7.227-11.092,7.227-16.4,0-.014,0-.031,0-.044a1.614,1.614,0,0,0-.02-.2c-.007-.053-.012-.107-.024-.158s-.034-.114-.052-.17-.034-.111-.058-.163-.054-.1-.081-.151a1.656,1.656,0,0,0-.086-.149c-.035-.049-.075-.093-.115-.139s-.068-.084-.107-.122-.091-.075-.138-.114a1.585,1.585,0,0,0-.137-.1,1.561,1.561,0,0,0-.139-.076,1.8,1.8,0,0,0-.181-.087c-.012,0-.023-.013-.036-.018a10.479,10.479,0,0,1-6.759-9.864V44.868a2.366,2.366,0,0,1,2.6-2.442h.995v14.38a1.8,1.8,0,0,0,3.6,0V39.218a2.875,2.875,0,0,1,2.954-2.7,2.941,2.941,0,0,1,.7.1c-.018.2-.055.4-.055.605V56.806a1.8,1.8,0,0,0,3.6,0V37.223a2.559,2.559,0,0,1,2.471-2.772,2.238,2.238,0,0,1,2,1.22,2.794,2.794,0,0,1,.324,1.554v2.8a1.73,1.73,0,0,0,.064.448,6.592,6.592,0,0,0-1.262,3.935V56.806a1.8,1.8,0,0,0,3.6,0V44.413a2.559,2.559,0,0,1,2.471-2.772,2.238,2.238,0,0,1,2,1.22,2.794,2.794,0,0,1,.324,1.554V52.8a6.361,6.361,0,0,0-3.6,5.695v6.7a1.8,1.8,0,0,0,3.6,0V58.5a2.881,2.881,0,0,1,5.758,0L54.179,72.77c0,3.6-2.421,6.211-4.451,7.766a7.282,7.282,0,0,1-2.62.847l-.143.029a1.755,1.755,0,0,0-.433.156,1.793,1.793,0,0,0-1.694,1.788v1.166c0,.769.216,1.473.21,2.355-.044,6.652-.659,14.416-6.473,21.571a1.8,1.8,0,0,0,.754,2.814,55.842,55.842,0,0,0,43.221-1.493,1.8,1.8,0,0,0,.743-2.622c-4.537-6.863-5.468-14.318-5.468-23.4a1.8,1.8,0,0,0-1.8-1.8,2,2,0,0,0-.3.029,1.75,1.75,0,0,0-.225-.023,10.361,10.361,0,0,1-10.289-10.41V66.964c0-3.31,2.1-5.365,5.479-5.365H84.984a1.8,1.8,0,0,0,1.8-1.8V44.7a2.422,2.422,0,1,1,4.793,0v8.368a6.5,6.5,0,0,0-3.6,5.59v6.533a1.8,1.8,0,0,0,3.6,0V58.662a3.178,3.178,0,0,1,6.3-.035l-.031,14.245A9.074,9.074,0,0,1,88.7,81.85a9.337,9.337,0,0,1-9.249-9.178,1.8,1.8,0,0,0-3.6,0A12.98,12.98,0,0,0,88.7,85.445a12.808,12.808,0,0,0,4.076-.672c.037,3.879.445,8.064,4.185,11.895a1.711,1.711,0,0,0,1.452,1.022,1.148,1.148,0,0,0,.187.04c.013,0,.026,0,.04,0s.047-.006.072-.007a1.771,1.771,0,0,0,1.576-.981Zm-35.077-37.1v-14.6c0-1.537,1.67-2.609,3.17-2.609h.425V58c0,.055.012.108.017.162A8.949,8.949,0,0,0,65.211,59.635ZM72.4,58V39.383a2.861,2.861,0,0,1,2.866-2.778,3.113,3.113,0,0,1,.79.109c-.022.224-.061.442-.061.675V58Zm10.785,0h-3.6V37.389a2.422,2.422,0,1,1,4.793,0v3.437a6.67,6.67,0,0,0-1.2,3.874ZM96.368,82.936V82.89a12.489,12.489,0,0,0,5.074-10.015l.031-14.244a6.62,6.62,0,0,0-6.3-6.331V44.7a6.052,6.052,0,0,0-5.992-6.368,6.129,6.129,0,0,0-1.2.121V37.392a6.052,6.052,0,0,0-5.992-6.368,5.775,5.775,0,0,0-4.665,2.325,6.745,6.745,0,0,0-2.056-.338,6.415,6.415,0,0,0-6.405,5.826c-.017,0-.035-.006-.054-.006h-.425c-3.667,0-6.765,2.841-6.765,6.2V71.543a13.973,13.973,0,0,0,12.615,13.94c.1,7.27.924,14.829,4.925,21.84a52.527,52.527,0,0,1-36.39,1.384c5.188-7.51,5.836-15.52,5.878-21.806,0-.793-.157-1.445-.2-2.127a8.521,8.521,0,0,0,3.467-1.382c3.778-2.9,5.859-6.669,5.859-10.619L57.787,58.5a6.416,6.416,0,0,0-5.758-6.327V44.415a6.245,6.245,0,0,0-.938-3.565,5.788,5.788,0,0,0-4.979-2.8,6.313,6.313,0,0,0-1.273.131v-.951A6.245,6.245,0,0,0,43.9,33.66a5.788,5.788,0,0,0-4.979-2.8,5.869,5.869,0,0,0-4.766,2.381,6.6,6.6,0,0,0-1.943-.319,6.45,6.45,0,0,0-6.529,5.915l-.019,0h-.995a5.917,5.917,0,0,0-6.2,6.037v26.51A14.125,14.125,0,0,0,26.392,84.1c-.12,3.9-.953,7.879-4.621,11.339a52.05,52.05,0,1,1,89.454-36.19A51.866,51.866,0,0,1,98.657,93.164C96.241,90.05,96.368,86.715,96.368,82.936Z" transform="translate(0 0)"/><path class="b" d="M60.028,19.324l-6.266,5.708a1.8,1.8,0,1,0,2.419,2.658l6.266-5.708a1.8,1.8,0,1,0-2.419-2.658Z" transform="translate(9.849 3.025)"/><path class="b" d="M49.92,14h-.007a1.851,1.851,0,0,0-1.8,1.851l-.036,8.538a1.626,1.626,0,0,0,1.789,1.594h.007a1.692,1.692,0,0,0,1.8-1.662l.036-8.348A1.946,1.946,0,0,0,49.92,14Z" transform="translate(8.838 2.062)"/><path class="b" d="M40.794,19.245a1.8,1.8,0,1,0-2.443,2.638l6.217,5.762a1.8,1.8,0,1,0,2.443-2.636Z" transform="translate(6.794 3.008)"/></g></svg>