<svg xmlns="http://www.w3.org/2000/svg" width="60" height="60" viewBox="0 0 60 60"><defs><style>.a,.d{fill:#378ef0;}.b{fill:#fcfdfe;}.c,.d{stroke:none;}</style></defs><g transform="translate(-28 -27)"><g transform="translate(28 27)"><g class="a"><path class="c" d="M 30 59 C 26.08457946777344 59 22.28681945800781 58.23337936401367 18.71220016479492 56.72145080566406 C 15.25901985168457 55.26087188720703 12.1575403213501 53.16973114013672 9.493900299072266 50.50609970092773 C 6.830269813537598 47.84246063232422 4.739130020141602 44.7409782409668 3.278549909591675 41.28779983520508 C 1.76662003993988 37.71318054199219 1 33.91542053222656 1 30 C 1 26.08457946777344 1.76662003993988 22.28681945800781 3.278549909591675 18.71220016479492 C 4.739130020141602 15.25901985168457 6.830269813537598 12.1575403213501 9.493900299072266 9.493900299072266 C 12.1575403213501 6.830269813537598 15.25901985168457 4.739130020141602 18.71220016479492 3.278549909591675 C 22.28681945800781 1.76662003993988 26.08457946777344 1 30 1 C 33.91542053222656 1 37.71318054199219 1.76662003993988 41.28779983520508 3.278549909591675 C 44.7409782409668 4.739130020141602 47.84246063232422 6.830269813537598 50.50609970092773 9.493900299072266 C 53.16973114013672 12.1575403213501 55.26087188720703 15.25901985168457 56.72145080566406 18.71220016479492 C 58.23337936401367 22.28681945800781 59 26.08457946777344 59 30 C 59 33.91542053222656 58.23337936401367 37.71318054199219 56.72145080566406 41.28779983520508 C 55.26087188720703 44.7409782409668 53.16973114013672 47.84246063232422 50.50609970092773 50.50609970092773 C 47.84246063232422 53.16973114013672 44.7409782409668 55.26087188720703 41.28779983520508 56.72145080566406 C 37.71318054199219 58.23337936401367 33.91542053222656 59 30 59 Z"/><path class="d" d="M 30 2 C 26.21913909912109 2 22.55244064331055 2.740039825439453 19.10174942016602 4.199558258056641 C 15.76776885986328 5.609710693359375 12.77312850952148 7.628890991210938 10.20101165771484 10.20101165771484 C 7.628890991210938 12.77312850952148 5.609710693359375 15.76776885986328 4.199558258056641 19.10174942016602 C 2.740039825439453 22.55244064331055 2 26.21913909912109 2 30 C 2 33.78086090087891 2.740039825439453 37.44755935668945 4.199558258056641 40.89825057983398 C 5.609710693359375 44.23223114013672 7.628890991210938 47.22686767578125 10.20101165771484 49.79898834228516 C 12.77312850952148 52.37110900878906 15.76776885986328 54.39028930664062 19.10174942016602 55.80043792724609 C 22.55244064331055 57.25996017456055 26.21913909912109 58 30 58 C 33.78086090087891 58 37.44755935668945 57.25996017456055 40.89825057983398 55.80043792724609 C 44.23223114013672 54.39028930664062 47.22686767578125 52.37110900878906 49.79898834228516 49.79898834228516 C 52.37110900878906 47.22686767578125 54.39028930664062 44.23223114013672 55.80043792724609 40.89825057983398 C 57.25996017456055 37.44755935668945 58 33.78086090087891 58 30 C 58 26.21913909912109 57.25996017456055 22.55244064331055 55.80043792724609 19.10174942016602 C 54.39028930664062 15.76776885986328 52.37110900878906 12.77312850952148 49.79898834228516 10.20101165771484 C 47.22686767578125 7.628890991210938 44.23223114013672 5.609710693359375 40.89825057983398 4.199558258056641 C 37.44755935668945 2.740039825439453 33.78086090087891 2 30 2 M 30 0 C 46.56853866577148 0 60 13.43146133422852 60 30 C 60 46.56853866577148 46.56853866577148 60 30 60 C 13.43146133422852 60 0 46.56853866577148 0 30 C 0 13.43146133422852 13.43146133422852 0 30 0 Z"/></g><path class="b" d="M35.825,11.235c-.45-.2-.9-.38-1.348-.54.5-.142,1.011-.3,1.516-.495,3.789-1.441,7.137-4.185,6.2-6.639-.269-.707-1.132-1.894-3.9-1.894a15.058,15.058,0,0,0-5.149,1.055A14.836,14.836,0,0,0,28.59,5.369V3.806a3.806,3.806,0,0,0-7.613,0v7.712a3.786,3.786,0,0,0-4.268.771A3.8,3.8,0,0,0,10.435,13.7,3.759,3.759,0,0,0,4.85,17v1.2H4.826V29.657a11.882,11.882,0,0,0,23.764,0V16.03a15.791,15.791,0,0,0,3.959,2.5A14.257,14.257,0,0,0,38.141,19.9c2.381,0,3.209-1.051,3.488-1.677.3-.662.531-2.053-1.255-3.93A14.691,14.691,0,0,0,35.825,11.235Zm-6.72-3.021c.408-.91,2.1-2.365,4.837-3.406A12.8,12.8,0,0,1,38.3,3.9c1.227,0,1.759.314,1.813.456.162.426-1.276,2.38-4.912,3.763a12.811,12.811,0,0,1-4.356.909c-1.227,0-1.76-.314-1.815-.459A.57.57,0,0,1,29.106,8.214ZM26.36,11.172H23.208v-1.5H26.36ZM24.785,2.23A1.577,1.577,0,0,1,26.36,3.806V7.437H23.208V3.806A1.578,1.578,0,0,1,24.785,2.23ZM19.4,13.4a1.579,1.579,0,0,1,1.576,1.578v2.944a17.329,17.329,0,0,0-2.134-.249c-.265,0-.621,0-1.019.034V14.98A1.579,1.579,0,0,1,19.4,13.4Zm-6.96,1.578a1.577,1.577,0,1,1,3.153,0v3.373a3.367,3.367,0,0,0-1.516,3.128,2.791,2.791,0,0,0,1.516,2.564v1.978a1.577,1.577,0,0,1-3.153,0ZM7.08,17a1.534,1.534,0,1,1,3.067,0v7.1a1.534,1.534,0,0,1-3.067,0ZM26.36,29.657a9.652,9.652,0,0,1-19.3,0v-2.14a3.732,3.732,0,0,0,3.4-.146,3.8,3.8,0,0,0,7.363-1.348V24.847c.173.042.344.081.509.119a5.716,5.716,0,0,1,2.214.781c.727.727.695,3.336.446,4.87a1.116,1.116,0,0,0,.92,1.281,1.171,1.171,0,0,0,.181.015,1.116,1.116,0,0,0,1.1-.935c.135-.822.719-5.019-1.07-6.808a6.672,6.672,0,0,0-3.292-1.378c-1.779-.407-2.523-.68-2.523-1.311,0-1.282.474-1.577,2.489-1.578.077,0,7.563.421,7.563,4.5v5.256Zm0-9.613a9.817,9.817,0,0,0-2.837-1.477c-.1-.036-.211-.07-.316-.1V13.4H26.36v6.643ZM39.6,17.314c-.053.117-.478.361-1.455.361A12.209,12.209,0,0,1,33.462,16.5c-3.549-1.6-4.87-3.629-4.682-4.043.052-.118.476-.361,1.453-.361a12.2,12.2,0,0,1,4.679,1.176,12.631,12.631,0,0,1,3.847,2.563C39.522,16.635,39.654,17.185,39.6,17.314Z" transform="translate(7.174 10.231)"/></g></g></svg>