<svg xmlns="http://www.w3.org/2000/svg" width="181.041" height="54.92" viewBox="0 0 181.041 54.92"><defs><style>.a{fill:#fff;}</style></defs><g transform="translate(-672.459 0)"><g transform="translate(696.613 0)"><path class="a" d="M177.858,689.441c-1.694,0-2.748-.025-3.933-.025-1.518,0-2.854.025-4.367.076,0,1.9-.025,3.57-.05,5.471,1.8-.076,3.878-.025,5.86-.1l-.207,2.027c-2.083,0-3.9,0-5.7.076-.076,2.284-.1,4.266-.207,6.061a44.75,44.75,0,0,1,4.675-.1c1.261,0,2.541,0,3.8-.05l.076,2.158c-1.876,0-4.367-.025-6.268-.025-1.261,0-2.879.025-4.957.1.282-5.6.358-8.583.358-12.667,0-1.462-.025-3.005-.025-4.932,3.469-.126,6.6-.156,11.1-.156Z" transform="translate(-166.578 -687.353)"/><path class="a" d="M202,697.607c0-2.2-1.361-3.52-4.039-3.52-2.138,0-3.328.711-3.328,1.881,0,2.355,4.624,2.138,7,3.368a4.054,4.054,0,0,1,2.375,3.737c0,2.7-2.032,4.644-5.335,4.644-3.111,0-6.177-1.946-6.177-5.184a4.567,4.567,0,0,1,.086-.756l1.553.172c.2,2.637,2.052,3.933,4.967,3.933,1.644,0,2.915-.711,2.915-2.526a2.331,2.331,0,0,0-1.276-1.77c-2.486-1.382-8.058-.862-8.058-5.27,0-2.249,2.073-3.933,5.572-3.933,2.94,0,5.36,1.467,5.36,4.256a5.242,5.242,0,0,1-.066.822Z" transform="translate(-179.427 -689.847)"/><path class="a" d="M246.278,692.888c-.02.908-.045,1.836-.045,2.809,0,4.276.237,8.663.3,11.946l-2.2.086c-.086-2.874-.3-8.169-.323-10.932-1.256,2.915-3.585,8.058-4.69,10.827-.605.045-1.21.066-1.815.086-1.1-2.829-3.091-7.735-4.19-10.433v10.433h-1.8c0-3.459.02-6.591.02-9.616,0-1.75,0-3.459-.02-5.144l2.506-.106c1.815,4.1,3.091,7.624,4.775,11.84,1.684-3.716,3.434-7.952,4.992-11.82Z" transform="translate(-198.771 -690.075)"/><path class="a" d="M279.385,700.286c0,4.387-2.743,7.413-7.367,7.413-3.651,0-6.48-2.612-6.48-7,0-4.453,2.335-8.406,7.085-8.406C276.924,692.293,279.385,695.142,279.385,700.286Zm-11.517-.388c0,4.211,1.815,5.94,4.427,5.94,3.414,0,4.775-2.1,4.775-5.1,0-4.493-1.513-6.611-4.579-6.611C269.466,694.128,267.868,696.746,267.868,699.9Z" transform="translate(-215.636 -689.802)"/><path class="a" d="M311.988,692.888c-.02.908-.045,1.836-.045,2.809,0,4.276.237,8.663.3,11.946l-2.2.086c-.086-2.874-.3-8.169-.323-10.932-1.256,2.915-3.585,8.058-4.69,10.827-.605.045-1.21.066-1.815.086-1.1-2.829-3.091-7.735-4.19-10.433v10.433h-1.8c0-3.459.02-6.591.02-9.616,0-1.75,0-3.459-.02-5.144l2.506-.106c1.815,4.1,3.091,7.624,4.775,11.84,1.684-3.716,3.434-7.952,4.992-11.82Z" transform="translate(-231.346 -690.075)"/><path class="a" d="M341.343,694.643c-1.427,0-2.31-.02-3.308-.02-1.276,0-2.4.02-3.671.066,0,1.6-.02,3.005-.04,4.6,1.513-.065,3.263-.02,4.927-.086l-.171,1.7c-1.75,0-3.283,0-4.8.066-.066,1.921-.086,3.585-.171,5.1a37.294,37.294,0,0,1,3.933-.086c1.059,0,2.138,0,3.2-.045l.066,1.815c-1.578,0-3.671-.02-5.27-.02-1.059,0-2.42.02-4.17.086.237-4.71.3-7.216.3-10.65,0-1.23-.02-2.526-.02-4.15,2.915-.106,5.552-.131,9.334-.131Z" transform="translate(-248.518 -690.099)"/><path class="a" d="M365.9,692.8c-.106,2.506-.171,5.834-.171,9.919,0,1.946.02,3.611.04,5.033l-2.441.151c-2.441-3.953-5.532-8.749-7.085-11.169-.066,1.836-.106,5.4-.106,10.887l-1.578.086c.045-2.763.066-5.512.066-8.3,0-2.158-.02-4.322-.066-6.505l2.486-.065a108.636,108.636,0,0,0,6.893,11.406c.086-1.251.131-5.058.131-11.386Z" transform="translate(-259.766 -690.055)"/><path class="a" d="M384.755,707.658c.151-4.453.151-8.683.151-13.005-1.664,0-3.131.02-4.559.045v-1.684c2.915-.106,5.229-.151,7.715-.151,1.361,0,2.854.02,3.888.045,0,.585-.045,1.145-.086,1.73-1.276,0-2.895-.02-4.73-.02,0,4.216,0,8.381-.151,12.919Z" transform="translate(-272.551 -690.084)"/><path class="a" d="M417.675,700.286c0,4.387-2.743,7.413-7.367,7.413-3.651,0-6.48-2.612-6.48-7,0-4.453,2.335-8.406,7.085-8.406C415.209,692.293,417.675,695.142,417.675,700.286Zm-11.517-.388c0,4.211,1.815,5.94,4.427,5.94,3.414,0,4.775-2.1,4.775-5.1,0-4.493-1.513-6.611-4.579-6.611C407.756,694.128,406.158,696.746,406.158,699.9Z" transform="translate(-284.191 -689.802)"/></g><circle class="a" cx="2.854" cy="2.854" r="2.854" transform="translate(682.549 7.391)"/><circle class="a" cx="2.854" cy="2.854" r="2.854" transform="translate(838.699 7.391)"/><g transform="translate(672.459 24.497)"><path class="a" d="M133.546,90.341c0,.4.2.671.6.671,2.536,0,6.7-7.009,7.05-7.009.4,0,.555.671.555,1.427s-5.784,9.309-9.268,9.309A4.356,4.356,0,0,1,128.2,91.45c-.555.872-2.889,3.646-5.426,3.646-2.178,0-4.316-1.785-4.316-5.31,0-5.824,6.893-15.012,13.388-15.012,2.259,0,2.733,2.375,2.773,2.733,1.069-1.9,6.021-12.44,6.813-12.44,1.583,0,2.652,1.82,2.652,3.131C144.085,69.742,133.546,87.093,133.546,90.341Zm-2.5-13.192c-3.368,0-7.645,8.361-7.645,12.163,0,1.109.4,1.78,1.23,1.78,2.259,0,8-10.221,8-11.21C132.638,77.86,131.846,77.149,131.049,77.149Z" transform="translate(-118.458 -65.067)"/><path class="a" d="M165.034,104.635c-2.693,0-4.8-2.733-4.8-5.981,0-5.033,5.94-14.064,11.25-14.064,1.427,0,2.178-.434,3.01-.434,1.266,0,2.456,1.467,2.456,3.01,0,2.97-4.4,8.119-10.776,8.119a1.087,1.087,0,0,1-.358-.04,8.576,8.576,0,0,0-.832,3.247c0,1.745.635,2.854,2.1,2.854,5.27,0,9.626-7.841,10.1-7.841.434,0,.474.711.474,1.306C177.67,96.239,171.609,104.635,165.034,104.635Zm8.28-18.179c-1.387,0-4.518,3.328-6.495,6.813,3.131-.676,7.211-3.883,7.211-6.142A.623.623,0,0,0,173.314,86.456Z" transform="translate(-139.17 -74.531)"/><path class="a" d="M218.445,104.953c-2.97,0-5.587-1.982-5.587-6.258,0-5.033,5.587-14.18,11.053-14.18,1.266,0,1.624-.358,2.889-.358,1.82,0,3.207.913,3.207,3.883a5.076,5.076,0,0,1-2.612,4.241,7.351,7.351,0,0,1-2.773.948c-.277,0-.237-.081-.237-.2s.2-.121.474-.514a12.608,12.608,0,0,0,1.387-5.149c0-.555-.116-.913-.514-.913-1.387,0-7.725,7.6-7.725,12.516a2.618,2.618,0,0,0,2.5,2.733c5.86,0,10.141-8.2,10.615-8.2s.474.913.474,1.387C231.6,95.6,226.211,104.953,218.445,104.953Z" transform="translate(-165.255 -74.531)"/><path class="a" d="M259.448,104.281c-2.773,0-3.4-3.288-3.525-3.288s-3.01,3.646-6.3,3.646c-2.178,0-4.316-1.785-4.316-5.31,0-5.824,6.893-15.012,13.388-15.012A3.524,3.524,0,0,1,262.3,87.05c.2,0,2.3-2.577,3.01-2.577a2.846,2.846,0,0,1,1.15.237c.4.081.988.156.988.711,0,2.178-6.974,12-6.974,14.457,0,.4.2.671.6.671,2.536,0,6.7-7.009,7.09-7.009.358,0,.514.671.514,1.427S262.9,104.281,259.448,104.281ZM258.1,86.5c-3.207,0-7.841,8.28-7.841,12.163,0,1.266.434,1.982,1.225,1.982,1.029,0,3.8-1.9,3.8-2.652,0-.318-.832-.4-1.15-.4v-.318c1.029-.277,5.587-4.952,5.587-8.6C259.725,87.443,259.054,86.5,258.1,86.5Z" transform="translate(-181.342 -74.61)"/><path class="a" d="M306.66,104.245a3.586,3.586,0,0,1-3.646-3.525c0-4.518,4.16-10.932,5.149-12.36l-.116-.081a35.5,35.5,0,0,0-7.645,8.794c-2.335,3.721-3.8,7.448-4.594,7.448-1.387,0-3.646-.872-3.646-1.7a.492.492,0,0,1,.04-.237c1.941-4.241,6.853-12.874,6.853-14.024l-.121-.121a35.715,35.715,0,0,0-7.171,7.367c-2.652,3.721-5.27,8.517-6.339,8.517s-3.207-1.029-3.207-2.1c0-1.029,1.941-5.033,4.594-10.1,2.652-5.033,4.831-8.356,5.426-8.356.676,0,3.328.635,3.328,1.427,0,.872-1.7,4.518-1.861,5.068.121,0,5.9-6.061,7.645-6.061,1.7,0,3.8,1.225,3.8,2.3a20.921,20.921,0,0,1-1.266,3.288c1.225-1.387,5.108-5.663,7.09-5.663,1.467,0,3.368.988,3.368,1.7a6.272,6.272,0,0,1-1.029,2.814c-.555,1.069-5.033,9.152-5.033,10.852,0,.474.116.832.948.832,2.022,0,6.379-7.09,6.7-7.09.4,0,.514.671.514,1.346C316.447,95.728,310.543,104.245,306.66,104.245Z" transform="translate(-199.64 -74.337)"/><path class="a" d="M350.844,95.049c-2.693,0-5.386-1.346-5.386-6.495,0-1.785,2.93-7.009,6.021-12.163,3.368-5.623,6.535-11.094,8.477-11.094,1.069,0,2.652.751,2.652,1.306,0,.514-1.82,3.051-2.854,4.755-1.069,1.745-2.536,4.317-2.536,4.478l.081.04a6.357,6.357,0,0,1,2.93-.832c2.178,0,3.721,1.583,3.721,4.715C363.954,85.659,358.529,95.049,350.844,95.049Zm7.488-17.826c-1.387,0-2.577,1.508-3.167,2.138-.6.676-5.663,10.141-5.663,11.886,0,.671.4,1.225,1.387,1.225,3.131,0,8.991-9.389,8.991-13.388C359.875,78.332,359.361,77.223,358.332,77.223Z" transform="translate(-230.99 -65.181)"/><path class="a" d="M383.345,95.442c-1.982,0-3.247-2.3-3.247-4.554,0-4.831,6.177-14.815,8.2-15.647a5.185,5.185,0,0,1,1.029-.081c.988,0,2.375.2,2.375.872a.629.629,0,0,1-.121.318c-.832,1.583-6.772,11.961-6.772,14.694,0,.6.237.832.555.832,2.456,0,7.009-7.488,7.367-7.488.439,0,.474.913.474,1.467C393.209,86.567,387.465,95.442,383.345,95.442Zm9.7-22.621a3.342,3.342,0,0,1-3.484-3.247,3.81,3.81,0,0,1,3.842-3.646,3.342,3.342,0,0,1,3.484,3.247A3.806,3.806,0,0,1,393.047,72.82Z" transform="translate(-248.162 -65.493)"/><path class="a" d="M415.448,104.281c-2.773,0-3.4-3.288-3.525-3.288s-3.01,3.646-6.3,3.646c-2.178,0-4.316-1.785-4.316-5.31,0-5.824,6.893-15.012,13.388-15.012A3.524,3.524,0,0,1,418.3,87.05c.2,0,2.3-2.577,3.01-2.577a2.846,2.846,0,0,1,1.15.237c.4.081.988.156.988.711,0,2.178-6.974,12-6.974,14.457,0,.4.2.671.6.671,2.536,0,6.7-7.009,7.09-7.009.358,0,.514.671.514,1.427S418.892,104.281,415.448,104.281ZM414.1,86.5c-3.207,0-7.841,8.28-7.841,12.163,0,1.266.434,1.982,1.225,1.982,1.029,0,3.8-1.9,3.8-2.652,0-.318-.832-.4-1.15-.4v-.318c1.029-.277,5.587-4.952,5.587-8.6C415.725,87.443,415.049,86.5,414.1,86.5Z" transform="translate(-258.677 -74.61)"/><path class="a" d="M451.633,102.222a4.085,4.085,0,0,1-4.437-4.317c0-3.883,5.345-11.013,5.345-11.129a4.9,4.9,0,0,0-1.982-.635c-.156,0-.277.04-.318.121-1.941,3.167-3.883,6.061-5.27,8.043a.563.563,0,0,1-.439.318c-.358,0-.6-.474-.6-1.19a2.1,2.1,0,0,1,.358-.872,32.762,32.762,0,0,0,2.612-4.554c1.19-2.375,1.427-4.079,2.178-5.865.792-1.982,1.387-2.375,2.693-2.375.6,0,.913.358.913,1.029a2.38,2.38,0,0,1-.4,1.23c0,.156.237.277.872.277,1.861,0,4.079-.318,4.634-.318,1.109,0,2.577,2.178,2.577,3.091,0,.711-1.23,1.346-2.1,2.335-1.5,1.624-5.587,7.367-5.587,10.458a.548.548,0,0,0,.555.6c.988,0,2.773-1.543,4.12-3.207,1.5-1.82,2.773-3.8,2.97-3.8.358,0,.514.711.514,1.427C460.861,93.624,455.077,102.222,451.633,102.222Z" transform="translate(-279.81 -72.354)"/></g></g></svg>