<svg xmlns="http://www.w3.org/2000/svg" width="181.304" height="55.917" viewBox="0 0 181.304 55.917"><defs><style>.a{fill:#fff;stroke:rgba(0,0,0,0);stroke-miterlimit:10;}</style></defs><g transform="translate(-1020.698 -55.81)"><path class="a" d="M372.286,609.276c-1.681,0-2.726-.025-3.9-.025-1.506,0-2.831.025-4.332.076,0,1.91-.025,3.587-.05,5.5,1.786-.076,3.847-.025,5.813-.1l-.205,2.036c-2.066,0-3.872,0-5.658.076-.075,2.295-.1,4.286-.205,6.089a43.877,43.877,0,0,1,4.637-.1c1.251,0,2.521,0,3.772-.05l.075,2.168c-1.861,0-4.332-.025-6.218-.025-1.251,0-2.856.025-4.917.1.28-5.628.355-8.623.355-12.726,0-1.469-.025-3.02-.025-4.955,3.441-.127,6.548-.157,11.01-.157Z" transform="translate(683.856 -550.869)"/><path class="a" d="M396.445,617.458c0-2.214-1.351-3.536-4.007-3.536-2.121,0-3.3.714-3.3,1.89,0,2.366,4.587,2.148,6.943,3.384a4.075,4.075,0,0,1,2.356,3.754c0,2.715-2.016,4.666-5.292,4.666-3.086,0-6.128-1.956-6.128-5.208a4.649,4.649,0,0,1,.085-.76l1.541.172c.2,2.65,2.036,3.952,4.927,3.952,1.631,0,2.891-.714,2.891-2.538a2.34,2.34,0,0,0-1.266-1.778c-2.466-1.388-7.993-.866-7.993-5.294,0-2.26,2.056-3.952,5.527-3.952,2.916,0,5.317,1.474,5.317,4.276a5.34,5.34,0,0,1-.065.826Z" transform="translate(670.902 -553.35)"/><path class="a" d="M440.677,612.715c-.02.912-.045,1.844-.045,2.822,0,4.3.235,8.7.3,12l-2.186.086c-.085-2.888-.3-8.207-.32-10.983-1.246,2.928-3.557,8.1-4.652,10.877-.6.046-1.2.066-1.8.086-1.1-2.842-3.066-7.771-4.157-10.482V627.6h-1.781c0-3.475.02-6.622.02-9.661,0-1.758,0-3.475-.02-5.167l2.486-.106c1.8,4.124,3.066,7.66,4.737,11.9,1.671-3.734,3.407-7.989,4.952-11.875Z" transform="translate(651.401 -553.577)"/><path class="a" d="M473.792,620.149c0,4.408-2.721,7.447-7.308,7.447-3.622,0-6.428-2.624-6.428-7.032,0-4.473,2.316-8.445,7.028-8.445C471.351,612.119,473.792,614.982,473.792,620.149Zm-11.425-.39c0,4.23,1.8,5.968,4.392,5.968,3.387,0,4.737-2.108,4.737-5.122,0-4.514-1.5-6.642-4.542-6.642C463.953,613.963,462.367,616.593,462.367,619.759Z" transform="translate(634.397 -553.307)"/><path class="a" d="M506.387,612.715c-.02.912-.045,1.844-.045,2.822,0,4.3.235,8.7.3,12l-2.186.086c-.085-2.888-.3-8.207-.32-10.983-1.246,2.928-3.556,8.1-4.652,10.877-.6.046-1.2.066-1.8.086-1.1-2.842-3.066-7.771-4.157-10.482V627.6h-1.781c0-3.475.02-6.622.02-9.661,0-1.758,0-3.475-.02-5.167l2.486-.106c1.8,4.124,3.066,7.66,4.737,11.9,1.671-3.734,3.406-7.989,4.952-11.875Z" transform="translate(618.56 -553.577)"/><path class="a" d="M535.785,614.477c-1.416,0-2.291-.02-3.281-.02-1.266,0-2.381.02-3.642.066,0,1.606-.02,3.019-.04,4.625,1.5-.066,3.236-.02,4.887-.086l-.17,1.712c-1.736,0-3.256,0-4.757.066-.065,1.93-.085,3.6-.17,5.122a36.516,36.516,0,0,1,3.9-.086c1.05,0,2.121,0,3.171-.046l.065,1.824c-1.566,0-3.641-.02-5.227-.02-1.05,0-2.4.02-4.137.086.235-4.732.3-7.25.3-10.7,0-1.236-.02-2.538-.02-4.169,2.891-.107,5.508-.132,9.259-.132Z" transform="translate(601.247 -553.602)"/><path class="a" d="M560.326,612.629c-.1,2.518-.17,5.861-.17,9.965,0,1.956.02,3.627.04,5.056l-2.421.152c-2.421-3.972-5.487-8.79-7.028-11.222-.065,1.844-.1,5.426-.1,10.938l-1.566.086c.045-2.776.065-5.537.065-8.334,0-2.168-.02-4.342-.065-6.535l2.466-.066a109.446,109.446,0,0,0,6.838,11.46c.085-1.256.13-5.081.13-11.439Z" transform="translate(589.906 -553.558)"/><path class="a" d="M579.238,627.553c.15-4.474.15-8.724.15-13.066-1.651,0-3.106.02-4.522.046v-1.692c2.891-.106,5.187-.152,7.654-.152,1.351,0,2.831.02,3.856.046,0,.588-.045,1.15-.085,1.738-1.266,0-2.871-.02-4.692-.02,0,4.235,0,8.42-.15,12.979Z" transform="translate(577.018 -553.586)"/><path class="a" d="M612.082,620.149c0,4.408-2.721,7.447-7.308,7.447-3.622,0-6.428-2.624-6.428-7.032,0-4.473,2.316-8.445,7.028-8.445C609.636,612.119,612.082,614.982,612.082,620.149Zm-11.425-.39c0,4.23,1.8,5.968,4.392,5.968,3.387,0,4.737-2.108,4.737-5.122,0-4.514-1.5-6.642-4.542-6.642C602.243,613.963,600.657,616.593,600.657,619.759Z" transform="translate(565.284 -553.307)"/><path class="a" d="M351.022,674.671c-.47,0-4.757,7.817-9.939,7.817-1.441,0-2.066-1.1-2.066-2.842a8.551,8.551,0,0,1,.82-3.237,1.034,1.034,0,0,0,.35.041c6.278,0,10.6-5.132,10.6-8.1,0-1.54-1.17-3-2.416-3-.82,0-1.561.436-2.961.436-3.847,0-8.029,4.884-9.969,9.459-1.26,1.707-4.362,6.368-6.4,6.368-.39,0-.585-.279-.585-.669,0-3.237,10.37-20.528,10.37-22.068,0-1.3-1.05-3.121-2.611-3.121-.78,0-5.652,10.5-6.7,12.4-.04-.355-.505-2.726-2.731-2.726-6.393,0-13.176,9.16-13.176,14.96,0,3.516,2.106,5.289,4.247,5.289,2.5,0,4.792-2.766,5.342-3.632a4.306,4.306,0,0,0,4.212,3.278c2.076,0,4.977-3.121,6.948-5.75,0,.076-.01.152-.01.223,0,3.237,2.066,5.963,4.717,5.963,6.473,0,12.436-8.369,12.436-9.793C351.493,675.381,351.453,674.671,351.022,674.671Zm-3.817-7.027a.61.61,0,0,1,.7.669c0,2.249-4.017,5.446-7.093,6.12C342.759,670.958,345.84,667.644,347.206,667.644ZM319.684,681.7c-.82,0-1.211-.669-1.211-1.778,0-3.789,4.212-12.118,7.523-12.118.78,0,1.561.709,1.561,2.726C327.557,671.515,321.9,681.7,319.684,681.7Z" transform="translate(707.592 -574.839)"/><path class="a" d="M538.183,665.483c-.545,0-2.731.314-4.562.314-.625,0-.855-.117-.855-.279a2.373,2.373,0,0,0,.39-1.226c0-.669-.31-1.029-.9-1.029-1.286,0-1.871.4-2.651,2.371-.741,1.778-.975,3.475-2.146,5.841a32.717,32.717,0,0,1-2.116,3.85c-1.261,1.667-4.4,6.414-6.458,6.414-.39,0-.585-.279-.585-.669,0-2.447,6.858-12.24,6.858-14.408,0-.552-.585-.633-.975-.709a2.738,2.738,0,0,0-1.13-.238c-.7,0-2.766,2.568-2.961,2.568a3.477,3.477,0,0,0-3.546-2.726c-4.687,0-9.579,4.924-11.86,9.833-1.281,1.722-4.392,6.353-6.423,6.353a1.375,1.375,0,0,1-1.406-1.581c0-1.854,5.848-12.671,5.848-12.671l1.756-3.318c.165-.309.32-.613.47-.912h4.157a.518.518,0,0,0,.515-.522v-.334a.518.518,0,0,0-.515-.522H505.6a15.105,15.105,0,0,0,1.271-3.3,3,3,0,0,0-2.886-2.569c-.31,0-2.216,3.516-3.451,5.862h-3.471a.518.518,0,0,0-.515.522v.334a.518.518,0,0,0,.515.522h2.751c-.215.416-.35.674-.35.674l-2.221,4.266c-.94,1.773-2.4,4.392-3.657,6.941-1.2,1.56-5.052,7.822-10.1,7.822a2.6,2.6,0,0,1-2.456-2.726c0-4.894,6.238-12.473,7.6-12.473.39,0,.505.355.505.907a12.659,12.659,0,0,1-1.365,5.132c-.275.4-.465.4-.465.512s-.04.2.235.2a7.174,7.174,0,0,0,2.726-.947,5.042,5.042,0,0,0,2.571-4.225c0-2.959-1.366-3.871-3.156-3.871-1.245,0-1.6.355-2.846.355-4.027,0-8.123,5.112-9.924,9.788-1.506,2.006-5.072,6.991-9.214,6.991-1.441,0-2.066-1.1-2.066-2.842a8.554,8.554,0,0,1,.82-3.237,1.033,1.033,0,0,0,.35.041c6.278,0,10.6-5.132,10.6-8.1,0-1.54-1.17-3-2.416-3-.82,0-1.561.436-2.961.436-3.817,0-7.964,4.808-9.925,9.352-1.246,1.657-4.452,6.515-6.138,6.515-.78,0-.9-.355-.9-.831,0-1.7,4.407-9.753,4.912-10.816a5.857,5.857,0,0,0,1.015-2.8c0-.709-1.871-1.7-3.311-1.7-2.146,0-6.588,5.249-7.288,5.963l-.04-.041c.195-.674,1.521-3.592,1.521-4.58,0-1.1-2.106-1.621-2.691-1.621-1,0-3.937,5.345-6.218,10.183-.8,1.074-2.186,3.359-3.917,3.359a2.059,2.059,0,0,1-.66-.157,20.523,20.523,0,0,0,2.961-9.6c0-1.581-.7-3.156-2.536-3.156-1.09,0-2.026-.512-3.156-.512-4.722,0-9.094,5.01-11,9.95-1.391,1.915-5.1,7.544-9.894,7.544a2.6,2.6,0,0,1-2.456-2.726c0-4.894,6.238-12.473,7.6-12.473.39,0,.505.355.505.907a12.657,12.657,0,0,1-1.366,5.132c-.275.4-.465.4-.465.512s-.04.2.235.2a7.174,7.174,0,0,0,2.726-.947,5.042,5.042,0,0,0,2.571-4.225c0-2.959-1.366-3.871-3.156-3.871-1.246,0-1.6.355-2.846.355-5.377,0-10.875,9.119-10.875,14.135,0,4.266,2.571,6.236,5.5,6.236,4.832,0,8.729-3.729,10.94-6.647-.015.218-.025.436-.025.643,0,3.789,2.181,5.644,5.457,5.644,2.536,0,4.912-1.581,6.938-3.83h.31a7.552,7.552,0,0,0,4.5-1.677,11.148,11.148,0,0,0-.835,2.66,3.077,3.077,0,0,0,2.5,2.645c.82,0,1.6-2.33,3.742-5.644a75.566,75.566,0,0,1,8.539-10.223l.155.081c-1.015,1.424-5.107,7.817-5.107,12.316a3.575,3.575,0,0,0,3.587,3.516c2.356,0,5.477-3.227,7.528-5.968,0,.066-.005.137-.005.2,0,3.237,2.066,5.963,4.717,5.963,4.1,0,7.993-3.359,10.3-6.181-.005.086-.01.177-.01.258,0,4.266,2.571,6.236,5.5,6.236,4.087,0,7.5-2.67,9.8-5.258a4.938,4.938,0,0,0-.135.993c0,2.29,2.886,3.749,5.417,3.749,2,0,4.847-3.055,6.838-5.709-.01.182-.02.365-.02.537,0,3.516,2.106,5.289,4.247,5.289,3.237,0,6.083-3.632,6.2-3.632s.74,3.278,3.471,3.278c2.591,0,6.513-4.965,8.229-7.65.01-.015.025-.03.035-.046,1.366-1.976,3.277-4.853,5.182-8.015.04-.081.155-.116.31-.116a4.806,4.806,0,0,1,1.951.633c0,.117-5.262,7.224-5.262,11.095a4.042,4.042,0,0,0,4.367,4.3,3.508,3.508,0,0,0,1.706-.552c.25-.142.42-.218.51-.4a2.119,2.119,0,0,0,.08-1.246c-.22,0-.475.056-.66-.127a.92.92,0,0,1-.19-.334,5.711,5.711,0,0,1,.18-4.175,25.971,25.971,0,0,1,4.927-7.939c.855-.988,2.066-1.621,2.066-2.33C540.72,667.656,539.274,665.483,538.183,665.483Zm-64.353,2.29a.612.612,0,0,1,.7.669c0,2.249-4.017,5.446-7.093,6.12C469.388,671.086,472.47,667.773,473.83,667.773Zm-39.717,8.253a2.531,2.531,0,0,0-2.611,2.645,2.941,2.941,0,0,0,1.561,2.528,3.665,3.665,0,0,1-2.106.831c-1.211,0-1.676-.947-1.676-2.29,0-4.7,4.952-11.525,8.029-11.525,1.13,0,1.441,1.029,1.441,2.011a16.665,16.665,0,0,1-2.341,6.829A3.428,3.428,0,0,0,434.113,676.025Zm79.085,3.156c-.385.644-2.731,2.645-3.742,2.645-.78,0-1.211-.709-1.211-1.976,0-3.871,4.562-12.118,7.718-12.118.936,0,1.6.947,1.6,2.173C517.564,673.538,513.533,678.625,513.2,679.182Z" transform="translate(660.792 -574.967)"/><ellipse class="a" cx="2.831" cy="2.867" rx="2.831" ry="2.867" transform="translate(1031.002 63.738)"/><ellipse class="a" cx="2.831" cy="2.867" rx="2.831" ry="2.867" transform="translate(1185.899 63.738)"/></g></svg>