<svg xmlns="http://www.w3.org/2000/svg" width="180" height="62.375" viewBox="0 0 180 62.375"><defs><style>.a{fill:#fff;}</style></defs><g transform="translate(-597.998 -38)"><g transform="translate(623.462 38)"><path class="a" d="M177.554,689.384c-1.649,0-2.674-.024-3.827-.024-1.477,0-2.777.024-4.249.074,0,1.85-.025,3.474-.049,5.323,1.752-.074,3.773-.025,5.7-.1l-.2,1.972c-2.026,0-3.8,0-5.549.074-.074,2.223-.1,4.151-.2,5.9a43.576,43.576,0,0,1,4.548-.1c1.227,0,2.473,0,3.7-.049l.074,2.1c-1.825,0-4.249-.025-6.1-.025-1.227,0-2.8.025-4.823.1.275-5.451.348-8.351.348-12.325,0-1.423-.025-2.924-.025-4.8,3.376-.123,6.422-.152,10.8-.152Z" transform="translate(-166.578 -687.353)"/><path class="a" d="M201.746,697.466c0-2.144-1.325-3.425-3.93-3.425-2.08,0-3.238.692-3.238,1.83,0,2.291,4.5,2.08,6.81,3.277a3.944,3.944,0,0,1,2.311,3.636c0,2.63-1.977,4.519-5.191,4.519-3.027,0-6.01-1.894-6.01-5.044a4.444,4.444,0,0,1,.083-.736l1.511.167c.191,2.566,2,3.827,4.833,3.827,1.6,0,2.836-.692,2.836-2.458a2.268,2.268,0,0,0-1.241-1.722c-2.419-1.344-7.84-.839-7.84-5.127,0-2.188,2.017-3.827,5.422-3.827,2.86,0,5.215,1.428,5.215,4.141a5.1,5.1,0,0,1-.064.8Z" transform="translate(-179.781 -689.915)"/><path class="a" d="M245.879,692.887c-.02.883-.044,1.786-.044,2.733,0,4.161.231,8.429.294,11.623l-2.144.083c-.083-2.8-.294-7.948-.314-10.637-1.222,2.836-3.488,7.84-4.563,10.534-.589.044-1.178.064-1.766.083-1.075-2.753-3.008-7.526-4.077-10.151v10.151h-1.747c0-3.366.02-6.413.02-9.356,0-1.7,0-3.366-.02-5l2.438-.1c1.766,3.994,3.008,7.418,4.646,11.52,1.639-3.616,3.341-7.737,4.857-11.5Z" transform="translate(-199.656 -690.149)"/><path class="a" d="M279.011,700.07c0,4.268-2.669,7.212-7.168,7.212-3.552,0-6.3-2.542-6.3-6.81,0-4.332,2.272-8.179,6.893-8.179C276.617,692.293,279.011,695.065,279.011,700.07Zm-11.206-.378c0,4.1,1.766,5.78,4.308,5.78,3.322,0,4.646-2.041,4.646-4.96,0-4.372-1.472-6.432-4.455-6.432C269.36,694.079,267.8,696.625,267.8,699.692Z" transform="translate(-216.985 -689.869)"/><path class="a" d="M311.589,692.887c-.02.883-.044,1.786-.044,2.733,0,4.161.231,8.429.294,11.623l-2.144.083c-.083-2.8-.294-7.948-.314-10.637-1.222,2.836-3.488,7.84-4.563,10.534-.589.044-1.178.064-1.766.083-1.074-2.753-3.008-7.526-4.077-10.151v10.151h-1.747c0-3.366.02-6.413.02-9.356,0-1.7,0-3.366-.02-5l2.438-.1c1.766,3.994,3.008,7.418,4.646,11.52,1.639-3.616,3.341-7.737,4.857-11.5Z" transform="translate(-233.126 -690.149)"/><path class="a" d="M341.087,694.6c-1.389,0-2.247-.02-3.219-.02-1.241,0-2.335.02-3.572.064,0,1.555-.02,2.924-.039,4.479,1.472-.064,3.174-.02,4.794-.083l-.167,1.658c-1.7,0-3.194,0-4.666.064-.064,1.869-.083,3.488-.167,4.96a36.261,36.261,0,0,1,3.827-.083c1.03,0,2.08,0,3.111-.044l.064,1.766c-1.536,0-3.572-.02-5.127-.02-1.03,0-2.355.02-4.058.083.231-4.583.294-7.021.294-10.362,0-1.2-.02-2.458-.02-4.038,2.836-.1,5.4-.128,9.082-.128Z" transform="translate(-250.771 -690.175)"/><path class="a" d="M365.592,692.8c-.1,2.438-.167,5.677-.167,9.651,0,1.894.02,3.513.039,4.9l-2.375.147c-2.375-3.847-5.382-8.513-6.893-10.868-.064,1.786-.1,5.255-.1,10.593l-1.536.083c.044-2.689.064-5.363.064-8.071,0-2.1-.02-4.2-.064-6.329l2.419-.064a105.706,105.706,0,0,0,6.707,11.1c.083-1.217.128-4.921.128-11.079Z" transform="translate(-262.328 -690.129)"/><path class="a" d="M384.636,707.258c.147-4.332.147-8.449.147-12.654-1.619,0-3.047.02-4.435.044V693.01c2.836-.1,5.088-.147,7.507-.147,1.325,0,2.777.02,3.783.044,0,.569-.044,1.114-.083,1.683-1.241,0-2.816-.02-4.6-.02,0,4.1,0,8.154-.147,12.57Z" transform="translate(-275.465 -690.16)"/><path class="a" d="M417.3,700.07c0,4.268-2.669,7.212-7.168,7.212-3.552,0-6.3-2.542-6.3-6.81,0-4.332,2.272-8.179,6.893-8.179C414.9,692.293,417.3,695.065,417.3,700.07Zm-11.206-.378c0,4.1,1.766,5.78,4.308,5.78,3.322,0,4.646-2.041,4.646-4.96,0-4.372-1.472-6.432-4.455-6.432C407.65,694.079,406.095,696.625,406.095,699.692Z" transform="translate(-287.424 -689.869)"/></g><circle class="a" cx="2.777" cy="2.777" r="2.777" transform="translate(609.778 45.192)"/><circle class="a" cx="2.777" cy="2.777" r="2.777" transform="translate(761.708 45.192)"/><g transform="translate(597.998 61.835)"><path class="a" d="M129.218,312.14c0,.388.191.653.579.653,2.468,0,6.516-6.82,6.859-6.82.388,0,.54.653.54,1.388s-5.628,9.057-9.018,9.057a4.238,4.238,0,0,1-4.161-3.2c-.54.849-2.811,3.547-5.279,3.547-2.12,0-4.2-1.737-4.2-5.166,0-5.667,6.707-14.606,13.026-14.606,2.2,0,2.659,2.311,2.7,2.659,1.04-1.85,5.858-12.1,6.629-12.1,1.541,0,2.581,1.771,2.581,3.047C139.467,292.1,129.218,308.98,129.218,312.14ZM126.789,299.3c-3.277,0-7.438,8.135-7.438,11.834,0,1.079.388,1.732,1.192,1.732,2.2,0,7.786-9.945,7.786-10.907C128.33,300,127.56,299.3,126.789,299.3Z" transform="translate(-114.538 -287.549)"/><path class="a" d="M160.979,326.564c-2.62,0-4.661-2.659-4.661-5.819,0-4.9,5.78-13.684,10.946-13.684,1.389,0,2.12-.422,2.929-.422,1.232,0,2.389,1.428,2.389,2.929,0,2.89-4.278,7.9-10.485,7.9a1.058,1.058,0,0,1-.348-.039,8.345,8.345,0,0,0-.81,3.16c0,1.7.618,2.777,2.041,2.777,5.127,0,9.366-7.629,9.827-7.629.422,0,.461.692.461,1.271C173.274,318.395,167.377,326.564,160.979,326.564Zm8.056-17.687c-1.349,0-4.4,3.238-6.319,6.628,3.047-.657,7.016-3.778,7.016-5.976A.606.606,0,0,0,169.035,308.876Z" transform="translate(-135.819 -297.273)"/><path class="a" d="M213.689,326.564c-2.62,0-4.661-2.659-4.661-5.819,0-4.9,5.78-13.684,10.946-13.684,1.389,0,2.12-.422,2.929-.422,1.231,0,2.389,1.428,2.389,2.929,0,2.89-4.278,7.9-10.485,7.9a1.057,1.057,0,0,1-.348-.039,8.344,8.344,0,0,0-.81,3.16c0,1.7.618,2.777,2.041,2.777,5.127,0,9.366-7.629,9.827-7.629.422,0,.461.692.461,1.271C225.98,318.395,220.087,326.564,213.689,326.564Zm8.051-17.687c-1.349,0-4.4,3.238-6.319,6.628,3.047-.657,7.016-3.778,7.016-5.976C222.437,309.107,222.207,308.876,221.74,308.876Z" transform="translate(-162.668 -297.273)"/><path class="a" d="M258.716,308.438a51.226,51.226,0,0,0-6.437,5.127,60.822,60.822,0,0,0-1.31,8.287c0,.618.27.922.849.922,2,0,7.016-7.517,7.247-7.517.27,0,.461.927.461,1.388,0,.81-6.089,9.445-9.366,9.445-1.85,0-3.277-1.967-3.277-5.166,0-.579.079-1.31.152-2.12-1.81,1.928-3.582,3.93-4.857,5.436-1.158,1.349-1.462,2.311-1.889,2.311a2.137,2.137,0,0,1-1.349-1.732c0-1.119,3.817-6.207,8.827-10.828a42.328,42.328,0,0,0,.653-4.4c0-.388-.118-.657-.309-.657-1.771,0-5.706,6.4-7.708,9.288a.3.3,0,0,1-.27.118.905.905,0,0,1-.849-.81.619.619,0,0,1,.118-.348c1.158-1.889,6.207-11.025,11.255-11.025,1.231,0,2.12.962,2.12,2.968v.54c2.968-2.35,5.4-3.891,6.668-3.891.5,0,1.467.731,1.467,1.2C260.909,307.393,260.026,307.55,258.716,308.438Z" transform="translate(-177.903 -296.835)"/><path class="a" d="M275.713,325.365a5.225,5.225,0,0,1-4.278-3.12c-3.508,7.168-6.359,12.447-7.629,12.447a2.932,2.932,0,0,1-2.237-2.35c0-1.04,3.047-6.628,7.055-14.258,4.048-7.629,6.938-13.645,7.826-13.645,1.231,0,2.7.692,2.7,1.271a6.8,6.8,0,0,1-.692,2.08c1.619-1.2,3.39-2.237,5.049-2.237,2.311,0,3.547,1.5,3.547,4.47C287.042,315.768,281.032,325.365,275.713,325.365Zm5.74-17.187c-1,0-2.929,1.467-4.548,2.851-.888,1.889-2.08,4.278-3.508,7.207.388,1.81,1.158,3.547,2.159,3.547,2.12,0,7.055-9.945,7.055-12.256C282.611,308.757,282.224,308.178,281.453,308.178Z" transform="translate(-189.43 -296.152)"/><path class="a" d="M316.763,309.56a11.211,11.211,0,0,0-.579,3.12,1.454,1.454,0,0,0,1.5,1.349c3.66,0,8.365-8.017,8.787-8.017s.5.849.5,1.271c0,1.349-5.976,9.405-10.946,9.405-2.272,0-4.509-2.429-4.509-4.239,0-6.167,10.485-24.821,17.923-24.821,1.5,0,2.7.888,2.7,1.5C332.139,290.71,323.391,305.974,316.763,309.56Zm12.217-18.733c-.579,0-6.938,7.747-10.485,14.646,4.161-3.39,10.6-13.836,10.6-14.528A.118.118,0,0,0,328.98,290.828Z" transform="translate(-214.872 -287.59)"/><path class="a" d="M359.013,317.276c-1.967,3.891-5.166,5.51-7.59,5.51h-.309c-2,2.2-4.357,3.739-6.859,3.739-3.238,0-5.4-1.81-5.4-5.51,0-5.628,5.628-14.376,11.869-14.376,1.119,0,2.041.5,3.12.5,1.81,0,2.507,1.541,2.507,3.081a19.855,19.855,0,0,1-2.929,9.366,1.971,1.971,0,0,0,.653.152c2.237,0,3.891-3.817,4.43-3.817.309,0,.579.5.579,1A.716.716,0,0,1,359.013,317.276Zm-6.668-7.978c-3.047,0-7.939,6.668-7.939,11.255,0,1.31.461,2.237,1.658,2.237a3.636,3.636,0,0,0,2.08-.81,2.867,2.867,0,0,1-1.541-2.468,2.487,2.487,0,0,1,2.581-2.581,3.436,3.436,0,0,1,2.272,1,16.147,16.147,0,0,0,2.311-6.668C353.773,310.3,353.464,309.3,352.346,309.3Z" transform="translate(-228.798 -297.273)"/><path class="a" d="M383.8,324.1a3.975,3.975,0,0,1-4.318-4.2c0-3.778,5.2-10.716,5.2-10.828a4.772,4.772,0,0,0-1.928-.618c-.152,0-.27.039-.309.118-1.889,3.081-3.778,5.9-5.127,7.826a.548.548,0,0,1-.422.309c-.348,0-.579-.461-.579-1.158a2.047,2.047,0,0,1,.348-.849,31.871,31.871,0,0,0,2.541-4.43c1.158-2.311,1.389-3.969,2.12-5.706.77-1.928,1.349-2.311,2.62-2.311.579,0,.888.348.888,1a2.316,2.316,0,0,1-.388,1.2c0,.152.231.27.849.27,1.81,0,3.969-.309,4.509-.309,1.079,0,2.507,2.12,2.507,3.008,0,.692-1.2,1.31-2.041,2.272-1.467,1.58-5.436,7.168-5.436,10.176a.533.533,0,0,0,.54.579c.962,0,2.7-1.5,4.008-3.12,1.462-1.771,2.7-3.7,2.89-3.7.348,0,.5.692.5,1.389C392.779,315.732,387.151,324.1,383.8,324.1Z" transform="translate(-247.879 -295.037)"/><path class="a" d="M419,326.223c-2.7,0-3.312-3.2-3.43-3.2s-2.929,3.547-6.128,3.547c-2.12,0-4.2-1.737-4.2-5.166,0-5.667,6.707-14.606,13.026-14.606a3.429,3.429,0,0,1,3.508,2.659c.191,0,2.237-2.507,2.929-2.507a2.769,2.769,0,0,1,1.119.231c.388.078.962.152.962.692,0,2.12-6.786,11.677-6.786,14.067,0,.388.191.653.579.653,2.468,0,6.516-6.82,6.9-6.82.348,0,.5.653.5,1.389S422.346,326.223,419,326.223Zm-1.31-17.3c-3.12,0-7.629,8.056-7.629,11.834,0,1.231.422,1.928,1.192,1.928,1,0,3.7-1.85,3.7-2.581,0-.309-.81-.388-1.119-.388V319.4c1-.27,5.436-4.818,5.436-8.365C419.265,309.841,418.608,308.919,417.685,308.919Z" transform="translate(-262.61 -297.354)"/><path class="a" d="M455.35,324.1a3.975,3.975,0,0,1-4.318-4.2c0-3.778,5.2-10.716,5.2-10.828a4.772,4.772,0,0,0-1.928-.618c-.152,0-.27.039-.309.118-1.889,3.081-3.778,5.9-5.127,7.826a.548.548,0,0,1-.422.309c-.348,0-.579-.461-.579-1.158a2.047,2.047,0,0,1,.348-.849,31.878,31.878,0,0,0,2.541-4.43c1.158-2.311,1.389-3.969,2.12-5.706.77-1.928,1.349-2.311,2.62-2.311.579,0,.888.348.888,1a2.316,2.316,0,0,1-.388,1.2c0,.152.231.27.849.27,1.81,0,3.969-.309,4.509-.309,1.079,0,2.507,2.12,2.507,3.008,0,.692-1.2,1.31-2.041,2.272-1.467,1.58-5.436,7.168-5.436,10.176a.533.533,0,0,0,.54.579c.962,0,2.7-1.5,4.008-3.12,1.462-1.771,2.7-3.7,2.89-3.7.348,0,.5.692.5,1.389C464.334,315.732,458.706,324.1,455.35,324.1Z" transform="translate(-284.324 -295.037)"/></g></g></svg>