<svg xmlns="http://www.w3.org/2000/svg" width="161.874" height="54.92" viewBox="0 0 161.874 54.92"><defs><style>.a{fill:#fff;}</style></defs><g transform="translate(-676.768 0)"><g transform="translate(690.833 0)"><path class="a" d="M177.859,689.441c-1.695,0-2.749-.025-3.934-.025-1.518,0-2.854.025-4.367.076,0,1.9-.025,3.57-.05,5.472,1.8-.076,3.878-.025,5.86-.1l-.207,2.027c-2.083,0-3.9,0-5.7.076-.076,2.285-.1,4.266-.207,6.062a44.758,44.758,0,0,1,4.675-.1c1.261,0,2.542,0,3.8-.05l.076,2.159c-1.876,0-4.367-.025-6.269-.025-1.261,0-2.88.025-4.957.1.282-5.6.358-8.583.358-12.668,0-1.462-.025-3.006-.025-4.932,3.47-.126,6.6-.156,11.1-.156Z" transform="translate(-166.578 -687.353)"/><path class="a" d="M202,697.608c0-2.2-1.362-3.52-4.04-3.52-2.138,0-3.328.711-3.328,1.881,0,2.355,4.625,2.138,7,3.369a4.054,4.054,0,0,1,2.375,3.737c0,2.7-2.032,4.645-5.336,4.645-3.112,0-6.178-1.947-6.178-5.184a4.569,4.569,0,0,1,.086-.757l1.553.172c.2,2.638,2.053,3.934,4.967,3.934,1.644,0,2.915-.711,2.915-2.527a2.331,2.331,0,0,0-1.276-1.77c-2.486-1.382-8.059-.862-8.059-5.27,0-2.249,2.073-3.934,5.573-3.934,2.94,0,5.361,1.468,5.361,4.256a5.245,5.245,0,0,1-.066.822Z" transform="translate(-179.426 -689.846)"/><path class="a" d="M246.279,692.888c-.02.908-.045,1.836-.045,2.809,0,4.276.237,8.664.3,11.947l-2.2.086c-.086-2.875-.3-8.17-.323-10.934-1.256,2.915-3.586,8.059-4.69,10.828-.605.045-1.21.066-1.816.086-1.1-2.829-3.091-7.736-4.191-10.434V707.71h-1.8c0-3.46.02-6.591.02-9.617,0-1.75,0-3.46-.02-5.144l2.506-.106c1.816,4.105,3.091,7.625,4.776,11.841,1.684-3.717,3.434-7.953,4.993-11.821Z" transform="translate(-198.768 -690.074)"/><path class="a" d="M279.386,700.286c0,4.387-2.743,7.413-7.368,7.413-3.651,0-6.48-2.612-6.48-7,0-4.453,2.335-8.407,7.086-8.407C276.925,692.293,279.386,695.142,279.386,700.286Zm-11.518-.388c0,4.211,1.816,5.941,4.428,5.941,3.414,0,4.776-2.1,4.776-5.1,0-4.493-1.513-6.612-4.579-6.612C269.467,694.129,267.868,696.746,267.868,699.9Z" transform="translate(-215.631 -689.802)"/><path class="a" d="M311.989,692.888c-.02.908-.045,1.836-.045,2.809,0,4.276.237,8.664.3,11.947l-2.2.086c-.086-2.875-.3-8.17-.323-10.934-1.256,2.915-3.586,8.059-4.69,10.828-.605.045-1.21.066-1.816.086-1.1-2.829-3.091-7.736-4.191-10.434V707.71h-1.8c0-3.46.02-6.591.02-9.617,0-1.75,0-3.46-.02-5.144l2.506-.106c1.816,4.105,3.091,7.625,4.776,11.841,1.684-3.717,3.434-7.953,4.993-11.821Z" transform="translate(-231.34 -690.074)"/><path class="a" d="M341.344,694.643c-1.427,0-2.31-.02-3.308-.02-1.276,0-2.4.02-3.671.066,0,1.6-.02,3.006-.04,4.6,1.513-.066,3.263-.02,4.927-.086l-.171,1.7c-1.75,0-3.283,0-4.8.066-.066,1.921-.086,3.586-.171,5.1a37.3,37.3,0,0,1,3.934-.086c1.059,0,2.138,0,3.2-.045l.066,1.815c-1.578,0-3.671-.02-5.27-.02-1.059,0-2.421.02-4.171.086.237-4.71.3-7.217.3-10.651,0-1.231-.02-2.527-.02-4.15,2.915-.106,5.552-.131,9.335-.131Z" transform="translate(-248.51 -690.099)"/><path class="a" d="M365.9,692.8c-.106,2.506-.171,5.835-.171,9.92,0,1.947.02,3.611.04,5.033l-2.441.151c-2.441-3.954-5.532-8.75-7.086-11.17-.066,1.836-.106,5.4-.106,10.888l-1.578.086c.045-2.764.066-5.512.066-8.3,0-2.159-.02-4.322-.066-6.506l2.486-.066a108.642,108.642,0,0,0,6.894,11.408c.086-1.251.131-5.058.131-11.387Z" transform="translate(-259.758 -690.055)"/><path class="a" d="M384.756,707.659c.151-4.453.151-8.684.151-13.006-1.664,0-3.132.02-4.559.045v-1.684c2.915-.106,5.23-.151,7.716-.151,1.362,0,2.854.02,3.888.045,0,.585-.045,1.145-.086,1.73-1.276,0-2.895-.02-4.73-.02,0,4.216,0,8.382-.151,12.92Z" transform="translate(-272.541 -690.084)"/><path class="a" d="M417.676,700.286c0,4.387-2.743,7.413-7.368,7.413-3.651,0-6.48-2.612-6.48-7,0-4.453,2.335-8.407,7.086-8.407C415.21,692.293,417.676,695.142,417.676,700.286Zm-11.518-.388c0,4.211,1.816,5.941,4.428,5.941,3.414,0,4.776-2.1,4.776-5.1,0-4.493-1.513-6.612-4.579-6.612C407.757,694.129,406.158,696.746,406.158,699.9Z" transform="translate(-284.18 -689.802)"/></g><circle class="a" cx="2.854" cy="2.854" r="2.854" transform="translate(676.768 7.392)"/><circle class="a" cx="2.854" cy="2.854" r="2.854" transform="translate(832.933 7.392)"/><g transform="translate(685.336 24.499)"><path class="a" d="M170.587,537.492c0,.4.2.676.6.676,2.537,0,6.7-7.01,7.05-7.01.4,0,.555.676.555,1.427s-5.784,9.31-9.269,9.31a4.357,4.357,0,0,1-4.277-3.288c-.555.872-2.89,3.646-5.426,3.646-2.179,0-4.317-1.78-4.317-5.31,0-5.825,6.894-15.013,13.389-15.013,2.259,0,2.733,2.375,2.774,2.733,1.069-1.9,6.021-12.441,6.813-12.441,1.584,0,2.653,1.821,2.653,3.132C181.127,516.891,170.587,534.244,170.587,537.492Zm-2.5-13.193c-3.369,0-7.645,8.356-7.645,12.164,0,1.109.4,1.785,1.231,1.785,2.259,0,8-10.222,8-11.211C169.674,525.01,168.882,524.3,168.091,524.3Z" transform="translate(-155.498 -512.221)"/><path class="a" d="M202.069,551.781c-2.693,0-4.791-2.733-4.791-5.981,0-5.033,5.941-14.065,11.251-14.065,1.427,0,2.179-.434,3.011-.434,1.266,0,2.456,1.468,2.456,3.011,0,2.971-4.4,8.119-10.777,8.119a1.088,1.088,0,0,1-.358-.04,8.576,8.576,0,0,0-.832,3.248c0,1.745.635,2.854,2.1,2.854,5.27,0,9.627-7.842,10.1-7.842.434,0,.474.711.474,1.306C214.707,543.384,208.645,551.781,202.069,551.781Zm8.281-18.18c-1.387,0-4.519,3.328-6.5,6.813,3.132-.676,7.212-3.883,7.212-6.143C211.066,533.838,210.824,533.6,210.35,533.6Z" transform="translate(-176.208 -521.679)"/><path class="a" d="M255.486,552.1c-2.97,0-5.588-1.982-5.588-6.259,0-5.033,5.588-14.181,11.055-14.181,1.266,0,1.624-.358,2.89-.358,1.821,0,3.207.913,3.207,3.883a5.076,5.076,0,0,1-2.612,4.241,7.378,7.378,0,0,1-2.774.953c-.277,0-.237-.081-.237-.2s.2-.121.474-.515a12.608,12.608,0,0,0,1.387-5.149c0-.555-.121-.913-.514-.913-1.387,0-7.726,7.6-7.726,12.517a2.619,2.619,0,0,0,2.5,2.733c5.865,0,10.142-8.2,10.616-8.2s.474.913.474,1.387C268.638,542.749,263.252,552.1,255.486,552.1Z" transform="translate(-202.291 -521.679)"/><path class="a" d="M291.119,549.368a4.086,4.086,0,0,1-4.438-4.317c0-3.883,5.346-11.014,5.346-11.13a4.9,4.9,0,0,0-1.982-.635c-.156,0-.277.04-.318.121-1.942,3.167-3.883,6.062-5.27,8.044a.563.563,0,0,1-.434.318c-.358,0-.6-.474-.6-1.19a2.1,2.1,0,0,1,.358-.872,32.762,32.762,0,0,0,2.612-4.554c1.19-2.375,1.427-4.08,2.179-5.865.792-1.982,1.387-2.375,2.693-2.375.6,0,.913.358.913,1.029a2.38,2.38,0,0,1-.4,1.231c0,.156.237.277.872.277,1.861,0,4.08-.318,4.635-.318,1.109,0,2.577,2.179,2.577,3.091,0,.711-1.231,1.347-2.1,2.335-1.508,1.624-5.588,7.368-5.588,10.459a.548.548,0,0,0,.555.6c.988,0,2.774-1.543,4.12-3.207,1.5-1.821,2.774-3.8,2.97-3.8.358,0,.514.711.514,1.427C300.353,540.77,294.568,549.368,291.119,549.368Z" transform="translate(-218.911 -519.503)"/><path class="a" d="M317.619,551.781c-2.693,0-4.791-2.733-4.791-5.981,0-5.033,5.941-14.065,11.251-14.065,1.427,0,2.179-.434,3.011-.434,1.266,0,2.456,1.468,2.456,3.011,0,2.971-4.4,8.119-10.777,8.119a1.088,1.088,0,0,1-.358-.04,8.576,8.576,0,0,0-.832,3.248c0,1.745.635,2.854,2.1,2.854,5.27,0,9.627-7.842,10.1-7.842.434,0,.474.711.474,1.306C330.257,543.384,324.2,551.781,317.619,551.781ZM325.9,533.6c-1.387,0-4.519,3.328-6.5,6.813,3.132-.676,7.212-3.883,7.212-6.143A.623.623,0,0,0,325.9,533.6Z" transform="translate(-233.485 -521.679)"/><path class="a" d="M348.646,552.1c-2.97,0-5.588-1.982-5.588-6.259,0-5.033,5.588-14.181,11.055-14.181,1.266,0,1.624-.358,2.89-.358,1.821,0,3.207.913,3.207,3.883a5.076,5.076,0,0,1-2.612,4.241,7.379,7.379,0,0,1-2.774.953c-.277,0-.237-.081-.237-.2s.2-.121.474-.515a12.608,12.608,0,0,0,1.387-5.149c0-.555-.121-.913-.514-.913-1.387,0-7.726,7.6-7.726,12.517a2.619,2.619,0,0,0,2.5,2.733c5.86,0,10.142-8.2,10.616-8.2s.474.913.474,1.387C361.8,542.749,356.412,552.1,348.646,552.1Z" transform="translate(-248.469 -521.679)"/><path class="a" d="M380.769,551.781c-2.693,0-4.791-2.733-4.791-5.981,0-5.033,5.941-14.065,11.251-14.065,1.427,0,2.179-.434,3.011-.434,1.266,0,2.456,1.468,2.456,3.011,0,2.971-4.4,8.119-10.777,8.119a1.088,1.088,0,0,1-.358-.04,8.576,8.576,0,0,0-.832,3.248c0,1.745.635,2.854,2.1,2.854,5.27,0,9.627-7.842,10.1-7.842.434,0,.474.711.474,1.306C393.407,543.384,387.345,551.781,380.769,551.781Zm8.281-18.18c-1.387,0-4.519,3.328-6.5,6.813,3.132-.676,7.212-3.883,7.212-6.143A.623.623,0,0,0,389.05,533.6Z" transform="translate(-264.787 -521.679)"/><path class="a" d="M414.6,549.368a4.086,4.086,0,0,1-4.438-4.317c0-3.883,5.346-11.014,5.346-11.13a4.9,4.9,0,0,0-1.982-.635c-.156,0-.277.04-.318.121-1.942,3.167-3.883,6.062-5.27,8.044a.563.563,0,0,1-.434.318c-.358,0-.6-.474-.6-1.19a2.1,2.1,0,0,1,.358-.872,32.76,32.76,0,0,0,2.612-4.554c1.19-2.375,1.427-4.08,2.179-5.865.792-1.982,1.387-2.375,2.693-2.375.6,0,.913.358.913,1.029a2.38,2.38,0,0,1-.4,1.231c0,.156.237.277.872.277,1.861,0,4.08-.318,4.635-.318,1.109,0,2.577,2.179,2.577,3.091,0,.711-1.23,1.347-2.1,2.335-1.508,1.624-5.588,7.368-5.588,10.459a.548.548,0,0,0,.555.6c.988,0,2.774-1.543,4.12-3.207,1.5-1.821,2.774-3.8,2.97-3.8.358,0,.514.711.514,1.427C423.828,540.77,418.048,549.368,414.6,549.368Z" transform="translate(-280.119 -519.503)"/></g></g></svg>