<svg xmlns="http://www.w3.org/2000/svg" viewBox="0 0 81.36 81.36"><defs><style>.cls-1{fill:#074a7b;}</style></defs><g id="Layer_2" data-name="Layer 2"><g id="Objects"><path class="cls-1" d="M59.06,27.66A7.31,7.31,0,0,0,57.3,25a7.11,7.11,0,0,0-2.71-1.76,12.86,12.86,0,0,0-4.36-.81c-2.48-.11-3.23-.14-9.51-.14s-7,0-9.5.14a13,13,0,0,0-4.37.81,7.81,7.81,0,0,0-4.46,4.46A13,13,0,0,0,21.58,32c-.11,2.48-.14,3.22-.14,9.5s0,7,.14,9.51a12.86,12.86,0,0,0,.81,4.36,7.11,7.11,0,0,0,1.76,2.71,7.31,7.31,0,0,0,2.7,1.76,13.26,13.26,0,0,0,4.37.81c2.48.11,3.22.14,9.5.14s7,0,9.51-.14a13.12,13.12,0,0,0,4.36-.81,7.77,7.77,0,0,0,4.47-4.47A13.12,13.12,0,0,0,59.87,51c.11-2.48.14-3.23.14-9.51s0-7-.14-9.5A13.26,13.26,0,0,0,59.06,27.66Zm-18.34,26A12.08,12.08,0,1,1,52.8,41.53,12.07,12.07,0,0,1,40.72,53.61ZM53.28,31.8A2.82,2.82,0,1,1,56.1,29,2.82,2.82,0,0,1,53.28,31.8Z"/><path class="cls-1" d="M40.72,33.69a7.84,7.84,0,1,0,7.84,7.84A7.84,7.84,0,0,0,40.72,33.69Z"/><path class="cls-1" d="M40.68,0A40.68,40.68,0,1,0,81.36,40.68,40.68,40.68,0,0,0,40.68,0ZM64.1,51.23A17.25,17.25,0,0,1,63,56.94a12,12,0,0,1-6.88,6.88,17.25,17.25,0,0,1-5.71,1.09c-2.51.12-3.31.14-9.7.14s-7.19,0-9.69-.14a17.14,17.14,0,0,1-5.71-1.09,11.61,11.61,0,0,1-4.17-2.71,11.48,11.48,0,0,1-2.71-4.17,17.48,17.48,0,0,1-1.1-5.71c-.11-2.51-.14-3.31-.14-9.7s0-7.19.14-9.69a17.37,17.37,0,0,1,1.1-5.71,12,12,0,0,1,6.88-6.88A17.37,17.37,0,0,1,31,18.15c2.5-.11,3.31-.14,9.69-.14s7.19,0,9.7.14a17.48,17.48,0,0,1,5.71,1.1A11.48,11.48,0,0,1,60.3,22,11.61,11.61,0,0,1,63,26.13a17.14,17.14,0,0,1,1.09,5.71c.12,2.5.14,3.31.14,9.69S64.22,48.72,64.1,51.23Z"/></g></g></svg>