<svg xmlns="http://www.w3.org/2000/svg" viewBox="0 0 81.36 81.36"><defs><style>.cls-1{fill:#074a7b;}</style></defs><g id="Layer_2" data-name="Layer 2"><g id="Objects"><path class="cls-1" d="M40.68,0A40.68,40.68,0,1,0,81.36,40.68,40.68,40.68,0,0,0,40.68,0ZM61.89,33.36c.6,13.19-9.24,27.89-26.65,27.89A26.55,26.55,0,0,1,20.86,57a18.85,18.85,0,0,0,13.89-3.88A9.38,9.38,0,0,1,26,46.64a9.23,9.23,0,0,0,4.23-.16,9.37,9.37,0,0,1-7.52-9.31A9.25,9.25,0,0,0,27,38.34a9.38,9.38,0,0,1-2.9-12.52,26.58,26.58,0,0,0,19.33,9.8,9.38,9.38,0,0,1,16-8.55,18.65,18.65,0,0,0,6-2.28A9.43,9.43,0,0,1,61.19,30a18.73,18.73,0,0,0,5.38-1.48A18.65,18.65,0,0,1,61.89,33.36Z"/></g></g></svg>