<svg xmlns="http://www.w3.org/2000/svg" viewBox="0 0 81.36 81.36"><defs><style>.cls-1{fill:#074a7b;}</style></defs><g id="Layer_2" data-name="Layer 2"><g id="Objects"><path class="cls-1" d="M41.22,19.06a19.4,19.4,0,0,0-19.33,17.4c-.06.62-.09,1.25-.09,1.88a19.12,19.12,0,0,0,3.69,11.3L23.07,56.8l7.46-2.38A19.44,19.44,0,0,0,60.64,38.34c0-.51,0-1-.06-1.51A19.39,19.39,0,0,0,41.22,19.06ZM52.55,46.28c-.46,1.32-2.78,2.59-3.81,2.68s-1,.84-6.81-1.4-9.38-8.12-9.66-8.49a12.71,12.71,0,0,1-2-3.89A7.32,7.32,0,0,1,30,33.26a6.27,6.27,0,0,1,2-4.69,2.1,2.1,0,0,1,1.51-.7c.38,0,.76.05,1.09.05s.81-.19,1.27.93,1.61,3.89,1.75,4.17a1,1,0,0,1,.05,1,6.78,6.78,0,0,1-.36.67c-.06.09-.13.17-.21.27-.29.32-.59.72-.85,1s-.57.59-.25,1.15A16.9,16.9,0,0,0,39.08,41a15.15,15.15,0,0,0,4.55,2.79c.58.28.9.24,1.23-.14s1.42-1.63,1.8-2.19.76-.48,1.28-.28,3.29,1.54,3.87,1.82.94.43,1.08.65A4.63,4.63,0,0,1,52.55,46.28Z"/><path class="cls-1" d="M40.68,0A40.68,40.68,0,1,0,81.36,40.68,40.68,40.68,0,0,0,40.68,0Zm.54,61.26a23.22,23.22,0,0,1-11.16-2.85l-12.8,4.06,4.17-12.29a22.74,22.74,0,0,1-3.31-11.84c0-.34,0-.68,0-1a23.11,23.11,0,0,1,46.17.42c0,.2,0,.39,0,.59A23,23,0,0,1,41.22,61.26Z"/></g></g></svg>