<svg xmlns="http://www.w3.org/2000/svg" viewBox="0 0 81.36 81.36"><defs><style>.cls-1{fill:#074a7b;}</style></defs><g id="Layer_2" data-name="Layer 2"><g id="Layer_1-2" data-name="Layer 1"><path class="cls-1" d="M50.59,39.17l-14.33-9a1.8,1.8,0,0,0-1.82-.06,1.83,1.83,0,0,0-.93,1.57V49.64a1.82,1.82,0,0,0,.93,1.57,1.9,1.9,0,0,0,.87.22,1.63,1.63,0,0,0,.95-.28l14.33-9a1.78,1.78,0,0,0,0-3Z"/><path class="cls-1" d="M40.68,0A40.68,40.68,0,1,0,81.36,40.68,40.68,40.68,0,0,0,40.68,0ZM64.87,52.83a6.34,6.34,0,0,1-5.4,5.07,168.16,168.16,0,0,1-18.79.7,168.16,168.16,0,0,1-18.79-.7,6.42,6.42,0,0,1-5.43-5.07,56.65,56.65,0,0,1-.87-12.15,54.8,54.8,0,0,1,.9-12.15,6.4,6.4,0,0,1,5.4-5.07,168.16,168.16,0,0,1,18.79-.7,168.16,168.16,0,0,1,18.79.7,6.42,6.42,0,0,1,5.43,5.07,56.65,56.65,0,0,1,.87,12.15A54.8,54.8,0,0,1,64.87,52.83Z"/></g></g></svg>