<svg xmlns="http://www.w3.org/2000/svg" viewBox="0 0 680 58.92"><g id="b9ecaf14-c93e-4ed2-a8bd-2de619d41766" data-name="Layer 2"><g id="b5925dde-437e-49c0-98c8-1cf73ad6dcfb" data-name="Layer 1"><rect y="13" width="166" height="3" rx="1" fill="#378ef0"/><rect x="166" y="13" width="166" height="3" rx="1" fill="#378ef0"/><rect x="332" y="13" width="166" height="3" rx="1" fill="#e0e0e0"/><rect x="498" y="13" width="166" height="3" rx="1" fill="#e0e0e0"/><circle cx="166" cy="15" r="14" fill="#378ef0"/><circle cx="332" cy="14" r="14" fill="#378ef0"/><circle cx="498" cy="14" r="14" fill="#e0e0e0"/><text transform="translate(49.22 39.66)" font-size="14" font-family="SourceSansPro-SemiBold, Source Sans Pro" font-weight="600" style="isolation:isolate">Simulación</text><text transform="translate(51.94 54.66)" font-size="14" font-family="SourceSansPro-SemiBold, Source Sans Pro" font-weight="600" style="isolation:isolate">de C<tspan x="25.86" y="0" letter-spacing="-0.01em">r</tspan><tspan x="30.94" y="0">édi</tspan><tspan x="49.6" y="0" letter-spacing="-0.02em">t</tspan><tspan x="54.43" y="0">o</tspan></text><text transform="translate(184.43 39.66)" font-size="14" font-family="SourceSansPro-SemiBold, Source Sans Pro" font-weight="600">In<tspan x="11.79" y="0" letter-spacing="-0.01em">f</tspan><tspan x="16.09" y="0">ormación </tspan><tspan x="76.48" y="0" letter-spacing="-0.02em">P</tspan><tspan x="84.32" y="0" letter-spacing="0em">e</tspan><tspan x="91.42" y="0" letter-spacing="-0.01em">r</tspan><tspan x="96.56" y="0" letter-spacing="0em">sonal</tspan></text><text transform="translate(217.01 54.66)" font-size="14" font-family="SourceSansPro-SemiBold, Source Sans Pro" font-weight="600">del Clien<tspan x="52.05" y="0" letter-spacing="-0.02em">t</tspan><tspan x="56.88" y="0">e</tspan></text><text transform="translate(341.04 39.66)" font-size="14" fill="#c3c3c3" font-family="SourceSansPro-SemiBold, Source Sans Pro" font-weight="600" style="isolation:isolate">In<tspan x="11.79" y="0" letter-spacing="-0.01em">f</tspan><tspan x="16.09" y="0">ormación de Solicitud</tspan></text><text transform="translate(383.94 54.66)" font-size="14" fill="#c3c3c3" font-family="SourceSansPro-SemiBold, Source Sans Pro" font-weight="600" style="isolation:isolate">de C<tspan x="25.86" y="0" letter-spacing="-0.01em">r</tspan><tspan x="30.94" y="0">édi</tspan><tspan x="49.6" y="0" letter-spacing="-0.02em">t</tspan><tspan x="54.43" y="0">o</tspan></text><text transform="translate(521.37 39.66)" font-size="14" fill="#c3c3c3" font-family="SourceSansPro-SemiBold, Source Sans Pro" font-weight="600" style="isolation:isolate">Confirmación de las</text><text transform="translate(511.57 54.66)" font-size="14" fill="#c3c3c3" font-family="SourceSansPro-SemiBold, Source Sans Pro" font-weight="600" style="isolation:isolate">Condiciones de C<tspan x="102.6" y="0" letter-spacing="-0.01em">r</tspan><tspan x="107.69" y="0">édi</tspan><tspan x="126.35" y="0" letter-spacing="-0.02em">t</tspan><tspan x="131.18" y="0">o</tspan></text><g style="isolation:isolate"><text transform="translate(161 20)" font-size="18" fill="#fff" font-family="SourceSansPro-Bold, Source Sans Pro" font-weight="700" style="isolation:isolate">1</text></g><g style="isolation:isolate"><text transform="translate(327 20)" font-size="18" fill="#fff" font-family="SourceSansPro-Bold, Source Sans Pro" font-weight="700" style="isolation:isolate">2</text></g><g style="isolation:isolate"><text transform="translate(494 20)" font-size="18" fill="#fff" font-family="SourceSansPro-Bold, Source Sans Pro" font-weight="700" style="isolation:isolate">3</text></g><circle cx="666" cy="14" r="14" fill="#e0e0e0"/><g style="isolation:isolate"><text transform="translate(661 20)" font-size="18" fill="#fff" font-family="SourceSansPro-Bold, Source Sans Pro" font-weight="700" style="isolation:isolate">4</text></g></g></g></svg>