<svg xmlns="http://www.w3.org/2000/svg" xmlns:xlink="http://www.w3.org/1999/xlink" width="289.49" height="65" viewBox="0 0 289.49 65"><defs><style>.a{fill:#fff;}.b{fill:#d62e2f;}.c{fill:#b1b1b1;}.d{fill:#074a7b;}.e{fill:url(#a);}.f{fill:url(#b);}.g{fill:url(#c);}.h{fill:url(#d);}.i{fill:url(#e);}.j{fill:url(#f);}.k{fill:#e4daa2;}.l{fill:url(#g);}</style><linearGradient id="a" x1="0.313" y1="-0.027" x2="0.612" y2="0.597" gradientUnits="objectBoundingBox"><stop offset="0" stop-color="#d62e2f"/><stop offset="1" stop-color="#ae2424"/></linearGradient><linearGradient id="b" x1="-91.263" y1="38.903" x2="-90.263" y2="38.903" gradientUnits="objectBoundingBox"><stop offset="0.055" stop-color="#fff"/><stop offset="0.368" stop-color="#e5cf84"/><stop offset="0.89" stop-color="#a9984b"/></linearGradient><linearGradient id="c" x1="-455.105" y1="112.155" x2="-457.711" y2="110.136" gradientUnits="objectBoundingBox"><stop offset="0.055" stop-color="#fff"/><stop offset="0.368" stop-color="#e5cf84"/><stop offset="0.89" stop-color="#8c8032"/></linearGradient><linearGradient id="d" x1="-135.332" y1="56.761" x2="-136.112" y2="55.757" xlink:href="#c"/><linearGradient id="e" x1="-122.169" y1="977.043" x2="-122.243" y2="1014.938" xlink:href="#c"/><linearGradient id="f" x1="-57.428" y1="22.825" x2="-57.463" y2="23.679" xlink:href="#c"/><linearGradient id="g" x1="0.5" y1="-0.147" x2="0.5" y2="1.16" xlink:href="#b"/></defs><path class="a" d="M397.576,836.377h7.043l-2.142-5.758c-.675-1.733-1.191-3.173-1.511-4.312a25.317,25.317,0,0,1-1.136,3.987Zm-5.978,8.532,7.953-20.741h3.006l8.462,20.741h-3.128l-2.389-6.3h-8.757l-2.234,6.3Z" transform="translate(-313.947 -812.355)"/><rect class="a" width="2.566" height="20.741" transform="translate(98.868 11.813)"/><path class="a" d="M422.963,844.909V829.855h2.567v15.053Zm0-17.854v-2.886h2.567v2.886Z" transform="translate(-317.601 -812.355)"/><path class="a" d="M439.831,838.065a19.823,19.823,0,0,1-4.23.962,10.015,10.015,0,0,0-2.266.505,2.27,2.27,0,0,0-1.026.831,2.223,2.223,0,0,0,.429,2.9,3.473,3.473,0,0,0,2.3.669,5.372,5.372,0,0,0,2.658-.645,4.033,4.033,0,0,0,1.7-1.747,6.1,6.1,0,0,0,.427-2.55Zm.136,5.689a8.545,8.545,0,0,1-2.7,1.685,7.925,7.925,0,0,1-2.833.509,5.524,5.524,0,0,1-3.846-1.225,3.907,3.907,0,0,1-1.339-3.089,3.977,3.977,0,0,1,.506-2.014,4.085,4.085,0,0,1,1.332-1.461,6.239,6.239,0,0,1,1.843-.84,18.383,18.383,0,0,1,2.292-.377,23.452,23.452,0,0,0,4.6-.883c0-.348.008-.568.008-.668a2.833,2.833,0,0,0-.728-2.2,4.363,4.363,0,0,0-2.923-.855,4.638,4.638,0,0,0-2.669.621,3.854,3.854,0,0,0-1.279,2.22l-2.559-.33a6.021,6.021,0,0,1,1.122-2.579,4.973,4.973,0,0,1,2.263-1.506,10.253,10.253,0,0,1,3.433-.523,9.03,9.03,0,0,1,3.144.449,3.564,3.564,0,0,1,2.583,2.864,13.377,13.377,0,0,1,.126,2.347v3.4a38.811,38.811,0,0,0,.163,4.509,5.973,5.973,0,0,0,.634,1.814h-2.616A5.255,5.255,0,0,1,439.968,843.754Z" transform="translate(-318.336 -813.063)"/><path class="a" d="M448.5,845.615V830.562h2.325V832.7a5.378,5.378,0,0,1,4.769-2.459,5.979,5.979,0,0,1,2.492.494,3.762,3.762,0,0,1,1.69,1.27,4.763,4.763,0,0,1,.79,1.888,14.072,14.072,0,0,1,.143,2.473v9.253h-2.559v-9.166a6.843,6.843,0,0,0-.3-2.331,2.436,2.436,0,0,0-1.051-1.236,3.306,3.306,0,0,0-1.762-.461,4.084,4.084,0,0,0-2.8,1.029c-.793.7-1.179,2-1.179,3.939v8.226Z" transform="translate(-320.577 -813.063)"/><path class="a" d="M465.222,845.658V843.6l9.494-11.046c-1.067.077-2.031.1-2.843.1h-6.1V830.6h12.266v1.665l-8.121,9.569-1.576,1.771c1.143-.1,2.22-.148,3.213-.148H478.5v2.2Z" transform="translate(-322.524 -813.105)"/><path class="a" d="M492.73,838.065a20.047,20.047,0,0,1-4.237.962,10.2,10.2,0,0,0-2.263.505,2.168,2.168,0,0,0-1.015.831,2.1,2.1,0,0,0-.37,1.2,2.141,2.141,0,0,0,.792,1.7,3.476,3.476,0,0,0,2.3.669,5.339,5.339,0,0,0,2.652-.645,3.99,3.99,0,0,0,1.709-1.747,6.084,6.084,0,0,0,.425-2.55Zm.146,5.689a8.64,8.64,0,0,1-2.7,1.685,7.95,7.95,0,0,1-2.833.509,5.569,5.569,0,0,1-3.856-1.225,3.945,3.945,0,0,1-1.337-3.089,4.021,4.021,0,0,1,.506-2.014,4.276,4.276,0,0,1,1.325-1.461,6.472,6.472,0,0,1,1.852-.84,18.7,18.7,0,0,1,2.285-.377,23.212,23.212,0,0,0,4.6-.883c0-.348.01-.568.01-.668a2.84,2.84,0,0,0-.728-2.2,4.365,4.365,0,0,0-2.922-.855,4.688,4.688,0,0,0-2.676.621,3.85,3.85,0,0,0-1.272,2.22l-2.564-.33a6.033,6.033,0,0,1,1.126-2.579,5.011,5.011,0,0,1,2.258-1.506,10.285,10.285,0,0,1,3.44-.523,9.063,9.063,0,0,1,3.149.449,3.975,3.975,0,0,1,1.776,1.134,4.126,4.126,0,0,1,.8,1.731,15.229,15.229,0,0,1,.129,2.347v3.4a37.464,37.464,0,0,0,.155,4.509,5.968,5.968,0,0,0,.633,1.814h-2.612A5.109,5.109,0,0,1,492.876,843.754Z" transform="translate(-324.495 -813.063)"/><path class="a" d="M512.066,837.377a6.471,6.471,0,0,0,1.236,4.328,3.684,3.684,0,0,0,5.791.064,6.276,6.276,0,0,0,1.179-4.171,6.911,6.911,0,0,0-1.213-4.525,3.683,3.683,0,0,0-2.962-1.447,3.6,3.6,0,0,0-2.874,1.383A6.755,6.755,0,0,0,512.066,837.377Zm8.116,7.532v-1.915a4.7,4.7,0,0,1-4.23,2.247,5.883,5.883,0,0,1-3.313-1,6.451,6.451,0,0,1-2.344-2.765,9.474,9.474,0,0,1-.841-4.082,10.6,10.6,0,0,1,.76-4.092,5.742,5.742,0,0,1,2.258-2.8,6.017,6.017,0,0,1,3.361-.976,5,5,0,0,1,2.428.566,4.9,4.9,0,0,1,1.728,1.488v-7.415h2.569v20.741Z" transform="translate(-327.676 -812.355)"/><path class="a" d="M530.56,836.62h8.385a5.021,5.021,0,0,0-.953-2.831,3.936,3.936,0,0,0-3.154-1.457,4.084,4.084,0,0,0-2.96,1.16A4.636,4.636,0,0,0,530.56,836.62Zm8.361,4.145,2.65.329a6.453,6.453,0,0,1-2.311,3.58,6.965,6.965,0,0,1-4.29,1.273,6.864,6.864,0,0,1-5.23-2.036,7.94,7.94,0,0,1-1.934-5.7,8.242,8.242,0,0,1,1.958-5.882,6.552,6.552,0,0,1,5.056-2.1,6.4,6.4,0,0,1,4.927,2.044,8.149,8.149,0,0,1,1.9,5.76c0,.145,0,.377-.005.675h-11.22a5.813,5.813,0,0,0,1.4,3.808,4.168,4.168,0,0,0,3.149,1.327,3.914,3.914,0,0,0,2.385-.747A4.838,4.838,0,0,0,538.921,840.765Z" transform="translate(-329.815 -813.063)"/><rect class="a" width="2.566" height="20.741" transform="translate(214.906 11.813)"/><path class="a" d="M569.475,844.909l-8.041-20.741h2.913l5.412,15.078c.435,1.213.8,2.342,1.1,3.4.315-1.129.7-2.265,1.118-3.4l5.619-15.078h2.8l-8.107,20.741Z" transform="translate(-333.731 -812.355)"/><path class="a" d="M592.441,838.065a19.951,19.951,0,0,1-4.235.962,10.148,10.148,0,0,0-2.263.505,2.2,2.2,0,0,0-1.014.831,2.075,2.075,0,0,0-.356,1.2,2.161,2.161,0,0,0,.776,1.7,3.484,3.484,0,0,0,2.3.669,5.348,5.348,0,0,0,2.65-.645,3.968,3.968,0,0,0,1.71-1.747,6.162,6.162,0,0,0,.415-2.55Zm.138,5.689a8.572,8.572,0,0,1-2.7,1.685,7.924,7.924,0,0,1-2.839.509,5.5,5.5,0,0,1-3.838-1.225,3.947,3.947,0,0,1-1.354-3.089,4.225,4.225,0,0,1,1.84-3.476,6.466,6.466,0,0,1,1.854-.84,18.747,18.747,0,0,1,2.292-.377,22.991,22.991,0,0,0,4.584-.883c.014-.348.019-.568.019-.668a2.8,2.8,0,0,0-.736-2.2,4.308,4.308,0,0,0-2.915-.855,4.653,4.653,0,0,0-2.671.621,3.821,3.821,0,0,0-1.28,2.22l-2.564-.33a6.223,6.223,0,0,1,1.127-2.579,5.074,5.074,0,0,1,2.263-1.506,10.309,10.309,0,0,1,3.442-.523,9.055,9.055,0,0,1,3.144.449,3.585,3.585,0,0,1,2.578,2.864,13.817,13.817,0,0,1,.127,2.347v3.4a36.4,36.4,0,0,0,.158,4.509,5.926,5.926,0,0,0,.634,1.814h-2.6A5.02,5.02,0,0,1,592.579,843.754Z" transform="translate(-336.109 -813.063)"/><rect class="a" width="2.568" height="20.741" transform="translate(262.7 11.813)"/><rect class="a" width="2.559" height="20.741" transform="translate(269.157 11.813)"/><path class="a" d="M617.492,836.62h8.391a5.15,5.15,0,0,0-.959-2.831,3.922,3.922,0,0,0-3.159-1.457,4.073,4.073,0,0,0-2.953,1.16A4.662,4.662,0,0,0,617.492,836.62Zm8.362,4.145,2.644.329a6.468,6.468,0,0,1-2.3,3.58,7.05,7.05,0,0,1-4.309,1.273,6.861,6.861,0,0,1-5.221-2.036,7.941,7.941,0,0,1-1.934-5.7,8.264,8.264,0,0,1,1.953-5.882,6.555,6.555,0,0,1,5.063-2.1,6.405,6.405,0,0,1,4.92,2.044,8.111,8.111,0,0,1,1.912,5.76c0,.145,0,.377-.014.675H617.346a5.876,5.876,0,0,0,1.4,3.808,4.18,4.18,0,0,0,3.146,1.327,3.875,3.875,0,0,0,2.382-.747A4.756,4.756,0,0,0,625.855,840.765Z" transform="translate(-339.939 -813.063)"/><path class="a" d="M398.435,867.228l1.214.308a4.02,4.02,0,0,1-1.358,2.259,3.7,3.7,0,0,1-2.409.784,4.274,4.274,0,0,1-2.392-.6,3.71,3.71,0,0,1-1.406-1.732,6.212,6.212,0,0,1-.485-2.442,5.286,5.286,0,0,1,.548-2.482,3.705,3.705,0,0,1,1.546-1.616,4.5,4.5,0,0,1,2.2-.546,3.779,3.779,0,0,1,2.3.694,3.711,3.711,0,0,1,1.3,1.961l-1.2.28a2.856,2.856,0,0,0-.913-1.449,2.466,2.466,0,0,0-1.515-.449,3.005,3.005,0,0,0-1.753.5,2.682,2.682,0,0,0-.984,1.35,5.286,5.286,0,0,0-.283,1.749,5.363,5.363,0,0,0,.337,2.021,2.514,2.514,0,0,0,1.047,1.3,3,3,0,0,0,1.544.421,2.619,2.619,0,0,0,1.708-.577A2.978,2.978,0,0,0,398.435,867.228Z" transform="translate(-313.947 -816.664)"/><path class="a" d="M404.05,867.467a2.8,2.8,0,0,0,.551,1.889,1.8,1.8,0,0,0,1.4.636,1.777,1.777,0,0,0,1.386-.636,2.841,2.841,0,0,0,.559-1.925,2.7,2.7,0,0,0-.561-1.846,1.851,1.851,0,0,0-2.785-.005A2.774,2.774,0,0,0,404.05,867.467Zm-1.137-.007a3.369,3.369,0,0,1,1.02-2.706,3.079,3.079,0,0,1,2.068-.731,2.974,2.974,0,0,1,2.22.887,3.385,3.385,0,0,1,.86,2.456,4.344,4.344,0,0,1-.379,2,2.6,2.6,0,0,1-1.118,1.121A3.108,3.108,0,0,1,406,870.9a2.978,2.978,0,0,1-2.237-.884A3.54,3.54,0,0,1,402.913,867.46Z" transform="translate(-315.265 -816.997)"/><path class="a" d="M413.21,867.467a2.76,2.76,0,0,0,.56,1.889,1.758,1.758,0,0,0,1.386.636,1.783,1.783,0,0,0,1.393-.636,2.87,2.87,0,0,0,.553-1.925,2.716,2.716,0,0,0-.553-1.846,1.812,1.812,0,0,0-1.393-.634,1.746,1.746,0,0,0-1.386.629A2.738,2.738,0,0,0,413.21,867.467Zm-1.142-.007a3.383,3.383,0,0,1,1.02-2.706,3.114,3.114,0,0,1,2.069-.731,2.975,2.975,0,0,1,2.223.887,3.384,3.384,0,0,1,.866,2.456,4.374,4.374,0,0,1-.386,2,2.629,2.629,0,0,1-1.112,1.121,3.138,3.138,0,0,1-1.591.409,2.978,2.978,0,0,1-2.234-.884A3.56,3.56,0,0,1,412.068,867.46Z" transform="translate(-316.334 -816.997)"/><path class="a" d="M422.726,867.5a2.861,2.861,0,0,0,.513,1.879,1.6,1.6,0,0,0,1.25.614,1.628,1.628,0,0,0,1.278-.636,3.765,3.765,0,0,0,.014-3.832,1.57,1.57,0,0,0-1.242-.622,1.6,1.6,0,0,0-1.269.664A2.966,2.966,0,0,0,422.726,867.5Zm-1.024,5.779V864.17h1.024v.859a2.555,2.555,0,0,1,.815-.755,2.2,2.2,0,0,1,1.1-.251,2.663,2.663,0,0,1,1.491.43,2.711,2.711,0,0,1,.976,1.229,4.462,4.462,0,0,1,.327,1.724,4.343,4.343,0,0,1-.363,1.821,2.749,2.749,0,0,1-2.514,1.67,2.268,2.268,0,0,1-1.005-.23,2.2,2.2,0,0,1-.725-.6v3.211Z" transform="translate(-317.455 -816.997)"/><path class="a" d="M431.657,866.834h3.682a2.215,2.215,0,0,0-.421-1.249,1.717,1.717,0,0,0-1.381-.654,1.764,1.764,0,0,0-1.3.524A2.046,2.046,0,0,0,431.657,866.834Zm3.674,1.786,1.147.162a2.821,2.821,0,0,1-1.011,1.559,3.039,3.039,0,0,1-1.882.557,3,3,0,0,1-2.287-.887,3.466,3.466,0,0,1-.852-2.5,3.6,3.6,0,0,1,.859-2.57,3.088,3.088,0,0,1,4.378-.021,3.56,3.56,0,0,1,.83,2.523c0,.062,0,.17,0,.3h-4.917a2.491,2.491,0,0,0,.614,1.659,1.847,1.847,0,0,0,1.379.586,1.711,1.711,0,0,0,1.049-.33A2.216,2.216,0,0,0,435.331,868.62Z" transform="translate(-318.473 -816.997)"/><path class="a" d="M440,870.757V864.17h1.016v1.014a2.92,2.92,0,0,1,.706-.938,1.236,1.236,0,0,1,.717-.222,2.176,2.176,0,0,1,1.139.355l-.395,1.033a1.678,1.678,0,0,0-.81-.228,1.038,1.038,0,0,0-.65.216,1.146,1.146,0,0,0-.4.61,4.129,4.129,0,0,0-.194,1.3v3.447Z" transform="translate(-319.586 -816.997)"/><path class="a" d="M450.143,867.445a8.334,8.334,0,0,1-1.839.417,4.041,4.041,0,0,0-.984.233.97.97,0,0,0-.44.352,1.034,1.034,0,0,0-.164.531.976.976,0,0,0,.348.749,1.487,1.487,0,0,0,1,.292,2.421,2.421,0,0,0,1.16-.275,1.763,1.763,0,0,0,.747-.772,2.663,2.663,0,0,0,.186-1.117Zm.092,2.489a3.972,3.972,0,0,1-1.188.744,3.557,3.557,0,0,1-1.244.219,2.441,2.441,0,0,1-1.687-.527,1.773,1.773,0,0,1-.586-1.362,1.831,1.831,0,0,1,.8-1.518,2.553,2.553,0,0,1,.81-.371,8.4,8.4,0,0,1,1-.17,9.461,9.461,0,0,0,2.011-.387c0-.153,0-.241,0-.281a1.184,1.184,0,0,0-.319-.952,1.942,1.942,0,0,0-1.286-.379,2.018,2.018,0,0,0-1.185.278,1.788,1.788,0,0,0-.56.984l-1.087-.156a2.807,2.807,0,0,1,.487-1.133,2.179,2.179,0,0,1,1-.664,4.307,4.307,0,0,1,1.5-.237,3.938,3.938,0,0,1,1.376.2,1.783,1.783,0,0,1,.772.492,1.753,1.753,0,0,1,.35.765,6.254,6.254,0,0,1,.056,1.029v1.477a16.234,16.234,0,0,0,.069,1.97,2.806,2.806,0,0,0,.265.8h-1.138A2.162,2.162,0,0,1,450.235,869.934Z" transform="translate(-320.23 -816.997)"/><path class="a" d="M457.484,869.474l.155.99a4.538,4.538,0,0,1-.851.094,1.924,1.924,0,0,1-.937-.19,1.053,1.053,0,0,1-.478-.5,4.008,4.008,0,0,1-.129-1.321v-3.789h-.833v-.869h.833v-1.634l1.117-.676v2.309h1.124v.869H456.36v3.857a1.828,1.828,0,0,0,.061.618.487.487,0,0,0,.188.216.813.813,0,0,0,.383.082A3.6,3.6,0,0,0,457.484,869.474Z" transform="translate(-321.263 -816.712)"/><path class="a" d="M460.28,870.445v-6.588H461.4v6.588Zm0-7.819v-1.282H461.4v1.282Z" transform="translate(-321.947 -816.685)"/><path class="a" d="M466.328,870.777l-2.473-6.588h1.2l1.4,3.947c.151.427.294.862.422,1.325.1-.349.235-.765.414-1.254l1.466-4.019h1.14l-2.484,6.588Z" transform="translate(-322.364 -817.018)"/><path class="a" d="M477.155,867.445a8.318,8.318,0,0,1-1.835.417,3.929,3.929,0,0,0-.98.233.958.958,0,0,0-.45.352.991.991,0,0,0-.153.531.95.95,0,0,0,.342.749,1.467,1.467,0,0,0,.995.292,2.447,2.447,0,0,0,1.165-.275,1.763,1.763,0,0,0,.74-.772,2.6,2.6,0,0,0,.184-1.117Zm.087,2.489a3.861,3.861,0,0,1-1.189.744,3.546,3.546,0,0,1-1.241.219,2.44,2.44,0,0,1-1.68-.527,1.742,1.742,0,0,1-.588-1.362,1.908,1.908,0,0,1,.216-.884,1.873,1.873,0,0,1,.588-.634,2.562,2.562,0,0,1,.808-.371,8.335,8.335,0,0,1,1-.17,9.21,9.21,0,0,0,2.008-.387c0-.153.007-.241.007-.281a1.206,1.206,0,0,0-.32-.952,1.929,1.929,0,0,0-1.282-.379,1.976,1.976,0,0,0-1.177.278,1.716,1.716,0,0,0-.565.984l-1.092-.156a2.651,2.651,0,0,1,.5-1.133,2.119,2.119,0,0,1,.991-.664,4.284,4.284,0,0,1,1.5-.237,3.915,3.915,0,0,1,1.373.2,1.755,1.755,0,0,1,.776.492,1.8,1.8,0,0,1,.349.765,5.861,5.861,0,0,1,.059,1.029v1.477a16.456,16.456,0,0,0,.066,1.97,2.717,2.717,0,0,0,.263.8h-1.142A2.392,2.392,0,0,1,477.242,869.934Z" transform="translate(-323.376 -816.997)"/><path class="a" d="M487.952,867.162a2.829,2.829,0,0,0,.542,1.885,1.635,1.635,0,0,0,1.271.633,1.607,1.607,0,0,0,1.253-.61,2.708,2.708,0,0,0,.516-1.821,3.045,3.045,0,0,0-.527-1.976,1.649,1.649,0,0,0-1.3-.634,1.568,1.568,0,0,0-1.25.605A2.953,2.953,0,0,0,487.952,867.162Zm3.545,3.283v-.831a2.064,2.064,0,0,1-1.839.971,2.6,2.6,0,0,1-1.454-.428,2.836,2.836,0,0,1-1.017-1.21,4.1,4.1,0,0,1-.367-1.792,4.578,4.578,0,0,1,.323-1.785,2.555,2.555,0,0,1,.991-1.229,2.608,2.608,0,0,1,1.468-.43,2.2,2.2,0,0,1,1.05.251,2.384,2.384,0,0,1,.758.654v-3.272h1.122v9.1Z" transform="translate(-325.04 -816.685)"/><path class="a" d="M497.242,866.834h3.681a2.209,2.209,0,0,0-.42-1.249,1.72,1.72,0,0,0-1.379-.654,1.774,1.774,0,0,0-1.3.524A2.021,2.021,0,0,0,497.242,866.834Zm3.67,1.786,1.153.162a2.837,2.837,0,0,1-1.009,1.559,3.054,3.054,0,0,1-1.889.557,3.01,3.01,0,0,1-2.288-.887,3.484,3.484,0,0,1-.847-2.5,3.629,3.629,0,0,1,.854-2.57,2.9,2.9,0,0,1,2.224-.921,2.806,2.806,0,0,1,2.151.9,3.522,3.522,0,0,1,.837,2.523c0,.062,0,.17-.007.3h-4.917a2.565,2.565,0,0,0,.616,1.659,1.834,1.834,0,0,0,1.377.586,1.721,1.721,0,0,0,1.056-.33A2.153,2.153,0,0,0,500.913,868.62Z" transform="translate(-326.111 -816.997)"/><path class="a" d="M512.4,866.708H515.5l-.959-2.52c-.278-.769-.5-1.4-.642-1.9a10.882,10.882,0,0,1-.5,1.749Zm-2.607,3.737,3.471-9.1h1.32l3.713,9.1h-1.365l-1.041-2.753h-3.829l-1,2.753Z" transform="translate(-327.715 -816.685)"/><path class="a" d="M521.512,870.445v-9.1h1.125v3.272a2.476,2.476,0,0,1,1.958-.9,2.586,2.586,0,0,1,1.263.291,1.7,1.7,0,0,1,.774.793,3.809,3.809,0,0,1,.225,1.48v4.17h-1.119v-4.17a1.706,1.706,0,0,0-.363-1.218,1.317,1.317,0,0,0-1.007-.381,1.8,1.8,0,0,0-.929.255,1.46,1.46,0,0,0-.622.7,3.267,3.267,0,0,0-.181,1.214v3.6Z" transform="translate(-329.079 -816.685)"/><path class="a" d="M531.342,867.467a2.76,2.76,0,0,0,.553,1.889,1.836,1.836,0,0,0,2.78,0,2.832,2.832,0,0,0,.558-1.925,2.7,2.7,0,0,0-.558-1.846,1.786,1.786,0,0,0-1.39-.634,1.756,1.756,0,0,0-1.39.629A2.738,2.738,0,0,0,531.342,867.467Zm-1.139-.007a3.381,3.381,0,0,1,1.016-2.706,3.1,3.1,0,0,1,2.066-.731,2.968,2.968,0,0,1,2.223.887,3.386,3.386,0,0,1,.862,2.456,4.333,4.333,0,0,1-.381,2,2.637,2.637,0,0,1-1.113,1.121,3.148,3.148,0,0,1-1.591.409,2.985,2.985,0,0,1-2.236-.884A3.581,3.581,0,0,1,530.2,867.46Z" transform="translate(-330.092 -816.997)"/><path class="a" d="M539.813,870.757V864.17h1.012v1.014a2.786,2.786,0,0,1,.708-.938,1.255,1.255,0,0,1,.715-.222,2.159,2.159,0,0,1,1.142.355l-.4,1.033a1.666,1.666,0,0,0-.806-.228,1.091,1.091,0,0,0-.657.216,1.275,1.275,0,0,0-.408.61,4.343,4.343,0,0,0-.183,1.3v3.447Z" transform="translate(-331.212 -816.997)"/><path class="a" d="M545.762,870.757V864.17h1.013v1.014a2.754,2.754,0,0,1,.709-.938,1.233,1.233,0,0,1,.711-.222,2.175,2.175,0,0,1,1.144.355l-.4,1.033a1.66,1.66,0,0,0-.815-.228,1.044,1.044,0,0,0-.647.216,1.212,1.212,0,0,0-.415.61,4.4,4.4,0,0,0-.185,1.3v3.447Z" transform="translate(-331.906 -816.997)"/><path class="a" d="M552.39,867.467a2.83,2.83,0,0,0,.548,1.889,1.814,1.814,0,0,0,1.4.636,1.769,1.769,0,0,0,1.39-.636,2.841,2.841,0,0,0,.56-1.925,2.707,2.707,0,0,0-.56-1.846,1.855,1.855,0,0,0-2.789-.005A2.807,2.807,0,0,0,552.39,867.467Zm-1.14-.007a3.356,3.356,0,0,1,1.025-2.706,3.076,3.076,0,0,1,2.062-.731,2.964,2.964,0,0,1,2.223.887,3.352,3.352,0,0,1,.862,2.456,4.378,4.378,0,0,1-.379,2,2.672,2.672,0,0,1-1.111,1.121,3.184,3.184,0,0,1-1.595.409,2.989,2.989,0,0,1-2.234-.884A3.567,3.567,0,0,1,551.25,867.46Z" transform="translate(-332.544 -816.997)"/><path class="a" d="M565.9,873.306l-.125-1.028a2.688,2.688,0,0,0,.636.1,1.3,1.3,0,0,0,.594-.122,1.133,1.133,0,0,0,.364-.353,5.364,5.364,0,0,0,.337-.826c.022-.066.059-.156.106-.275l-2.51-6.609h1.2l1.369,3.8c.174.482.338.991.483,1.523.131-.494.291-1,.465-1.485l1.408-3.834h1.117l-2.5,6.7a12.145,12.145,0,0,1-.625,1.482,2.085,2.085,0,0,1-.686.807,1.569,1.569,0,0,1-.92.261A2.194,2.194,0,0,1,565.9,873.306Z" transform="translate(-334.181 -817.018)"/><path class="a" d="M586.14,867.228l1.209.308a4,4,0,0,1-1.363,2.259,3.691,3.691,0,0,1-2.407.784,4.292,4.292,0,0,1-2.388-.6,3.706,3.706,0,0,1-1.4-1.732,6.15,6.15,0,0,1-.485-2.442,5.452,5.452,0,0,1,.534-2.482,3.812,3.812,0,0,1,1.556-1.616,4.519,4.519,0,0,1,2.216-.546,3.77,3.77,0,0,1,2.287.694,3.653,3.653,0,0,1,1.3,1.961l-1.2.28a2.79,2.79,0,0,0-.914-1.449,2.454,2.454,0,0,0-1.507-.449,2.988,2.988,0,0,0-1.76.5,2.708,2.708,0,0,0-.984,1.35,5.883,5.883,0,0,0,.054,3.771,2.528,2.528,0,0,0,1.05,1.3,2.968,2.968,0,0,0,1.545.421,2.607,2.607,0,0,0,1.705-.577A3.019,3.019,0,0,0,586.14,867.228Z" transform="translate(-335.812 -816.664)"/><path class="a" d="M591.069,870.757V864.17h1.017v1.014a2.916,2.916,0,0,1,.7-.938,1.286,1.286,0,0,1,.725-.222,2.171,2.171,0,0,1,1.139.355l-.393,1.033a1.707,1.707,0,0,0-.814-.228,1.088,1.088,0,0,0-.657.216,1.208,1.208,0,0,0-.4.61,4.178,4.178,0,0,0-.187,1.3v3.447Z" transform="translate(-337.182 -816.997)"/><path class="a" d="M598.758,863.017l.824-1.734h1.476l-1.373,1.734Zm-.925,3.5h3.678a2.2,2.2,0,0,0-.428-1.249,1.708,1.708,0,0,0-1.381-.654,1.751,1.751,0,0,0-1.29.524A1.986,1.986,0,0,0,597.832,866.515Zm3.66,1.786,1.16.162a2.883,2.883,0,0,1-1.015,1.559,3.423,3.423,0,0,1-4.17-.331,3.476,3.476,0,0,1-.845-2.5,3.616,3.616,0,0,1,.85-2.57,2.889,2.889,0,0,1,2.219-.921,2.81,2.81,0,0,1,2.155.9,3.53,3.53,0,0,1,.839,2.522c0,.062,0,.17-.007.3h-4.919a2.473,2.473,0,0,0,.621,1.659,1.832,1.832,0,0,0,1.374.586,1.689,1.689,0,0,0,1.052-.33A2.09,2.09,0,0,0,601.492,868.3Z" transform="translate(-337.83 -816.678)"/><path class="a" d="M606.855,867.162a2.853,2.853,0,0,0,.537,1.885,1.6,1.6,0,0,0,2.529.022,2.714,2.714,0,0,0,.515-1.821,3.009,3.009,0,0,0-.529-1.976,1.618,1.618,0,0,0-1.29-.634,1.576,1.576,0,0,0-1.257.605A2.975,2.975,0,0,0,606.855,867.162Zm3.545,3.283v-.831a2.072,2.072,0,0,1-1.852.971,2.554,2.554,0,0,1-1.44-.428,2.828,2.828,0,0,1-1.028-1.21,4.078,4.078,0,0,1-.369-1.792,4.645,4.645,0,0,1,.334-1.785,2.567,2.567,0,0,1,.987-1.229,2.638,2.638,0,0,1,1.467-.43,2.2,2.2,0,0,1,1.054.251,2.261,2.261,0,0,1,.755.654v-3.272h1.127v9.1Z" transform="translate(-338.889 -816.685)"/><path class="a" d="M615.358,870.445v-6.588h1.12v6.588Zm0-7.819v-1.282h1.12v1.282Z" transform="translate(-340.013 -816.685)"/><path class="a" d="M622.063,869.474l.158.99a4.722,4.722,0,0,1-.852.094,1.932,1.932,0,0,1-.944-.19,1.046,1.046,0,0,1-.474-.5,3.975,3.975,0,0,1-.136-1.321v-3.789h-.826v-.869h.826v-1.634l1.117-.676v2.309h1.132v.869h-1.132v3.857a1.994,1.994,0,0,0,.063.618.462.462,0,0,0,.193.216.792.792,0,0,0,.381.082A3.753,3.753,0,0,0,622.063,869.474Z" transform="translate(-340.435 -816.712)"/><path class="a" d="M625.519,867.467a2.761,2.761,0,0,0,.555,1.889,1.836,1.836,0,0,0,2.78,0,2.831,2.831,0,0,0,.557-1.925,2.716,2.716,0,0,0-.557-1.846,1.793,1.793,0,0,0-1.386-.634,1.772,1.772,0,0,0-1.393.629A2.739,2.739,0,0,0,625.519,867.467Zm-1.141-.007a3.4,3.4,0,0,1,1.013-2.706,3.128,3.128,0,0,1,2.075-.731,2.956,2.956,0,0,1,2.218.887,3.355,3.355,0,0,1,.868,2.456,4.364,4.364,0,0,1-.384,2,2.654,2.654,0,0,1-1.112,1.121,3.148,3.148,0,0,1-1.589.409,2.96,2.96,0,0,1-2.234-.884A3.53,3.53,0,0,1,624.378,867.46Z" transform="translate(-341.063 -816.997)"/><rect class="b" width="211.84" height="1.767" transform="translate(77.651 37.433)"/><rect class="c" width="66.327" height="65"/><rect class="d" width="62.807" height="61.531" transform="translate(1.765 1.733)"/><path class="e" d="M311.066,832.992a26.341,26.341,0,0,1,4.188-5.43c10.87-10.865,28.914-10.441,40.313.955s11.831,29.443.96,40.317c-.184.187-.377.365-.566.546Z" transform="translate(-304.568 -811.832)"/><path class="f" d="M364.922,851.163l-9.9,19.493,2.372-.6,9.613-19.644Z" transform="translate(-309.688 -815.411)"/><path class="g" d="M335.786,851.312l.016,6.179,2.369-1.194-.011-5.807-2.386.823Z" transform="translate(-307.447 -815.42)"/><path class="h" d="M327.623,849.6h.043l2.417-.828,5.55-11.327-.986-1.917Z" transform="translate(-306.497 -813.679)"/><path class="i" d="M367.406,850.411l-6.688.016-2.223.747,6.831-.011Z" transform="translate(-310.092 -815.411)"/><path class="j" d="M354.066,850.9l-16.351-31.18-2.523.749,17.487,33.1Z" transform="translate(-307.378 -811.836)"/><path class="k" d="M337.217,850.49l-7.118.023-2.423.828,7.156-.028Z" transform="translate(-306.501 -815.42)"/><path class="l" d="M353.618,847.7l-1.715,3.3-1.387,2.665-17.487-33.1-16.4,33.488,16.947-.045-.016-6.179h-.012l-7.155.029h-.046l7.023-14.072.986,1.917,16.2,31.48,9.9-19.493Z" transform="translate(-305.216 -811.936)"/></svg>